<?xml version="1.0" encoding="UTF-8"?>
<svg xmlns="http://www.w3.org/2000/svg" width="1220" height="700" viewBox="0 0 1220 700">
<rect width="100%" height="100%" fill="#ffffff" />
<text x="610.00" y="36.00" fill="#111827" font-size="24" font-family="Helvetica, Arial, sans-serif" text-anchor="middle" font-weight="700">GEMM benchmark: MNK vs MFLOPs</text>
<text x="610.00" y="58.00" fill="#6b7280" font-size="13" font-family="Helvetica, Arial, sans-serif" text-anchor="middle">Source: benchmark.csv</text>
<rect x="100" y="70" width="1080" height="540" fill="#fafafa" stroke="#e5e7eb" />
<line x1="100.00" y1="610.00" x2="1180.00" y2="610.00" stroke="#e5e7eb" stroke-width="1" />
<text x="88.00" y="614.00" fill="#374151" font-size="12" font-family="Helvetica, Arial, sans-serif" text-anchor="end">0</text>
<line x1="100.00" y1="502.00" x2="1180.00" y2="502.00" stroke="#e5e7eb" stroke-width="1" />
<text x="88.00" y="506.00" fill="#374151" font-size="12" font-family="Helvetica, Arial, sans-serif" text-anchor="end">272.5K</text>
<line x1="100.00" y1="394.00" x2="1180.00" y2="394.00" stroke="#e5e7eb" stroke-width="1" />
<text x="88.00" y="398.00" fill="#374151" font-size="12" font-family="Helvetica, Arial, sans-serif" text-anchor="end">544.9K</text>
<line x1="100.00" y1="286.00" x2="1180.00" y2="286.00" stroke="#e5e7eb" stroke-width="1" />
<text x="88.00" y="290.00" fill="#374151" font-size="12" font-family="Helvetica, Arial, sans-serif" text-anchor="end">817.4K</text>
<line x1="100.00" y1="178.00" x2="1180.00" y2="178.00" stroke="#e5e7eb" stroke-width="1" />
<text x="88.00" y="182.00" fill="#374151" font-size="12" font-family="Helvetica, Arial, sans-serif" text-anchor="end">1.1M</text>
<line x1="100.00" y1="70.00" x2="1180.00" y2="70.00" stroke="#e5e7eb" stroke-width="1" />
<text x="88.00" y="74.00" fill="#374151" font-size="12" font-family="Helvetica, Arial, sans-serif" text-anchor="end">1.4M</text>
<line x1="100.00" y1="70.00" x2="100.00" y2="610.00" stroke="#e5e7eb" stroke-width="1" />
<text x="100.00" y="634.00" fill="#374151" font-size="12" font-family="Helvetica, Arial, sans-serif" text-anchor="middle">0</text>
<line x1="316.00" y1="70.00" x2="316.00" y2="610.00" stroke="#e5e7eb" stroke-width="1" />
<text x="316.00" y="634.00" fill="#374151" font-size="12" font-family="Helvetica, Arial, sans-serif" text-anchor="middle">1.8B</text>
<line x1="532.00" y1="70.00" x2="532.00" y2="610.00" stroke="#e5e7eb" stroke-width="1" />
<text x="532.00" y="634.00" fill="#374151" font-size="12" font-family="Helvetica, Arial, sans-serif" text-anchor="middle">3.6B</text>
<line x1="748.00" y1="70.00" x2="748.00" y2="610.00" stroke="#e5e7eb" stroke-width="1" />
<text x="748.00" y="634.00" fill="#374151" font-size="12" font-family="Helvetica, Arial, sans-serif" text-anchor="middle">5.4B</text>
<line x1="964.00" y1="70.00" x2="964.00" y2="610.00" stroke="#e5e7eb" stroke-width="1" />
<text x="964.00" y="634.00" fill="#374151" font-size="12" font-family="Helvetica, Arial, sans-serif" text-anchor="middle">7.2B</text>
<line x1="1180.00" y1="70.00" x2="1180.00" y2="610.00" stroke="#e5e7eb" stroke-width="1" />
<text x="1180.00" y="634.00" fill="#374151" font-size="12" font-family="Helvetica, Arial, sans-serif" text-anchor="middle">9.0B</text>
<line x1="100.00" y1="610.00" x2="1180.00" y2="610.00" stroke="#111827" stroke-width="1.5" />
<line x1="100.00" y1="70.00" x2="100.00" y2="610.00" stroke="#111827" stroke-width="1.5" />
<text x="610.00" y="672.00" fill="#111827" font-size="16" font-family="Helvetica, Arial, sans-serif" text-anchor="middle" font-weight="600">MNK</text>
<text x="28.00" y="350.00" fill="#111827" font-size="16" font-family="Helvetica, Arial, sans-serif" text-anchor="middle" font-weight="600" transform="rotate(-90 28 350.00)">MFLOPs</text>
<polyline points="100.25,586.94 100.85,558.82 102.01,531.23 106.78,501.91 116.07,494.77 131.39,463.06 154.24,437.91 186.13,407.06 228.57,399.86 283.06,393.67 351.12,393.35 533.93,392.32 1128.57,393.25" fill="none" stroke="#2563eb" stroke-width="3" stroke-linecap="round" stroke-linejoin="round" />
<circle cx="100.25" cy="586.94" r="4.50" fill="#2563eb" stroke="#ffffff" stroke-width="1.5" />
<circle cx="100.85" cy="558.82" r="4.50" fill="#2563eb" stroke="#ffffff" stroke-width="1.5" />
<circle cx="102.01" cy="531.23" r="4.50" fill="#2563eb" stroke="#ffffff" stroke-width="1.5" />
<circle cx="106.78" cy="501.91" r="4.50" fill="#2563eb" stroke="#ffffff" stroke-width="1.5" />
<circle cx="116.07" cy="494.77" r="4.50" fill="#2563eb" stroke="#ffffff" stroke-width="1.5" />
<circle cx="131.39" cy="463.06" r="4.50" fill="#2563eb" stroke="#ffffff" stroke-width="1.5" />
<circle cx="154.24" cy="437.91" r="4.50" fill="#2563eb" stroke="#ffffff" stroke-width="1.5" />
<circle cx="186.13" cy="407.06" r="4.50" fill="#2563eb" stroke="#ffffff" stroke-width="1.5" />
<circle cx="228.57" cy="399.86" r="4.50" fill="#2563eb" stroke="#ffffff" stroke-width="1.5" />
<circle cx="283.06" cy="393.67" r="4.50" fill="#2563eb" stroke="#ffffff" stroke-width="1.5" />
<circle cx="351.12" cy="393.35" r="4.50" fill="#2563eb" stroke="#ffffff" stroke-width="1.5" />
<circle cx="533.93" cy="392.32" r="4.50" fill="#2563eb" stroke="#ffffff" stroke-width="1.5" />
<circle cx="1128.57" cy="393.25" r="4.50" fill="#2563eb" stroke="#ffffff" stroke-width="1.5" />
<line x1="820.00" y1="88.00" x2="844.00" y2="88.00" stroke="#2563eb" stroke-width="3" />
<circle cx="832.00" cy="88.00" r="4.50" fill="#2563eb" stroke="#ffffff" stroke-width="1.5" />
<text x="854.00" y="92.00" fill="#111827" font-size="13" font-family="Helvetica, Arial, sans-serif">Metal packed-swizzled B 4x4</text>
<polyline points="100.25,577.38 100.85,538.48 102.01,506.39 106.78,478.27 116.07,468.11 131.39,445.55 154.24,418.42 186.13,383.89 228.57,356.88 283.06,346.88 351.12,346.11 533.93,345.92 1128.57,344.92" fill="none" stroke="#dc2626" stroke-width="3" stroke-linecap="round" stroke-linejoin="round" />
<circle cx="100.25" cy="577.38" r="4.50" fill="#dc2626" stroke="#ffffff" stroke-width="1.5" />
<circle cx="100.85" cy="538.48" r="4.50" fill="#dc2626" stroke="#ffffff" stroke-width="1.5" />
<circle cx="102.01" cy="506.39" r="4.50" fill="#dc2626" stroke="#ffffff" stroke-width="1.5" />
<circle cx="106.78" cy="478.27" r="4.50" fill="#dc2626" stroke="#ffffff" stroke-width="1.5" />
<circle cx="116.07" cy="468.11" r="4.50" fill="#dc2626" stroke="#ffffff" stroke-width="1.5" />
<circle cx="131.39" cy="445.55" r="4.50" fill="#dc2626" stroke="#ffffff" stroke-width="1.5" />
<circle cx="154.24" cy="418.42" r="4.50" fill="#dc2626" stroke="#ffffff" stroke-width="1.5" />
<circle cx="186.13" cy="383.89" r="4.50" fill="#dc2626" stroke="#ffffff" stroke-width="1.5" />
<circle cx="228.57" cy="356.88" r="4.50" fill="#dc2626" stroke="#ffffff" stroke-width="1.5" />
<circle cx="283.06" cy="346.88" r="4.50" fill="#dc2626" stroke="#ffffff" stroke-width="1.5" />
<circle cx="351.12" cy="346.11" r="4.50" fill="#dc2626" stroke="#ffffff" stroke-width="1.5" />
<circle cx="533.93" cy="345.92" r="4.50" fill="#dc2626" stroke="#ffffff" stroke-width="1.5" />
<circle cx="1128.57" cy="344.92" r="4.50" fill="#dc2626" stroke="#ffffff" stroke-width="1.5" />
<line x1="820.00" y1="112.00" x2="844.00" y2="112.00" stroke="#dc2626" stroke-width="3" />
<circle cx="832.00" cy="112.00" r="4.50" fill="#dc2626" stroke="#ffffff" stroke-width="1.5" />
<text x="854.00" y="116.00" fill="#111827" font-size="13" font-family="Helvetica, Arial, sans-serif">Metal packed-swizzled vec4 B 4x4</text>
<polyline points="100.25,564.21 100.85,510.18 102.01,476.25 106.78,458.99 116.07,435.04 131.39,429.10 154.24,371.29 186.13,332.94 228.57,311.16 283.06,293.99 351.12,288.14 533.93,286.76 1128.57,288.69" fill="none" stroke="#16a34a" stroke-width="3" stroke-linecap="round" stroke-linejoin="round" />
<circle cx="100.25" cy="564.21" r="4.50" fill="#16a34a" stroke="#ffffff" stroke-width="1.5" />
<circle cx="100.85" cy="510.18" r="4.50" fill="#16a34a" stroke="#ffffff" stroke-width="1.5" />
<circle cx="102.01" cy="476.25" r="4.50" fill="#16a34a" stroke="#ffffff" stroke-width="1.5" />
<circle cx="106.78" cy="458.99" r="4.50" fill="#16a34a" stroke="#ffffff" stroke-width="1.5" />
<circle cx="116.07" cy="435.04" r="4.50" fill="#16a34a" stroke="#ffffff" stroke-width="1.5" />
<circle cx="131.39" cy="429.10" r="4.50" fill="#16a34a" stroke="#ffffff" stroke-width="1.5" />
<circle cx="154.24" cy="371.29" r="4.50" fill="#16a34a" stroke="#ffffff" stroke-width="1.5" />
<circle cx="186.13" cy="332.94" r="4.50" fill="#16a34a" stroke="#ffffff" stroke-width="1.5" />
<circle cx="228.57" cy="311.16" r="4.50" fill="#16a34a" stroke="#ffffff" stroke-width="1.5" />
<circle cx="283.06" cy="293.99" r="4.50" fill="#16a34a" stroke="#ffffff" stroke-width="1.5" />
<circle cx="351.12" cy="288.14" r="4.50" fill="#16a34a" stroke="#ffffff" stroke-width="1.5" />
<circle cx="533.93" cy="286.76" r="4.50" fill="#16a34a" stroke="#ffffff" stroke-width="1.5" />
<circle cx="1128.57" cy="288.69" r="4.50" fill="#16a34a" stroke="#ffffff" stroke-width="1.5" />
<line x1="820.00" y1="136.00" x2="844.00" y2="136.00" stroke="#16a34a" stroke-width="3" />
<circle cx="832.00" cy="136.00" r="4.50" fill="#16a34a" stroke="#ffffff" stroke-width="1.5" />
<text x="854.00" y="140.00" fill="#111827" font-size="13" font-family="Helvetica, Arial, sans-serif">Metal packed-vectorized A+B 4x4 aligned</text>
<polyline points="100.25,565.00 100.85,509.98 102.01,475.56 106.78,457.83 116.07,433.89 131.39,433.43 154.24,370.61 186.13,344.68 228.57,307.53 283.06,290.93 351.12,285.77 533.93,284.36 1128.57,289.62" fill="none" stroke="#7c3aed" stroke-width="3" stroke-linecap="round" stroke-linejoin="round" />
<circle cx="100.25" cy="565.00" r="4.50" fill="#7c3aed" stroke="#ffffff" stroke-width="1.5" />
<circle cx="100.85" cy="509.98" r="4.50" fill="#7c3aed" stroke="#ffffff" stroke-width="1.5" />
<circle cx="102.01" cy="475.56" r="4.50" fill="#7c3aed" stroke="#ffffff" stroke-width="1.5" />
<circle cx="106.78" cy="457.83" r="4.50" fill="#7c3aed" stroke="#ffffff" stroke-width="1.5" />
<circle cx="116.07" cy="433.89" r="4.50" fill="#7c3aed" stroke="#ffffff" stroke-width="1.5" />
<circle cx="131.39" cy="433.43" r="4.50" fill="#7c3aed" stroke="#ffffff" stroke-width="1.5" />
<circle cx="154.24" cy="370.61" r="4.50" fill="#7c3aed" stroke="#ffffff" stroke-width="1.5" />
<circle cx="186.13" cy="344.68" r="4.50" fill="#7c3aed" stroke="#ffffff" stroke-width="1.5" />
<circle cx="228.57" cy="307.53" r="4.50" fill="#7c3aed" stroke="#ffffff" stroke-width="1.5" />
<circle cx="283.06" cy="290.93" r="4.50" fill="#7c3aed" stroke="#ffffff" stroke-width="1.5" />
<circle cx="351.12" cy="285.77" r="4.50" fill="#7c3aed" stroke="#ffffff" stroke-width="1.5" />
<circle cx="533.93" cy="284.36" r="4.50" fill="#7c3aed" stroke="#ffffff" stroke-width="1.5" />
<circle cx="1128.57" cy="289.62" r="4.50" fill="#7c3aed" stroke="#ffffff" stroke-width="1.5" />
<line x1="820.00" y1="160.00" x2="844.00" y2="160.00" stroke="#7c3aed" stroke-width="3" />
<circle cx="832.00" cy="160.00" r="4.50" fill="#7c3aed" stroke="#ffffff" stroke-width="1.5" />
<text x="854.00" y="164.00" fill="#111827" font-size="13" font-family="Helvetica, Arial, sans-serif">Metal packed-vectorized A+B 4x4 k16</text>
<polyline points="100.25,555.66 100.85,496.17 102.01,486.27 106.78,445.41 116.07,435.49 131.39,408.92 154.24,371.83 186.13,326.70 228.57,302.90 283.06,302.09 351.12,299.68 533.93,310.62 1128.57,320.69" fill="none" stroke="#ea580c" stroke-width="3" stroke-linecap="round" stroke-linejoin="round" />
<circle cx="100.25" cy="555.66" r="4.50" fill="#ea580c" stroke="#ffffff" stroke-width="1.5" />
<circle cx="100.85" cy="496.17" r="4.50" fill="#ea580c" stroke="#ffffff" stroke-width="1.5" />
<circle cx="102.01" cy="486.27" r="4.50" fill="#ea580c" stroke="#ffffff" stroke-width="1.5" />
<circle cx="106.78" cy="445.41" r="4.50" fill="#ea580c" stroke="#ffffff" stroke-width="1.5" />
<circle cx="116.07" cy="435.49" r="4.50" fill="#ea580c" stroke="#ffffff" stroke-width="1.5" />
<circle cx="131.39" cy="408.92" r="4.50" fill="#ea580c" stroke="#ffffff" stroke-width="1.5" />
<circle cx="154.24" cy="371.83" r="4.50" fill="#ea580c" stroke="#ffffff" stroke-width="1.5" />
<circle cx="186.13" cy="326.70" r="4.50" fill="#ea580c" stroke="#ffffff" stroke-width="1.5" />
<circle cx="228.57" cy="302.90" r="4.50" fill="#ea580c" stroke="#ffffff" stroke-width="1.5" />
<circle cx="283.06" cy="302.09" r="4.50" fill="#ea580c" stroke="#ffffff" stroke-width="1.5" />
<circle cx="351.12" cy="299.68" r="4.50" fill="#ea580c" stroke="#ffffff" stroke-width="1.5" />
<circle cx="533.93" cy="310.62" r="4.50" fill="#ea580c" stroke="#ffffff" stroke-width="1.5" />
<circle cx="1128.57" cy="320.69" r="4.50" fill="#ea580c" stroke="#ffffff" stroke-width="1.5" />
<line x1="820.00" y1="184.00" x2="844.00" y2="184.00" stroke="#ea580c" stroke-width="3" />
<circle cx="832.00" cy="184.00" r="4.50" fill="#ea580c" stroke="#ffffff" stroke-width="1.5" />
<text x="854.00" y="188.00" fill="#111827" font-size="13" font-family="Helvetica, Arial, sans-serif">Metal packed-vectorized A+B 4x4 unroll</text>
<polyline points="100.25,577.36 100.85,538.33 102.01,504.67 106.78,474.81 116.07,465.63 131.39,449.41 154.24,408.91 186.13,376.73 228.57,349.71 283.06,342.08 351.12,342.14 533.93,340.94 1128.57,340.56" fill="none" stroke="#0891b2" stroke-width="3" stroke-linecap="round" stroke-linejoin="round" />
<circle cx="100.25" cy="577.36" r="4.50" fill="#0891b2" stroke="#ffffff" stroke-width="1.5" />
<circle cx="100.85" cy="538.33" r="4.50" fill="#0891b2" stroke="#ffffff" stroke-width="1.5" />
<circle cx="102.01" cy="504.67" r="4.50" fill="#0891b2" stroke="#ffffff" stroke-width="1.5" />
<circle cx="106.78" cy="474.81" r="4.50" fill="#0891b2" stroke="#ffffff" stroke-width="1.5" />
<circle cx="116.07" cy="465.63" r="4.50" fill="#0891b2" stroke="#ffffff" stroke-width="1.5" />
<circle cx="131.39" cy="449.41" r="4.50" fill="#0891b2" stroke="#ffffff" stroke-width="1.5" />
<circle cx="154.24" cy="408.91" r="4.50" fill="#0891b2" stroke="#ffffff" stroke-width="1.5" />
<circle cx="186.13" cy="376.73" r="4.50" fill="#0891b2" stroke="#ffffff" stroke-width="1.5" />
<circle cx="228.57" cy="349.71" r="4.50" fill="#0891b2" stroke="#ffffff" stroke-width="1.5" />
<circle cx="283.06" cy="342.08" r="4.50" fill="#0891b2" stroke="#ffffff" stroke-width="1.5" />
<circle cx="351.12" cy="342.14" r="4.50" fill="#0891b2" stroke="#ffffff" stroke-width="1.5" />
<circle cx="533.93" cy="340.94" r="4.50" fill="#0891b2" stroke="#ffffff" stroke-width="1.5" />
<circle cx="1128.57" cy="340.56" r="4.50" fill="#0891b2" stroke="#ffffff" stroke-width="1.5" />
<line x1="820.00" y1="208.00" x2="844.00" y2="208.00" stroke="#0891b2" stroke-width="3" />
<circle cx="832.00" cy="208.00" r="4.50" fill="#0891b2" stroke="#ffffff" stroke-width="1.5" />
<text x="854.00" y="212.00" fill="#111827" font-size="13" font-family="Helvetica, Arial, sans-serif">Metal packed-vectorized B 4x4</text>
<polyline points="100.25,580.75 100.85,544.13 102.01,509.12 106.78,497.43 116.07,483.05 131.39,462.58 154.24,412.08 186.13,393.00 228.57,368.12 283.06,356.12 351.12,351.24 533.93,352.75 1128.57,358.21" fill="none" stroke="#d97706" stroke-width="3" stroke-linecap="round" stroke-linejoin="round" />
<circle cx="100.25" cy="580.75" r="4.50" fill="#d97706" stroke="#ffffff" stroke-width="1.5" />
<circle cx="100.85" cy="544.13" r="4.50" fill="#d97706" stroke="#ffffff" stroke-width="1.5" />
<circle cx="102.01" cy="509.12" r="4.50" fill="#d97706" stroke="#ffffff" stroke-width="1.5" />
<circle cx="106.78" cy="497.43" r="4.50" fill="#d97706" stroke="#ffffff" stroke-width="1.5" />
<circle cx="116.07" cy="483.05" r="4.50" fill="#d97706" stroke="#ffffff" stroke-width="1.5" />
<circle cx="131.39" cy="462.58" r="4.50" fill="#d97706" stroke="#ffffff" stroke-width="1.5" />
<circle cx="154.24" cy="412.08" r="4.50" fill="#d97706" stroke="#ffffff" stroke-width="1.5" />
<circle cx="186.13" cy="393.00" r="4.50" fill="#d97706" stroke="#ffffff" stroke-width="1.5" />
<circle cx="228.57" cy="368.12" r="4.50" fill="#d97706" stroke="#ffffff" stroke-width="1.5" />
<circle cx="283.06" cy="356.12" r="4.50" fill="#d97706" stroke="#ffffff" stroke-width="1.5" />
<circle cx="351.12" cy="351.24" r="4.50" fill="#d97706" stroke="#ffffff" stroke-width="1.5" />
<circle cx="533.93" cy="352.75" r="4.50" fill="#d97706" stroke="#ffffff" stroke-width="1.5" />
<circle cx="1128.57" cy="358.21" r="4.50" fill="#d97706" stroke="#ffffff" stroke-width="1.5" />
<line x1="820.00" y1="232.00" x2="844.00" y2="232.00" stroke="#d97706" stroke-width="3" />
<circle cx="832.00" cy="232.00" r="4.50" fill="#d97706" stroke="#ffffff" stroke-width="1.5" />
<text x="854.00" y="236.00" fill="#111827" font-size="13" font-family="Helvetica, Arial, sans-serif">Metal packed-vectorized B 4x4 k16</text>
<polyline points="100.25,587.01 100.85,559.11 102.01,528.00 106.78,492.12 116.07,471.19 131.39,449.27 154.24,435.85 186.13,409.39 228.57,389.79 283.06,386.80 351.12,386.39 533.93,384.63 1128.57,386.57" fill="none" stroke="#db2777" stroke-width="3" stroke-linecap="round" stroke-linejoin="round" />
<circle cx="100.25" cy="587.01" r="4.50" fill="#db2777" stroke="#ffffff" stroke-width="1.5" />
<circle cx="100.85" cy="559.11" r="4.50" fill="#db2777" stroke="#ffffff" stroke-width="1.5" />
<circle cx="102.01" cy="528.00" r="4.50" fill="#db2777" stroke="#ffffff" stroke-width="1.5" />
<circle cx="106.78" cy="492.12" r="4.50" fill="#db2777" stroke="#ffffff" stroke-width="1.5" />
<circle cx="116.07" cy="471.19" r="4.50" fill="#db2777" stroke="#ffffff" stroke-width="1.5" />
<circle cx="131.39" cy="449.27" r="4.50" fill="#db2777" stroke="#ffffff" stroke-width="1.5" />
<circle cx="154.24" cy="435.85" r="4.50" fill="#db2777" stroke="#ffffff" stroke-width="1.5" />
<circle cx="186.13" cy="409.39" r="4.50" fill="#db2777" stroke="#ffffff" stroke-width="1.5" />
<circle cx="228.57" cy="389.79" r="4.50" fill="#db2777" stroke="#ffffff" stroke-width="1.5" />
<circle cx="283.06" cy="386.80" r="4.50" fill="#db2777" stroke="#ffffff" stroke-width="1.5" />
<circle cx="351.12" cy="386.39" r="4.50" fill="#db2777" stroke="#ffffff" stroke-width="1.5" />
<circle cx="533.93" cy="384.63" r="4.50" fill="#db2777" stroke="#ffffff" stroke-width="1.5" />
<circle cx="1128.57" cy="386.57" r="4.50" fill="#db2777" stroke="#ffffff" stroke-width="1.5" />
<line x1="820.00" y1="256.00" x2="844.00" y2="256.00" stroke="#db2777" stroke-width="3" />
<circle cx="832.00" cy="256.00" r="4.50" fill="#db2777" stroke="#ffffff" stroke-width="1.5" />
<text x="854.00" y="260.00" fill="#111827" font-size="13" font-family="Helvetica, Arial, sans-serif">Metal register blocked 4x4</text>
<polyline points="100.25,562.30 100.85,561.59 102.01,555.04 106.78,554.25 116.07,544.16 131.39,517.14 154.24,520.31 186.13,519.26 228.57,522.81 283.06,520.03 351.12,524.31 533.93,527.94 1128.57,528.71" fill="none" stroke="#4f46e5" stroke-width="3" stroke-linecap="round" stroke-linejoin="round" />
<circle cx="100.25" cy="562.30" r="4.50" fill="#4f46e5" stroke="#ffffff" stroke-width="1.5" />
<circle cx="100.85" cy="561.59" r="4.50" fill="#4f46e5" stroke="#ffffff" stroke-width="1.5" />
<circle cx="102.01" cy="555.04" r="4.50" fill="#4f46e5" stroke="#ffffff" stroke-width="1.5" />
<circle cx="106.78" cy="554.25" r="4.50" fill="#4f46e5" stroke="#ffffff" stroke-width="1.5" />
<circle cx="116.07" cy="544.16" r="4.50" fill="#4f46e5" stroke="#ffffff" stroke-width="1.5" />
<circle cx="131.39" cy="517.14" r="4.50" fill="#4f46e5" stroke="#ffffff" stroke-width="1.5" />
<circle cx="154.24" cy="520.31" r="4.50" fill="#4f46e5" stroke="#ffffff" stroke-width="1.5" />
<circle cx="186.13" cy="519.26" r="4.50" fill="#4f46e5" stroke="#ffffff" stroke-width="1.5" />
<circle cx="228.57" cy="522.81" r="4.50" fill="#4f46e5" stroke="#ffffff" stroke-width="1.5" />
<circle cx="283.06" cy="520.03" r="4.50" fill="#4f46e5" stroke="#ffffff" stroke-width="1.5" />
<circle cx="351.12" cy="524.31" r="4.50" fill="#4f46e5" stroke="#ffffff" stroke-width="1.5" />
<circle cx="533.93" cy="527.94" r="4.50" fill="#4f46e5" stroke="#ffffff" stroke-width="1.5" />
<circle cx="1128.57" cy="528.71" r="4.50" fill="#4f46e5" stroke="#ffffff" stroke-width="1.5" />
<line x1="820.00" y1="280.00" x2="844.00" y2="280.00" stroke="#4f46e5" stroke-width="3" />
<circle cx="832.00" cy="280.00" r="4.50" fill="#4f46e5" stroke="#ffffff" stroke-width="1.5" />
<text x="854.00" y="284.00" fill="#111827" font-size="13" font-family="Helvetica, Arial, sans-serif">Metal swizzled 32x32</text>
<polyline points="100.25,561.89 100.85,550.79 102.01,548.08 106.78,546.18 116.07,532.03 131.39,511.88 154.24,503.29 186.13,495.03 228.57,494.77 283.06,495.49 351.12,496.56 533.93,498.42 1128.57,499.45" fill="none" stroke="#059669" stroke-width="3" stroke-linecap="round" stroke-linejoin="round" />
<circle cx="100.25" cy="561.89" r="4.50" fill="#059669" stroke="#ffffff" stroke-width="1.5" />
<circle cx="100.85" cy="550.79" r="4.50" fill="#059669" stroke="#ffffff" stroke-width="1.5" />
<circle cx="102.01" cy="548.08" r="4.50" fill="#059669" stroke="#ffffff" stroke-width="1.5" />
<circle cx="106.78" cy="546.18" r="4.50" fill="#059669" stroke="#ffffff" stroke-width="1.5" />
<circle cx="116.07" cy="532.03" r="4.50" fill="#059669" stroke="#ffffff" stroke-width="1.5" />
<circle cx="131.39" cy="511.88" r="4.50" fill="#059669" stroke="#ffffff" stroke-width="1.5" />
<circle cx="154.24" cy="503.29" r="4.50" fill="#059669" stroke="#ffffff" stroke-width="1.5" />
<circle cx="186.13" cy="495.03" r="4.50" fill="#059669" stroke="#ffffff" stroke-width="1.5" />
<circle cx="228.57" cy="494.77" r="4.50" fill="#059669" stroke="#ffffff" stroke-width="1.5" />
<circle cx="283.06" cy="495.49" r="4.50" fill="#059669" stroke="#ffffff" stroke-width="1.5" />
<circle cx="351.12" cy="496.56" r="4.50" fill="#059669" stroke="#ffffff" stroke-width="1.5" />
<circle cx="533.93" cy="498.42" r="4.50" fill="#059669" stroke="#ffffff" stroke-width="1.5" />
<circle cx="1128.57" cy="499.45" r="4.50" fill="#059669" stroke="#ffffff" stroke-width="1.5" />
<line x1="820.00" y1="304.00" x2="844.00" y2="304.00" stroke="#059669" stroke-width="3" />
<circle cx="832.00" cy="304.00" r="4.50" fill="#059669" stroke="#ffffff" stroke-width="1.5" />
<text x="854.00" y="308.00" fill="#111827" font-size="13" font-family="Helvetica, Arial, sans-serif">Metal tiled 16x16</text>
<polyline points="100.25,558.40 100.85,557.33 102.01,550.11 106.78,548.48 116.07,527.37 131.39,522.26 154.24,512.66 186.13,511.41 228.57,515.44 283.06,512.32 351.12,518.96 533.93,521.07 1128.57,522.70" fill="none" stroke="#b91c1c" stroke-width="3" stroke-linecap="round" stroke-linejoin="round" />
<circle cx="100.25" cy="558.40" r="4.50" fill="#b91c1c" stroke="#ffffff" stroke-width="1.5" />
<circle cx="100.85" cy="557.33" r="4.50" fill="#b91c1c" stroke="#ffffff" stroke-width="1.5" />
<circle cx="102.01" cy="550.11" r="4.50" fill="#b91c1c" stroke="#ffffff" stroke-width="1.5" />
<circle cx="106.78" cy="548.48" r="4.50" fill="#b91c1c" stroke="#ffffff" stroke-width="1.5" />
<circle cx="116.07" cy="527.37" r="4.50" fill="#b91c1c" stroke="#ffffff" stroke-width="1.5" />
<circle cx="131.39" cy="522.26" r="4.50" fill="#b91c1c" stroke="#ffffff" stroke-width="1.5" />
<circle cx="154.24" cy="512.66" r="4.50" fill="#b91c1c" stroke="#ffffff" stroke-width="1.5" />
<circle cx="186.13" cy="511.41" r="4.50" fill="#b91c1c" stroke="#ffffff" stroke-width="1.5" />
<circle cx="228.57" cy="515.44" r="4.50" fill="#b91c1c" stroke="#ffffff" stroke-width="1.5" />
<circle cx="283.06" cy="512.32" r="4.50" fill="#b91c1c" stroke="#ffffff" stroke-width="1.5" />
<circle cx="351.12" cy="518.96" r="4.50" fill="#b91c1c" stroke="#ffffff" stroke-width="1.5" />
<circle cx="533.93" cy="521.07" r="4.50" fill="#b91c1c" stroke="#ffffff" stroke-width="1.5" />
<circle cx="1128.57" cy="522.70" r="4.50" fill="#b91c1c" stroke="#ffffff" stroke-width="1.5" />
<line x1="820.00" y1="328.00" x2="844.00" y2="328.00" stroke="#b91c1c" stroke-width="3" />
<circle cx="832.00" cy="328.00" r="4.50" fill="#b91c1c" stroke="#ffffff" stroke-width="1.5" />
<text x="854.00" y="332.00" fill="#111827" font-size="13" font-family="Helvetica, Arial, sans-serif">Metal tiled 32x32</text>
<polyline points="100.25,342.57 100.85,284.24 102.01,235.42 106.78,191.38 116.07,270.00 131.39,138.10 154.24,124.43 186.13,119.09 228.57,305.35 283.06,191.39 351.12,261.65 533.93,278.35 1128.57,307.93" fill="none" stroke="#1d4ed8" stroke-width="3" stroke-linecap="round" stroke-linejoin="round" />
<circle cx="100.25" cy="342.57" r="4.50" fill="#1d4ed8" stroke="#ffffff" stroke-width="1.5" />
<circle cx="100.85" cy="284.24" r="4.50" fill="#1d4ed8" stroke="#ffffff" stroke-width="1.5" />
<circle cx="102.01" cy="235.42" r="4.50" fill="#1d4ed8" stroke="#ffffff" stroke-width="1.5" />
<circle cx="106.78" cy="191.38" r="4.50" fill="#1d4ed8" stroke="#ffffff" stroke-width="1.5" />
<circle cx="116.07" cy="270.00" r="4.50" fill="#1d4ed8" stroke="#ffffff" stroke-width="1.5" />
<circle cx="131.39" cy="138.10" r="4.50" fill="#1d4ed8" stroke="#ffffff" stroke-width="1.5" />
<circle cx="154.24" cy="124.43" r="4.50" fill="#1d4ed8" stroke="#ffffff" stroke-width="1.5" />
<circle cx="186.13" cy="119.09" r="4.50" fill="#1d4ed8" stroke="#ffffff" stroke-width="1.5" />
<circle cx="228.57" cy="305.35" r="4.50" fill="#1d4ed8" stroke="#ffffff" stroke-width="1.5" />
<circle cx="283.06" cy="191.39" r="4.50" fill="#1d4ed8" stroke="#ffffff" stroke-width="1.5" />
<circle cx="351.12" cy="261.65" r="4.50" fill="#1d4ed8" stroke="#ffffff" stroke-width="1.5" />
<circle cx="533.93" cy="278.35" r="4.50" fill="#1d4ed8" stroke="#ffffff" stroke-width="1.5" />
<circle cx="1128.57" cy="307.93" r="4.50" fill="#1d4ed8" stroke="#ffffff" stroke-width="1.5" />
<line x1="820.00" y1="352.00" x2="844.00" y2="352.00" stroke="#1d4ed8" stroke-width="3" />
<circle cx="832.00" cy="352.00" r="4.50" fill="#1d4ed8" stroke="#ffffff" stroke-width="1.5" />
<text x="854.00" y="356.00" fill="#111827" font-size="13" font-family="Helvetica, Arial, sans-serif">vecLib cblas_sgemm</text>
</svg>