<?xml version="1.0" encoding="UTF-8"?>
<svg xmlns="http://www.w3.org/2000/svg" width="1000" height="620" viewBox="0 0 1000 620">
<rect width="100%" height="100%" fill="#ffffff" />
<text x="500.00" y="36.00" fill="#111827" font-size="24" font-family="Helvetica, Arial, sans-serif" text-anchor="middle" font-weight="700">GEMM benchmark: MNK vs MFLOPs</text>
<text x="500.00" y="58.00" fill="#6b7280" font-size="13" font-family="Helvetica, Arial, sans-serif" text-anchor="middle">Source: benchmark.csv</text>
<rect x="100" y="70" width="860" height="460" fill="#fafafa" stroke="#e5e7eb" />
<line x1="100.00" y1="530.00" x2="960.00" y2="530.00" stroke="#e5e7eb" stroke-width="1" />
<text x="88.00" y="534.00" fill="#374151" font-size="12" font-family="Helvetica, Arial, sans-serif" text-anchor="end">0</text>
<line x1="100.00" y1="438.00" x2="960.00" y2="438.00" stroke="#e5e7eb" stroke-width="1" />
<text x="88.00" y="442.00" fill="#374151" font-size="12" font-family="Helvetica, Arial, sans-serif" text-anchor="end">270.5K</text>
<line x1="100.00" y1="346.00" x2="960.00" y2="346.00" stroke="#e5e7eb" stroke-width="1" />
<text x="88.00" y="350.00" fill="#374151" font-size="12" font-family="Helvetica, Arial, sans-serif" text-anchor="end">541.1K</text>
<line x1="100.00" y1="254.00" x2="960.00" y2="254.00" stroke="#e5e7eb" stroke-width="1" />
<text x="88.00" y="258.00" fill="#374151" font-size="12" font-family="Helvetica, Arial, sans-serif" text-anchor="end">811.6K</text>
<line x1="100.00" y1="162.00" x2="960.00" y2="162.00" stroke="#e5e7eb" stroke-width="1" />
<text x="88.00" y="166.00" fill="#374151" font-size="12" font-family="Helvetica, Arial, sans-serif" text-anchor="end">1.1M</text>
<line x1="100.00" y1="70.00" x2="960.00" y2="70.00" stroke="#e5e7eb" stroke-width="1" />
<text x="88.00" y="74.00" fill="#374151" font-size="12" font-family="Helvetica, Arial, sans-serif" text-anchor="end">1.4M</text>
<line x1="100.00" y1="70.00" x2="100.00" y2="530.00" stroke="#e5e7eb" stroke-width="1" />
<text x="100.00" y="554.00" fill="#374151" font-size="12" font-family="Helvetica, Arial, sans-serif" text-anchor="middle">0</text>
<line x1="272.00" y1="70.00" x2="272.00" y2="530.00" stroke="#e5e7eb" stroke-width="1" />
<text x="272.00" y="554.00" fill="#374151" font-size="12" font-family="Helvetica, Arial, sans-serif" text-anchor="middle">225.5M</text>
<line x1="444.00" y1="70.00" x2="444.00" y2="530.00" stroke="#e5e7eb" stroke-width="1" />
<text x="444.00" y="554.00" fill="#374151" font-size="12" font-family="Helvetica, Arial, sans-serif" text-anchor="middle">451.0M</text>
<line x1="616.00" y1="70.00" x2="616.00" y2="530.00" stroke="#e5e7eb" stroke-width="1" />
<text x="616.00" y="554.00" fill="#374151" font-size="12" font-family="Helvetica, Arial, sans-serif" text-anchor="middle">676.5M</text>
<line x1="788.00" y1="70.00" x2="788.00" y2="530.00" stroke="#e5e7eb" stroke-width="1" />
<text x="788.00" y="554.00" fill="#374151" font-size="12" font-family="Helvetica, Arial, sans-serif" text-anchor="middle">901.9M</text>
<line x1="960.00" y1="70.00" x2="960.00" y2="530.00" stroke="#e5e7eb" stroke-width="1" />
<text x="960.00" y="554.00" fill="#374151" font-size="12" font-family="Helvetica, Arial, sans-serif" text-anchor="middle">1.1B</text>
<line x1="100.00" y1="530.00" x2="960.00" y2="530.00" stroke="#111827" stroke-width="1.5" />
<line x1="100.00" y1="70.00" x2="100.00" y2="530.00" stroke="#111827" stroke-width="1.5" />
<text x="500.00" y="592.00" fill="#111827" font-size="16" font-family="Helvetica, Arial, sans-serif" text-anchor="middle" font-weight="600">MNK</text>
<text x="28.00" y="310.00" fill="#111827" font-size="16" font-family="Helvetica, Arial, sans-serif" text-anchor="middle" font-weight="600" transform="rotate(-90 28 310.00)">MFLOPs</text>
<polyline points="101.60,510.26 105.40,486.21 112.80,462.07 143.19,456.15 202.38,438.59 299.96,405.12 445.54,378.54 648.70,360.35 919.05,359.29" fill="none" stroke="#2563eb" stroke-width="3" stroke-linecap="round" stroke-linejoin="round" />
<circle cx="101.60" cy="510.26" r="4.50" fill="#2563eb" stroke="#ffffff" stroke-width="1.5" />
<circle cx="105.40" cy="486.21" r="4.50" fill="#2563eb" stroke="#ffffff" stroke-width="1.5" />
<circle cx="112.80" cy="462.07" r="4.50" fill="#2563eb" stroke="#ffffff" stroke-width="1.5" />
<circle cx="143.19" cy="456.15" r="4.50" fill="#2563eb" stroke="#ffffff" stroke-width="1.5" />
<circle cx="202.38" cy="438.59" r="4.50" fill="#2563eb" stroke="#ffffff" stroke-width="1.5" />
<circle cx="299.96" cy="405.12" r="4.50" fill="#2563eb" stroke="#ffffff" stroke-width="1.5" />
<circle cx="445.54" cy="378.54" r="4.50" fill="#2563eb" stroke="#ffffff" stroke-width="1.5" />
<circle cx="648.70" cy="360.35" r="4.50" fill="#2563eb" stroke="#ffffff" stroke-width="1.5" />
<circle cx="919.05" cy="359.29" r="4.50" fill="#2563eb" stroke="#ffffff" stroke-width="1.5" />
<line x1="740.00" y1="88.00" x2="764.00" y2="88.00" stroke="#2563eb" stroke-width="3" />
<circle cx="752.00" cy="88.00" r="4.50" fill="#2563eb" stroke="#ffffff" stroke-width="1.5" />
<text x="774.00" y="92.00" fill="#111827" font-size="13" font-family="Helvetica, Arial, sans-serif">Metal packed-swizzled B 4x4</text>
<polyline points="101.60,515.63 105.40,468.73 112.80,441.12 143.19,417.00 202.38,427.66 299.96,399.20 445.54,364.55 648.70,335.17 919.05,318.75" fill="none" stroke="#dc2626" stroke-width="3" stroke-linecap="round" stroke-linejoin="round" />
<circle cx="101.60" cy="515.63" r="4.50" fill="#dc2626" stroke="#ffffff" stroke-width="1.5" />
<circle cx="105.40" cy="468.73" r="4.50" fill="#dc2626" stroke="#ffffff" stroke-width="1.5" />
<circle cx="112.80" cy="441.12" r="4.50" fill="#dc2626" stroke="#ffffff" stroke-width="1.5" />
<circle cx="143.19" cy="417.00" r="4.50" fill="#dc2626" stroke="#ffffff" stroke-width="1.5" />
<circle cx="202.38" cy="427.66" r="4.50" fill="#dc2626" stroke="#ffffff" stroke-width="1.5" />
<circle cx="299.96" cy="399.20" r="4.50" fill="#dc2626" stroke="#ffffff" stroke-width="1.5" />
<circle cx="445.54" cy="364.55" r="4.50" fill="#dc2626" stroke="#ffffff" stroke-width="1.5" />
<circle cx="648.70" cy="335.17" r="4.50" fill="#dc2626" stroke="#ffffff" stroke-width="1.5" />
<circle cx="919.05" cy="318.75" r="4.50" fill="#dc2626" stroke="#ffffff" stroke-width="1.5" />
<line x1="740.00" y1="112.00" x2="764.00" y2="112.00" stroke="#dc2626" stroke-width="3" />
<circle cx="752.00" cy="112.00" r="4.50" fill="#dc2626" stroke="#ffffff" stroke-width="1.5" />
<text x="774.00" y="116.00" fill="#111827" font-size="13" font-family="Helvetica, Arial, sans-serif">Metal packed-swizzled vec4 B 4x4</text>
<polyline points="101.60,502.16 105.40,468.88 112.80,472.64 143.19,413.89 202.38,412.08 299.96,391.97 445.54,353.29 648.70,380.40 919.05,314.41" fill="none" stroke="#16a34a" stroke-width="3" stroke-linecap="round" stroke-linejoin="round" />
<circle cx="101.60" cy="502.16" r="4.50" fill="#16a34a" stroke="#ffffff" stroke-width="1.5" />
<circle cx="105.40" cy="468.88" r="4.50" fill="#16a34a" stroke="#ffffff" stroke-width="1.5" />
<circle cx="112.80" cy="472.64" r="4.50" fill="#16a34a" stroke="#ffffff" stroke-width="1.5" />
<circle cx="143.19" cy="413.89" r="4.50" fill="#16a34a" stroke="#ffffff" stroke-width="1.5" />
<circle cx="202.38" cy="412.08" r="4.50" fill="#16a34a" stroke="#ffffff" stroke-width="1.5" />
<circle cx="299.96" cy="391.97" r="4.50" fill="#16a34a" stroke="#ffffff" stroke-width="1.5" />
<circle cx="445.54" cy="353.29" r="4.50" fill="#16a34a" stroke="#ffffff" stroke-width="1.5" />
<circle cx="648.70" cy="380.40" r="4.50" fill="#16a34a" stroke="#ffffff" stroke-width="1.5" />
<circle cx="919.05" cy="314.41" r="4.50" fill="#16a34a" stroke="#ffffff" stroke-width="1.5" />
<line x1="740.00" y1="136.00" x2="764.00" y2="136.00" stroke="#16a34a" stroke-width="3" />
<circle cx="752.00" cy="136.00" r="4.50" fill="#16a34a" stroke="#ffffff" stroke-width="1.5" />
<text x="774.00" y="140.00" fill="#111827" font-size="13" font-family="Helvetica, Arial, sans-serif">Metal packed-vectorized B 4x4</text>
<polyline points="101.60,510.30 105.40,487.48 112.80,459.82 143.19,428.93 202.38,431.19 299.96,426.48 445.54,344.55 648.70,371.58 919.05,349.34" fill="none" stroke="#7c3aed" stroke-width="3" stroke-linecap="round" stroke-linejoin="round" />
<circle cx="101.60" cy="510.30" r="4.50" fill="#7c3aed" stroke="#ffffff" stroke-width="1.5" />
<circle cx="105.40" cy="487.48" r="4.50" fill="#7c3aed" stroke="#ffffff" stroke-width="1.5" />
<circle cx="112.80" cy="459.82" r="4.50" fill="#7c3aed" stroke="#ffffff" stroke-width="1.5" />
<circle cx="143.19" cy="428.93" r="4.50" fill="#7c3aed" stroke="#ffffff" stroke-width="1.5" />
<circle cx="202.38" cy="431.19" r="4.50" fill="#7c3aed" stroke="#ffffff" stroke-width="1.5" />
<circle cx="299.96" cy="426.48" r="4.50" fill="#7c3aed" stroke="#ffffff" stroke-width="1.5" />
<circle cx="445.54" cy="344.55" r="4.50" fill="#7c3aed" stroke="#ffffff" stroke-width="1.5" />
<circle cx="648.70" cy="371.58" r="4.50" fill="#7c3aed" stroke="#ffffff" stroke-width="1.5" />
<circle cx="919.05" cy="349.34" r="4.50" fill="#7c3aed" stroke="#ffffff" stroke-width="1.5" />
<line x1="740.00" y1="160.00" x2="764.00" y2="160.00" stroke="#7c3aed" stroke-width="3" />
<circle cx="752.00" cy="160.00" r="4.50" fill="#7c3aed" stroke="#ffffff" stroke-width="1.5" />
<text x="774.00" y="164.00" fill="#111827" font-size="13" font-family="Helvetica, Arial, sans-serif">Metal register blocked 4x4</text>
<polyline points="101.60,503.74 105.40,488.48 112.80,482.97 143.19,484.16 202.38,471.21 299.96,466.46 445.54,457.83 648.70,454.81 919.05,457.94" fill="none" stroke="#ea580c" stroke-width="3" stroke-linecap="round" stroke-linejoin="round" />
<circle cx="101.60" cy="503.74" r="4.50" fill="#ea580c" stroke="#ffffff" stroke-width="1.5" />
<circle cx="105.40" cy="488.48" r="4.50" fill="#ea580c" stroke="#ffffff" stroke-width="1.5" />
<circle cx="112.80" cy="482.97" r="4.50" fill="#ea580c" stroke="#ffffff" stroke-width="1.5" />
<circle cx="143.19" cy="484.16" r="4.50" fill="#ea580c" stroke="#ffffff" stroke-width="1.5" />
<circle cx="202.38" cy="471.21" r="4.50" fill="#ea580c" stroke="#ffffff" stroke-width="1.5" />
<circle cx="299.96" cy="466.46" r="4.50" fill="#ea580c" stroke="#ffffff" stroke-width="1.5" />
<circle cx="445.54" cy="457.83" r="4.50" fill="#ea580c" stroke="#ffffff" stroke-width="1.5" />
<circle cx="648.70" cy="454.81" r="4.50" fill="#ea580c" stroke="#ffffff" stroke-width="1.5" />
<circle cx="919.05" cy="457.94" r="4.50" fill="#ea580c" stroke="#ffffff" stroke-width="1.5" />
<line x1="740.00" y1="184.00" x2="764.00" y2="184.00" stroke="#ea580c" stroke-width="3" />
<circle cx="752.00" cy="184.00" r="4.50" fill="#ea580c" stroke="#ffffff" stroke-width="1.5" />
<text x="774.00" y="188.00" fill="#111827" font-size="13" font-family="Helvetica, Arial, sans-serif">Metal swizzled 32x32</text>
<polyline points="101.60,488.54 105.40,479.17 112.80,476.89 143.19,479.30 202.38,463.22 299.96,449.18 445.54,433.79 648.70,433.25 919.05,439.67" fill="none" stroke="#0891b2" stroke-width="3" stroke-linecap="round" stroke-linejoin="round" />
<circle cx="101.60" cy="488.54" r="4.50" fill="#0891b2" stroke="#ffffff" stroke-width="1.5" />
<circle cx="105.40" cy="479.17" r="4.50" fill="#0891b2" stroke="#ffffff" stroke-width="1.5" />
<circle cx="112.80" cy="476.89" r="4.50" fill="#0891b2" stroke="#ffffff" stroke-width="1.5" />
<circle cx="143.19" cy="479.30" r="4.50" fill="#0891b2" stroke="#ffffff" stroke-width="1.5" />
<circle cx="202.38" cy="463.22" r="4.50" fill="#0891b2" stroke="#ffffff" stroke-width="1.5" />
<circle cx="299.96" cy="449.18" r="4.50" fill="#0891b2" stroke="#ffffff" stroke-width="1.5" />
<circle cx="445.54" cy="433.79" r="4.50" fill="#0891b2" stroke="#ffffff" stroke-width="1.5" />
<circle cx="648.70" cy="433.25" r="4.50" fill="#0891b2" stroke="#ffffff" stroke-width="1.5" />
<circle cx="919.05" cy="439.67" r="4.50" fill="#0891b2" stroke="#ffffff" stroke-width="1.5" />
<line x1="740.00" y1="208.00" x2="764.00" y2="208.00" stroke="#0891b2" stroke-width="3" />
<circle cx="752.00" cy="208.00" r="4.50" fill="#0891b2" stroke="#ffffff" stroke-width="1.5" />
<text x="774.00" y="212.00" fill="#111827" font-size="13" font-family="Helvetica, Arial, sans-serif">Metal tiled 16x16</text>
<polyline points="101.60,485.81 105.40,491.38 112.80,478.71 143.19,480.88 202.38,472.13 299.96,458.92 445.54,455.20 648.70,447.25 919.05,455.90" fill="none" stroke="#2563eb" stroke-width="3" stroke-linecap="round" stroke-linejoin="round" />
<circle cx="101.60" cy="485.81" r="4.50" fill="#2563eb" stroke="#ffffff" stroke-width="1.5" />
<circle cx="105.40" cy="491.38" r="4.50" fill="#2563eb" stroke="#ffffff" stroke-width="1.5" />
<circle cx="112.80" cy="478.71" r="4.50" fill="#2563eb" stroke="#ffffff" stroke-width="1.5" />
<circle cx="143.19" cy="480.88" r="4.50" fill="#2563eb" stroke="#ffffff" stroke-width="1.5" />
<circle cx="202.38" cy="472.13" r="4.50" fill="#2563eb" stroke="#ffffff" stroke-width="1.5" />
<circle cx="299.96" cy="458.92" r="4.50" fill="#2563eb" stroke="#ffffff" stroke-width="1.5" />
<circle cx="445.54" cy="455.20" r="4.50" fill="#2563eb" stroke="#ffffff" stroke-width="1.5" />
<circle cx="648.70" cy="447.25" r="4.50" fill="#2563eb" stroke="#ffffff" stroke-width="1.5" />
<circle cx="919.05" cy="455.90" r="4.50" fill="#2563eb" stroke="#ffffff" stroke-width="1.5" />
<line x1="740.00" y1="232.00" x2="764.00" y2="232.00" stroke="#2563eb" stroke-width="3" />
<circle cx="752.00" cy="232.00" r="4.50" fill="#2563eb" stroke="#ffffff" stroke-width="1.5" />
<text x="774.00" y="236.00" fill="#111827" font-size="13" font-family="Helvetica, Arial, sans-serif">Metal tiled 32x32</text>
<polyline points="101.60,304.20 105.40,283.77 112.80,237.89 143.19,169.91 202.38,232.83 299.96,123.31 445.54,120.57 648.70,111.82 919.05,299.60" fill="none" stroke="#dc2626" stroke-width="3" stroke-linecap="round" stroke-linejoin="round" />
<circle cx="101.60" cy="304.20" r="4.50" fill="#dc2626" stroke="#ffffff" stroke-width="1.5" />
<circle cx="105.40" cy="283.77" r="4.50" fill="#dc2626" stroke="#ffffff" stroke-width="1.5" />
<circle cx="112.80" cy="237.89" r="4.50" fill="#dc2626" stroke="#ffffff" stroke-width="1.5" />
<circle cx="143.19" cy="169.91" r="4.50" fill="#dc2626" stroke="#ffffff" stroke-width="1.5" />
<circle cx="202.38" cy="232.83" r="4.50" fill="#dc2626" stroke="#ffffff" stroke-width="1.5" />
<circle cx="299.96" cy="123.31" r="4.50" fill="#dc2626" stroke="#ffffff" stroke-width="1.5" />
<circle cx="445.54" cy="120.57" r="4.50" fill="#dc2626" stroke="#ffffff" stroke-width="1.5" />
<circle cx="648.70" cy="111.82" r="4.50" fill="#dc2626" stroke="#ffffff" stroke-width="1.5" />
<circle cx="919.05" cy="299.60" r="4.50" fill="#dc2626" stroke="#ffffff" stroke-width="1.5" />
<line x1="740.00" y1="256.00" x2="764.00" y2="256.00" stroke="#dc2626" stroke-width="3" />
<circle cx="752.00" cy="256.00" r="4.50" fill="#dc2626" stroke="#ffffff" stroke-width="1.5" />
<text x="774.00" y="260.00" fill="#111827" font-size="13" font-family="Helvetica, Arial, sans-serif">vecLib cblas_sgemm</text>
</svg>