<?xml version="1.0" encoding="UTF-8"?>
<svg xmlns="http://www.w3.org/2000/svg" width="1220" height="700" viewBox="0 0 1220 700">
<rect width="100%" height="100%" fill="#ffffff" />
<text x="610.00" y="36.00" fill="#111827" font-size="24" font-family="Helvetica, Arial, sans-serif" text-anchor="middle" font-weight="700">GEMM benchmark: MNK vs MFLOPs</text>
<text x="610.00" y="58.00" fill="#6b7280" font-size="13" font-family="Helvetica, Arial, sans-serif" text-anchor="middle">Source: benchmark.csv</text>
<rect x="100" y="70" width="1080" height="540" fill="#fafafa" stroke="#e5e7eb" />
<line x1="100.00" y1="610.00" x2="1180.00" y2="610.00" stroke="#e5e7eb" stroke-width="1" />
<text x="88.00" y="614.00" fill="#374151" font-size="12" font-family="Helvetica, Arial, sans-serif" text-anchor="end">0</text>
<line x1="100.00" y1="502.00" x2="1180.00" y2="502.00" stroke="#e5e7eb" stroke-width="1" />
<text x="88.00" y="506.00" fill="#374151" font-size="12" font-family="Helvetica, Arial, sans-serif" text-anchor="end">273.1K</text>
<line x1="100.00" y1="394.00" x2="1180.00" y2="394.00" stroke="#e5e7eb" stroke-width="1" />
<text x="88.00" y="398.00" fill="#374151" font-size="12" font-family="Helvetica, Arial, sans-serif" text-anchor="end">546.1K</text>
<line x1="100.00" y1="286.00" x2="1180.00" y2="286.00" stroke="#e5e7eb" stroke-width="1" />
<text x="88.00" y="290.00" fill="#374151" font-size="12" font-family="Helvetica, Arial, sans-serif" text-anchor="end">819.2K</text>
<line x1="100.00" y1="178.00" x2="1180.00" y2="178.00" stroke="#e5e7eb" stroke-width="1" />
<text x="88.00" y="182.00" fill="#374151" font-size="12" font-family="Helvetica, Arial, sans-serif" text-anchor="end">1.1M</text>
<line x1="100.00" y1="70.00" x2="1180.00" y2="70.00" stroke="#e5e7eb" stroke-width="1" />
<text x="88.00" y="74.00" fill="#374151" font-size="12" font-family="Helvetica, Arial, sans-serif" text-anchor="end">1.4M</text>
<line x1="100.00" y1="70.00" x2="100.00" y2="610.00" stroke="#e5e7eb" stroke-width="1" />
<text x="100.00" y="634.00" fill="#374151" font-size="12" font-family="Helvetica, Arial, sans-serif" text-anchor="middle">0</text>
<line x1="316.00" y1="70.00" x2="316.00" y2="610.00" stroke="#e5e7eb" stroke-width="1" />
<text x="316.00" y="634.00" fill="#374151" font-size="12" font-family="Helvetica, Arial, sans-serif" text-anchor="middle">440.4M</text>
<line x1="532.00" y1="70.00" x2="532.00" y2="610.00" stroke="#e5e7eb" stroke-width="1" />
<text x="532.00" y="634.00" fill="#374151" font-size="12" font-family="Helvetica, Arial, sans-serif" text-anchor="middle">880.8M</text>
<line x1="748.00" y1="70.00" x2="748.00" y2="610.00" stroke="#e5e7eb" stroke-width="1" />
<text x="748.00" y="634.00" fill="#374151" font-size="12" font-family="Helvetica, Arial, sans-serif" text-anchor="middle">1.3B</text>
<line x1="964.00" y1="70.00" x2="964.00" y2="610.00" stroke="#e5e7eb" stroke-width="1" />
<text x="964.00" y="634.00" fill="#374151" font-size="12" font-family="Helvetica, Arial, sans-serif" text-anchor="middle">1.8B</text>
<line x1="1180.00" y1="70.00" x2="1180.00" y2="610.00" stroke="#e5e7eb" stroke-width="1" />
<text x="1180.00" y="634.00" fill="#374151" font-size="12" font-family="Helvetica, Arial, sans-serif" text-anchor="middle">2.2B</text>
<line x1="100.00" y1="610.00" x2="1180.00" y2="610.00" stroke="#111827" stroke-width="1.5" />
<line x1="100.00" y1="70.00" x2="100.00" y2="610.00" stroke="#111827" stroke-width="1.5" />
<text x="610.00" y="672.00" fill="#111827" font-size="16" font-family="Helvetica, Arial, sans-serif" text-anchor="middle" font-weight="600">MNK</text>
<text x="28.00" y="350.00" fill="#111827" font-size="16" font-family="Helvetica, Arial, sans-serif" text-anchor="middle" font-weight="600" transform="rotate(-90 28 350.00)">MFLOPs</text>
<polyline points="101.03,587.00 103.47,558.91 108.23,531.44 127.77,503.46 165.83,485.97 228.57,470.16 322.17,431.34 452.80,408.76 626.63,401.35 849.83,394.44 1128.57,393.93" fill="none" stroke="#2563eb" stroke-width="3" stroke-linecap="round" stroke-linejoin="round" />
<circle cx="101.03" cy="587.00" r="4.50" fill="#2563eb" stroke="#ffffff" stroke-width="1.5" />
<circle cx="103.47" cy="558.91" r="4.50" fill="#2563eb" stroke="#ffffff" stroke-width="1.5" />
<circle cx="108.23" cy="531.44" r="4.50" fill="#2563eb" stroke="#ffffff" stroke-width="1.5" />
<circle cx="127.77" cy="503.46" r="4.50" fill="#2563eb" stroke="#ffffff" stroke-width="1.5" />
<circle cx="165.83" cy="485.97" r="4.50" fill="#2563eb" stroke="#ffffff" stroke-width="1.5" />
<circle cx="228.57" cy="470.16" r="4.50" fill="#2563eb" stroke="#ffffff" stroke-width="1.5" />
<circle cx="322.17" cy="431.34" r="4.50" fill="#2563eb" stroke="#ffffff" stroke-width="1.5" />
<circle cx="452.80" cy="408.76" r="4.50" fill="#2563eb" stroke="#ffffff" stroke-width="1.5" />
<circle cx="626.63" cy="401.35" r="4.50" fill="#2563eb" stroke="#ffffff" stroke-width="1.5" />
<circle cx="849.83" cy="394.44" r="4.50" fill="#2563eb" stroke="#ffffff" stroke-width="1.5" />
<circle cx="1128.57" cy="393.93" r="4.50" fill="#2563eb" stroke="#ffffff" stroke-width="1.5" />
<line x1="820.00" y1="88.00" x2="844.00" y2="88.00" stroke="#2563eb" stroke-width="3" />
<circle cx="832.00" cy="88.00" r="4.50" fill="#2563eb" stroke="#ffffff" stroke-width="1.5" />
<text x="854.00" y="92.00" fill="#111827" font-size="13" font-family="Helvetica, Arial, sans-serif">Metal packed-swizzled B 4x4</text>
<polyline points="101.03,587.49 103.47,538.59 108.23,506.77 127.77,478.66 165.83,468.55 228.57,425.11 322.17,402.90 452.80,385.55 626.63,357.94 849.83,348.81 1128.57,346.63" fill="none" stroke="#dc2626" stroke-width="3" stroke-linecap="round" stroke-linejoin="round" />
<circle cx="101.03" cy="587.49" r="4.50" fill="#dc2626" stroke="#ffffff" stroke-width="1.5" />
<circle cx="103.47" cy="538.59" r="4.50" fill="#dc2626" stroke="#ffffff" stroke-width="1.5" />
<circle cx="108.23" cy="506.77" r="4.50" fill="#dc2626" stroke="#ffffff" stroke-width="1.5" />
<circle cx="127.77" cy="478.66" r="4.50" fill="#dc2626" stroke="#ffffff" stroke-width="1.5" />
<circle cx="165.83" cy="468.55" r="4.50" fill="#dc2626" stroke="#ffffff" stroke-width="1.5" />
<circle cx="228.57" cy="425.11" r="4.50" fill="#dc2626" stroke="#ffffff" stroke-width="1.5" />
<circle cx="322.17" cy="402.90" r="4.50" fill="#dc2626" stroke="#ffffff" stroke-width="1.5" />
<circle cx="452.80" cy="385.55" r="4.50" fill="#dc2626" stroke="#ffffff" stroke-width="1.5" />
<circle cx="626.63" cy="357.94" r="4.50" fill="#dc2626" stroke="#ffffff" stroke-width="1.5" />
<circle cx="849.83" cy="348.81" r="4.50" fill="#dc2626" stroke="#ffffff" stroke-width="1.5" />
<circle cx="1128.57" cy="346.63" r="4.50" fill="#dc2626" stroke="#ffffff" stroke-width="1.5" />
<line x1="820.00" y1="112.00" x2="844.00" y2="112.00" stroke="#dc2626" stroke-width="3" />
<circle cx="832.00" cy="112.00" r="4.50" fill="#dc2626" stroke="#ffffff" stroke-width="1.5" />
<text x="854.00" y="116.00" fill="#111827" font-size="13" font-family="Helvetica, Arial, sans-serif">Metal packed-swizzled vec4 B 4x4</text>
<polyline points="101.03,565.23 103.47,511.35 108.23,476.63 127.77,458.63 165.83,434.28 228.57,433.89 322.17,399.81 452.80,339.83 626.63,305.20 849.83,294.24 1128.57,287.40" fill="none" stroke="#16a34a" stroke-width="3" stroke-linecap="round" stroke-linejoin="round" />
<circle cx="101.03" cy="565.23" r="4.50" fill="#16a34a" stroke="#ffffff" stroke-width="1.5" />
<circle cx="103.47" cy="511.35" r="4.50" fill="#16a34a" stroke="#ffffff" stroke-width="1.5" />
<circle cx="108.23" cy="476.63" r="4.50" fill="#16a34a" stroke="#ffffff" stroke-width="1.5" />
<circle cx="127.77" cy="458.63" r="4.50" fill="#16a34a" stroke="#ffffff" stroke-width="1.5" />
<circle cx="165.83" cy="434.28" r="4.50" fill="#16a34a" stroke="#ffffff" stroke-width="1.5" />
<circle cx="228.57" cy="433.89" r="4.50" fill="#16a34a" stroke="#ffffff" stroke-width="1.5" />
<circle cx="322.17" cy="399.81" r="4.50" fill="#16a34a" stroke="#ffffff" stroke-width="1.5" />
<circle cx="452.80" cy="339.83" r="4.50" fill="#16a34a" stroke="#ffffff" stroke-width="1.5" />
<circle cx="626.63" cy="305.20" r="4.50" fill="#16a34a" stroke="#ffffff" stroke-width="1.5" />
<circle cx="849.83" cy="294.24" r="4.50" fill="#16a34a" stroke="#ffffff" stroke-width="1.5" />
<circle cx="1128.57" cy="287.40" r="4.50" fill="#16a34a" stroke="#ffffff" stroke-width="1.5" />
<line x1="820.00" y1="136.00" x2="844.00" y2="136.00" stroke="#16a34a" stroke-width="3" />
<circle cx="832.00" cy="136.00" r="4.50" fill="#16a34a" stroke="#ffffff" stroke-width="1.5" />
<text x="854.00" y="140.00" fill="#111827" font-size="13" font-family="Helvetica, Arial, sans-serif">Metal packed-vectorized A+B 4x4 k16</text>
<polyline points="101.03,555.57 103.47,496.53 108.23,487.14 127.77,446.01 165.83,436.13 228.57,424.79 322.17,394.51 452.80,329.09 626.63,319.15 849.83,305.16 1128.57,302.00" fill="none" stroke="#7c3aed" stroke-width="3" stroke-linecap="round" stroke-linejoin="round" />
<circle cx="101.03" cy="555.57" r="4.50" fill="#7c3aed" stroke="#ffffff" stroke-width="1.5" />
<circle cx="103.47" cy="496.53" r="4.50" fill="#7c3aed" stroke="#ffffff" stroke-width="1.5" />
<circle cx="108.23" cy="487.14" r="4.50" fill="#7c3aed" stroke="#ffffff" stroke-width="1.5" />
<circle cx="127.77" cy="446.01" r="4.50" fill="#7c3aed" stroke="#ffffff" stroke-width="1.5" />
<circle cx="165.83" cy="436.13" r="4.50" fill="#7c3aed" stroke="#ffffff" stroke-width="1.5" />
<circle cx="228.57" cy="424.79" r="4.50" fill="#7c3aed" stroke="#ffffff" stroke-width="1.5" />
<circle cx="322.17" cy="394.51" r="4.50" fill="#7c3aed" stroke="#ffffff" stroke-width="1.5" />
<circle cx="452.80" cy="329.09" r="4.50" fill="#7c3aed" stroke="#ffffff" stroke-width="1.5" />
<circle cx="626.63" cy="319.15" r="4.50" fill="#7c3aed" stroke="#ffffff" stroke-width="1.5" />
<circle cx="849.83" cy="305.16" r="4.50" fill="#7c3aed" stroke="#ffffff" stroke-width="1.5" />
<circle cx="1128.57" cy="302.00" r="4.50" fill="#7c3aed" stroke="#ffffff" stroke-width="1.5" />
<line x1="820.00" y1="160.00" x2="844.00" y2="160.00" stroke="#7c3aed" stroke-width="3" />
<circle cx="832.00" cy="160.00" r="4.50" fill="#7c3aed" stroke="#ffffff" stroke-width="1.5" />
<text x="854.00" y="164.00" fill="#111827" font-size="13" font-family="Helvetica, Arial, sans-serif">Metal packed-vectorized A+B 4x4 unroll</text>
<polyline points="101.03,577.48 103.47,539.03 108.23,505.97 127.77,475.21 165.83,466.28 228.57,451.93 322.17,390.36 452.80,382.98 626.63,352.21 849.83,345.07 1128.57,342.61" fill="none" stroke="#ea580c" stroke-width="3" stroke-linecap="round" stroke-linejoin="round" />
<circle cx="101.03" cy="577.48" r="4.50" fill="#ea580c" stroke="#ffffff" stroke-width="1.5" />
<circle cx="103.47" cy="539.03" r="4.50" fill="#ea580c" stroke="#ffffff" stroke-width="1.5" />
<circle cx="108.23" cy="505.97" r="4.50" fill="#ea580c" stroke="#ffffff" stroke-width="1.5" />
<circle cx="127.77" cy="475.21" r="4.50" fill="#ea580c" stroke="#ffffff" stroke-width="1.5" />
<circle cx="165.83" cy="466.28" r="4.50" fill="#ea580c" stroke="#ffffff" stroke-width="1.5" />
<circle cx="228.57" cy="451.93" r="4.50" fill="#ea580c" stroke="#ffffff" stroke-width="1.5" />
<circle cx="322.17" cy="390.36" r="4.50" fill="#ea580c" stroke="#ffffff" stroke-width="1.5" />
<circle cx="452.80" cy="382.98" r="4.50" fill="#ea580c" stroke="#ffffff" stroke-width="1.5" />
<circle cx="626.63" cy="352.21" r="4.50" fill="#ea580c" stroke="#ffffff" stroke-width="1.5" />
<circle cx="849.83" cy="345.07" r="4.50" fill="#ea580c" stroke="#ffffff" stroke-width="1.5" />
<circle cx="1128.57" cy="342.61" r="4.50" fill="#ea580c" stroke="#ffffff" stroke-width="1.5" />
<line x1="820.00" y1="184.00" x2="844.00" y2="184.00" stroke="#ea580c" stroke-width="3" />
<circle cx="832.00" cy="184.00" r="4.50" fill="#ea580c" stroke="#ffffff" stroke-width="1.5" />
<text x="854.00" y="188.00" fill="#111827" font-size="13" font-family="Helvetica, Arial, sans-serif">Metal packed-vectorized B 4x4</text>
<polyline points="101.03,580.77 103.47,544.29 108.23,526.28 127.77,498.33 165.83,486.09 228.57,459.45 322.17,421.28 452.80,389.43 626.63,365.03 849.83,356.21 1128.57,353.09" fill="none" stroke="#0891b2" stroke-width="3" stroke-linecap="round" stroke-linejoin="round" />
<circle cx="101.03" cy="580.77" r="4.50" fill="#0891b2" stroke="#ffffff" stroke-width="1.5" />
<circle cx="103.47" cy="544.29" r="4.50" fill="#0891b2" stroke="#ffffff" stroke-width="1.5" />
<circle cx="108.23" cy="526.28" r="4.50" fill="#0891b2" stroke="#ffffff" stroke-width="1.5" />
<circle cx="127.77" cy="498.33" r="4.50" fill="#0891b2" stroke="#ffffff" stroke-width="1.5" />
<circle cx="165.83" cy="486.09" r="4.50" fill="#0891b2" stroke="#ffffff" stroke-width="1.5" />
<circle cx="228.57" cy="459.45" r="4.50" fill="#0891b2" stroke="#ffffff" stroke-width="1.5" />
<circle cx="322.17" cy="421.28" r="4.50" fill="#0891b2" stroke="#ffffff" stroke-width="1.5" />
<circle cx="452.80" cy="389.43" r="4.50" fill="#0891b2" stroke="#ffffff" stroke-width="1.5" />
<circle cx="626.63" cy="365.03" r="4.50" fill="#0891b2" stroke="#ffffff" stroke-width="1.5" />
<circle cx="849.83" cy="356.21" r="4.50" fill="#0891b2" stroke="#ffffff" stroke-width="1.5" />
<circle cx="1128.57" cy="353.09" r="4.50" fill="#0891b2" stroke="#ffffff" stroke-width="1.5" />
<line x1="820.00" y1="208.00" x2="844.00" y2="208.00" stroke="#0891b2" stroke-width="3" />
<circle cx="832.00" cy="208.00" r="4.50" fill="#0891b2" stroke="#ffffff" stroke-width="1.5" />
<text x="854.00" y="212.00" fill="#111827" font-size="13" font-family="Helvetica, Arial, sans-serif">Metal packed-vectorized B 4x4 k16</text>
<polyline points="101.03,587.07 103.47,561.54 108.23,527.50 127.77,494.53 165.83,464.25 228.57,398.04 322.17,430.26 452.80,407.48 626.63,394.27 849.83,389.03 1128.57,387.90" fill="none" stroke="#d97706" stroke-width="3" stroke-linecap="round" stroke-linejoin="round" />
<circle cx="101.03" cy="587.07" r="4.50" fill="#d97706" stroke="#ffffff" stroke-width="1.5" />
<circle cx="103.47" cy="561.54" r="4.50" fill="#d97706" stroke="#ffffff" stroke-width="1.5" />
<circle cx="108.23" cy="527.50" r="4.50" fill="#d97706" stroke="#ffffff" stroke-width="1.5" />
<circle cx="127.77" cy="494.53" r="4.50" fill="#d97706" stroke="#ffffff" stroke-width="1.5" />
<circle cx="165.83" cy="464.25" r="4.50" fill="#d97706" stroke="#ffffff" stroke-width="1.5" />
<circle cx="228.57" cy="398.04" r="4.50" fill="#d97706" stroke="#ffffff" stroke-width="1.5" />
<circle cx="322.17" cy="430.26" r="4.50" fill="#d97706" stroke="#ffffff" stroke-width="1.5" />
<circle cx="452.80" cy="407.48" r="4.50" fill="#d97706" stroke="#ffffff" stroke-width="1.5" />
<circle cx="626.63" cy="394.27" r="4.50" fill="#d97706" stroke="#ffffff" stroke-width="1.5" />
<circle cx="849.83" cy="389.03" r="4.50" fill="#d97706" stroke="#ffffff" stroke-width="1.5" />
<circle cx="1128.57" cy="387.90" r="4.50" fill="#d97706" stroke="#ffffff" stroke-width="1.5" />
<line x1="820.00" y1="232.00" x2="844.00" y2="232.00" stroke="#d97706" stroke-width="3" />
<circle cx="832.00" cy="232.00" r="4.50" fill="#d97706" stroke="#ffffff" stroke-width="1.5" />
<text x="854.00" y="236.00" fill="#111827" font-size="13" font-family="Helvetica, Arial, sans-serif">Metal register blocked 4x4</text>
<polyline points="101.03,562.32 103.47,563.57 108.23,555.37 127.77,551.37 165.83,540.09 228.57,517.83 322.17,521.99 452.80,520.03 626.63,524.15 849.83,522.16 1128.57,525.38" fill="none" stroke="#db2777" stroke-width="3" stroke-linecap="round" stroke-linejoin="round" />
<circle cx="101.03" cy="562.32" r="4.50" fill="#db2777" stroke="#ffffff" stroke-width="1.5" />
<circle cx="103.47" cy="563.57" r="4.50" fill="#db2777" stroke="#ffffff" stroke-width="1.5" />
<circle cx="108.23" cy="555.37" r="4.50" fill="#db2777" stroke="#ffffff" stroke-width="1.5" />
<circle cx="127.77" cy="551.37" r="4.50" fill="#db2777" stroke="#ffffff" stroke-width="1.5" />
<circle cx="165.83" cy="540.09" r="4.50" fill="#db2777" stroke="#ffffff" stroke-width="1.5" />
<circle cx="228.57" cy="517.83" r="4.50" fill="#db2777" stroke="#ffffff" stroke-width="1.5" />
<circle cx="322.17" cy="521.99" r="4.50" fill="#db2777" stroke="#ffffff" stroke-width="1.5" />
<circle cx="452.80" cy="520.03" r="4.50" fill="#db2777" stroke="#ffffff" stroke-width="1.5" />
<circle cx="626.63" cy="524.15" r="4.50" fill="#db2777" stroke="#ffffff" stroke-width="1.5" />
<circle cx="849.83" cy="522.16" r="4.50" fill="#db2777" stroke="#ffffff" stroke-width="1.5" />
<circle cx="1128.57" cy="525.38" r="4.50" fill="#db2777" stroke="#ffffff" stroke-width="1.5" />
<line x1="820.00" y1="256.00" x2="844.00" y2="256.00" stroke="#db2777" stroke-width="3" />
<circle cx="832.00" cy="256.00" r="4.50" fill="#db2777" stroke="#ffffff" stroke-width="1.5" />
<text x="854.00" y="260.00" fill="#111827" font-size="13" font-family="Helvetica, Arial, sans-serif">Metal swizzled 32x32</text>
<polyline points="101.03,561.73 103.47,550.88 108.23,548.22 127.77,546.31 165.83,531.87 228.57,515.19 322.17,502.81 452.80,496.36 626.63,495.60 849.83,495.85 1128.57,496.43" fill="none" stroke="#4f46e5" stroke-width="3" stroke-linecap="round" stroke-linejoin="round" />
<circle cx="101.03" cy="561.73" r="4.50" fill="#4f46e5" stroke="#ffffff" stroke-width="1.5" />
<circle cx="103.47" cy="550.88" r="4.50" fill="#4f46e5" stroke="#ffffff" stroke-width="1.5" />
<circle cx="108.23" cy="548.22" r="4.50" fill="#4f46e5" stroke="#ffffff" stroke-width="1.5" />
<circle cx="127.77" cy="546.31" r="4.50" fill="#4f46e5" stroke="#ffffff" stroke-width="1.5" />
<circle cx="165.83" cy="531.87" r="4.50" fill="#4f46e5" stroke="#ffffff" stroke-width="1.5" />
<circle cx="228.57" cy="515.19" r="4.50" fill="#4f46e5" stroke="#ffffff" stroke-width="1.5" />
<circle cx="322.17" cy="502.81" r="4.50" fill="#4f46e5" stroke="#ffffff" stroke-width="1.5" />
<circle cx="452.80" cy="496.36" r="4.50" fill="#4f46e5" stroke="#ffffff" stroke-width="1.5" />
<circle cx="626.63" cy="495.60" r="4.50" fill="#4f46e5" stroke="#ffffff" stroke-width="1.5" />
<circle cx="849.83" cy="495.85" r="4.50" fill="#4f46e5" stroke="#ffffff" stroke-width="1.5" />
<circle cx="1128.57" cy="496.43" r="4.50" fill="#4f46e5" stroke="#ffffff" stroke-width="1.5" />
<line x1="820.00" y1="280.00" x2="844.00" y2="280.00" stroke="#4f46e5" stroke-width="3" />
<circle cx="832.00" cy="280.00" r="4.50" fill="#4f46e5" stroke="#ffffff" stroke-width="1.5" />
<text x="854.00" y="284.00" fill="#111827" font-size="13" font-family="Helvetica, Arial, sans-serif">Metal tiled 16x16</text>
<polyline points="101.03,558.62 103.47,557.43 108.23,550.24 127.77,551.27 165.83,529.08 228.57,524.84 322.17,515.43 452.80,512.12 626.63,516.34 849.83,515.18 1128.57,519.50" fill="none" stroke="#059669" stroke-width="3" stroke-linecap="round" stroke-linejoin="round" />
<circle cx="101.03" cy="558.62" r="4.50" fill="#059669" stroke="#ffffff" stroke-width="1.5" />
<circle cx="103.47" cy="557.43" r="4.50" fill="#059669" stroke="#ffffff" stroke-width="1.5" />
<circle cx="108.23" cy="550.24" r="4.50" fill="#059669" stroke="#ffffff" stroke-width="1.5" />
<circle cx="127.77" cy="551.27" r="4.50" fill="#059669" stroke="#ffffff" stroke-width="1.5" />
<circle cx="165.83" cy="529.08" r="4.50" fill="#059669" stroke="#ffffff" stroke-width="1.5" />
<circle cx="228.57" cy="524.84" r="4.50" fill="#059669" stroke="#ffffff" stroke-width="1.5" />
<circle cx="322.17" cy="515.43" r="4.50" fill="#059669" stroke="#ffffff" stroke-width="1.5" />
<circle cx="452.80" cy="512.12" r="4.50" fill="#059669" stroke="#ffffff" stroke-width="1.5" />
<circle cx="626.63" cy="516.34" r="4.50" fill="#059669" stroke="#ffffff" stroke-width="1.5" />
<circle cx="849.83" cy="515.18" r="4.50" fill="#059669" stroke="#ffffff" stroke-width="1.5" />
<circle cx="1128.57" cy="519.50" r="4.50" fill="#059669" stroke="#ffffff" stroke-width="1.5" />
<line x1="820.00" y1="304.00" x2="844.00" y2="304.00" stroke="#059669" stroke-width="3" />
<circle cx="832.00" cy="304.00" r="4.50" fill="#059669" stroke="#ffffff" stroke-width="1.5" />
<text x="854.00" y="308.00" fill="#111827" font-size="13" font-family="Helvetica, Arial, sans-serif">Metal tiled 32x32</text>
<polyline points="101.03,359.91 103.47,282.18 108.23,231.62 127.77,196.49 165.83,264.39 228.57,136.36 322.17,122.97 452.80,119.09 626.63,314.87 849.83,227.79 1128.57,264.50" fill="none" stroke="#b91c1c" stroke-width="3" stroke-linecap="round" stroke-linejoin="round" />
<circle cx="101.03" cy="359.91" r="4.50" fill="#b91c1c" stroke="#ffffff" stroke-width="1.5" />
<circle cx="103.47" cy="282.18" r="4.50" fill="#b91c1c" stroke="#ffffff" stroke-width="1.5" />
<circle cx="108.23" cy="231.62" r="4.50" fill="#b91c1c" stroke="#ffffff" stroke-width="1.5" />
<circle cx="127.77" cy="196.49" r="4.50" fill="#b91c1c" stroke="#ffffff" stroke-width="1.5" />
<circle cx="165.83" cy="264.39" r="4.50" fill="#b91c1c" stroke="#ffffff" stroke-width="1.5" />
<circle cx="228.57" cy="136.36" r="4.50" fill="#b91c1c" stroke="#ffffff" stroke-width="1.5" />
<circle cx="322.17" cy="122.97" r="4.50" fill="#b91c1c" stroke="#ffffff" stroke-width="1.5" />
<circle cx="452.80" cy="119.09" r="4.50" fill="#b91c1c" stroke="#ffffff" stroke-width="1.5" />
<circle cx="626.63" cy="314.87" r="4.50" fill="#b91c1c" stroke="#ffffff" stroke-width="1.5" />
<circle cx="849.83" cy="227.79" r="4.50" fill="#b91c1c" stroke="#ffffff" stroke-width="1.5" />
<circle cx="1128.57" cy="264.50" r="4.50" fill="#b91c1c" stroke="#ffffff" stroke-width="1.5" />
<line x1="820.00" y1="328.00" x2="844.00" y2="328.00" stroke="#b91c1c" stroke-width="3" />
<circle cx="832.00" cy="328.00" r="4.50" fill="#b91c1c" stroke="#ffffff" stroke-width="1.5" />
<text x="854.00" y="332.00" fill="#111827" font-size="13" font-family="Helvetica, Arial, sans-serif">vecLib cblas_sgemm</text>
</svg>