<?xml version="1.0" encoding="UTF-8"?>
<svg xmlns="http://www.w3.org/2000/svg" width="1220" height="700" viewBox="0 0 1220 700">
<rect width="100%" height="100%" fill="#ffffff" />
<text x="610.00" y="36.00" fill="#111827" font-size="24" font-family="Helvetica, Arial, sans-serif" text-anchor="middle" font-weight="700">GEMM benchmark: MNK vs MFLOPs (wall time)</text>
<text x="610.00" y="58.00" fill="#6b7280" font-size="13" font-family="Helvetica, Arial, sans-serif" text-anchor="middle">Source: benchmark.csv</text>
<rect x="100" y="70" width="1080" height="540" fill="#fafafa" stroke="#e5e7eb" />
<line x1="100.00" y1="610.00" x2="1180.00" y2="610.00" stroke="#e5e7eb" stroke-width="1" />
<text x="88.00" y="614.00" fill="#374151" font-size="12" font-family="Helvetica, Arial, sans-serif" text-anchor="end">0</text>
<line x1="100.00" y1="502.00" x2="1180.00" y2="502.00" stroke="#e5e7eb" stroke-width="1" />
<text x="88.00" y="506.00" fill="#374151" font-size="12" font-family="Helvetica, Arial, sans-serif" text-anchor="end">270.1K</text>
<line x1="100.00" y1="394.00" x2="1180.00" y2="394.00" stroke="#e5e7eb" stroke-width="1" />
<text x="88.00" y="398.00" fill="#374151" font-size="12" font-family="Helvetica, Arial, sans-serif" text-anchor="end">540.2K</text>
<line x1="100.00" y1="286.00" x2="1180.00" y2="286.00" stroke="#e5e7eb" stroke-width="1" />
<text x="88.00" y="290.00" fill="#374151" font-size="12" font-family="Helvetica, Arial, sans-serif" text-anchor="end">810.3K</text>
<line x1="100.00" y1="178.00" x2="1180.00" y2="178.00" stroke="#e5e7eb" stroke-width="1" />
<text x="88.00" y="182.00" fill="#374151" font-size="12" font-family="Helvetica, Arial, sans-serif" text-anchor="end">1.1M</text>
<line x1="100.00" y1="70.00" x2="1180.00" y2="70.00" stroke="#e5e7eb" stroke-width="1" />
<text x="88.00" y="74.00" fill="#374151" font-size="12" font-family="Helvetica, Arial, sans-serif" text-anchor="end">1.4M</text>
<line x1="100.00" y1="70.00" x2="100.00" y2="610.00" stroke="#e5e7eb" stroke-width="1" />
<text x="100.00" y="634.00" fill="#374151" font-size="12" font-family="Helvetica, Arial, sans-serif" text-anchor="middle">0</text>
<line x1="316.00" y1="70.00" x2="316.00" y2="610.00" stroke="#e5e7eb" stroke-width="1" />
<text x="316.00" y="634.00" fill="#374151" font-size="12" font-family="Helvetica, Arial, sans-serif" text-anchor="middle">1.8B</text>
<line x1="532.00" y1="70.00" x2="532.00" y2="610.00" stroke="#e5e7eb" stroke-width="1" />
<text x="532.00" y="634.00" fill="#374151" font-size="12" font-family="Helvetica, Arial, sans-serif" text-anchor="middle">3.6B</text>
<line x1="748.00" y1="70.00" x2="748.00" y2="610.00" stroke="#e5e7eb" stroke-width="1" />
<text x="748.00" y="634.00" fill="#374151" font-size="12" font-family="Helvetica, Arial, sans-serif" text-anchor="middle">5.4B</text>
<line x1="964.00" y1="70.00" x2="964.00" y2="610.00" stroke="#e5e7eb" stroke-width="1" />
<text x="964.00" y="634.00" fill="#374151" font-size="12" font-family="Helvetica, Arial, sans-serif" text-anchor="middle">7.2B</text>
<line x1="1180.00" y1="70.00" x2="1180.00" y2="610.00" stroke="#e5e7eb" stroke-width="1" />
<text x="1180.00" y="634.00" fill="#374151" font-size="12" font-family="Helvetica, Arial, sans-serif" text-anchor="middle">9.0B</text>
<line x1="100.00" y1="610.00" x2="1180.00" y2="610.00" stroke="#111827" stroke-width="1.5" />
<line x1="100.00" y1="70.00" x2="100.00" y2="610.00" stroke="#111827" stroke-width="1.5" />
<text x="610.00" y="672.00" fill="#111827" font-size="16" font-family="Helvetica, Arial, sans-serif" text-anchor="middle" font-weight="600">MNK</text>
<text x="28.00" y="350.00" fill="#111827" font-size="16" font-family="Helvetica, Arial, sans-serif" text-anchor="middle" font-weight="600" transform="rotate(-90 28 350.00)">MFLOPs</text>
<polyline points="100.25,602.42 102.01,570.52 116.07,493.97 154.24,428.79 228.57,364.02 351.12,358.31 533.93,356.71 789.06,358.25 1128.57,354.62" fill="none" stroke="#2563eb" stroke-width="3" stroke-linecap="round" stroke-linejoin="round" />
<circle cx="100.25" cy="602.42" r="4.50" fill="#2563eb" stroke="#ffffff" stroke-width="1.5" />
<circle cx="102.01" cy="570.52" r="4.50" fill="#2563eb" stroke="#ffffff" stroke-width="1.5" />
<circle cx="116.07" cy="493.97" r="4.50" fill="#2563eb" stroke="#ffffff" stroke-width="1.5" />
<circle cx="154.24" cy="428.79" r="4.50" fill="#2563eb" stroke="#ffffff" stroke-width="1.5" />
<circle cx="228.57" cy="364.02" r="4.50" fill="#2563eb" stroke="#ffffff" stroke-width="1.5" />
<circle cx="351.12" cy="358.31" r="4.50" fill="#2563eb" stroke="#ffffff" stroke-width="1.5" />
<circle cx="533.93" cy="356.71" r="4.50" fill="#2563eb" stroke="#ffffff" stroke-width="1.5" />
<circle cx="789.06" cy="358.25" r="4.50" fill="#2563eb" stroke="#ffffff" stroke-width="1.5" />
<circle cx="1128.57" cy="354.62" r="4.50" fill="#2563eb" stroke="#ffffff" stroke-width="1.5" />
<line x1="820.00" y1="88.00" x2="844.00" y2="88.00" stroke="#2563eb" stroke-width="3" />
<circle cx="832.00" cy="88.00" r="4.50" fill="#2563eb" stroke="#ffffff" stroke-width="1.5" />
<text x="854.00" y="92.00" fill="#111827" font-size="13" font-family="Helvetica, Arial, sans-serif">Metal packed A+B aligned pipe</text>
<polyline points="100.25,603.85 102.01,571.09 116.07,509.65 154.24,443.78 228.57,412.29 351.12,398.05 533.93,397.09 789.06,395.10 1128.57,395.09" fill="none" stroke="#dc2626" stroke-width="3" stroke-linecap="round" stroke-linejoin="round" />
<circle cx="100.25" cy="603.85" r="4.50" fill="#dc2626" stroke="#ffffff" stroke-width="1.5" />
<circle cx="102.01" cy="571.09" r="4.50" fill="#dc2626" stroke="#ffffff" stroke-width="1.5" />
<circle cx="116.07" cy="509.65" r="4.50" fill="#dc2626" stroke="#ffffff" stroke-width="1.5" />
<circle cx="154.24" cy="443.78" r="4.50" fill="#dc2626" stroke="#ffffff" stroke-width="1.5" />
<circle cx="228.57" cy="412.29" r="4.50" fill="#dc2626" stroke="#ffffff" stroke-width="1.5" />
<circle cx="351.12" cy="398.05" r="4.50" fill="#dc2626" stroke="#ffffff" stroke-width="1.5" />
<circle cx="533.93" cy="397.09" r="4.50" fill="#dc2626" stroke="#ffffff" stroke-width="1.5" />
<circle cx="789.06" cy="395.10" r="4.50" fill="#dc2626" stroke="#ffffff" stroke-width="1.5" />
<circle cx="1128.57" cy="395.09" r="4.50" fill="#dc2626" stroke="#ffffff" stroke-width="1.5" />
<line x1="820.00" y1="112.00" x2="844.00" y2="112.00" stroke="#dc2626" stroke-width="3" />
<circle cx="832.00" cy="112.00" r="4.50" fill="#dc2626" stroke="#ffffff" stroke-width="1.5" />
<text x="854.00" y="116.00" fill="#111827" font-size="13" font-family="Helvetica, Arial, sans-serif">Metal packed-swizzled B 4x4</text>
<polyline points="100.25,603.27 102.01,568.08 116.07,497.24 154.24,423.18 228.57,377.57 351.12,353.19 533.93,348.97 789.06,349.53 1128.57,346.03" fill="none" stroke="#16a34a" stroke-width="3" stroke-linecap="round" stroke-linejoin="round" />
<circle cx="100.25" cy="603.27" r="4.50" fill="#16a34a" stroke="#ffffff" stroke-width="1.5" />
<circle cx="102.01" cy="568.08" r="4.50" fill="#16a34a" stroke="#ffffff" stroke-width="1.5" />
<circle cx="116.07" cy="497.24" r="4.50" fill="#16a34a" stroke="#ffffff" stroke-width="1.5" />
<circle cx="154.24" cy="423.18" r="4.50" fill="#16a34a" stroke="#ffffff" stroke-width="1.5" />
<circle cx="228.57" cy="377.57" r="4.50" fill="#16a34a" stroke="#ffffff" stroke-width="1.5" />
<circle cx="351.12" cy="353.19" r="4.50" fill="#16a34a" stroke="#ffffff" stroke-width="1.5" />
<circle cx="533.93" cy="348.97" r="4.50" fill="#16a34a" stroke="#ffffff" stroke-width="1.5" />
<circle cx="789.06" cy="349.53" r="4.50" fill="#16a34a" stroke="#ffffff" stroke-width="1.5" />
<circle cx="1128.57" cy="346.03" r="4.50" fill="#16a34a" stroke="#ffffff" stroke-width="1.5" />
<line x1="820.00" y1="136.00" x2="844.00" y2="136.00" stroke="#16a34a" stroke-width="3" />
<circle cx="832.00" cy="136.00" r="4.50" fill="#16a34a" stroke="#ffffff" stroke-width="1.5" />
<text x="854.00" y="140.00" fill="#111827" font-size="13" font-family="Helvetica, Arial, sans-serif">Metal packed-swizzled vec4 B 4x4</text>
<polyline points="100.25,602.80 102.01,570.28 116.07,487.88 154.24,437.38 228.57,372.04 351.12,335.49 533.93,336.15 789.06,334.99 1128.57,340.54" fill="none" stroke="#7c3aed" stroke-width="3" stroke-linecap="round" stroke-linejoin="round" />
<circle cx="100.25" cy="602.80" r="4.50" fill="#7c3aed" stroke="#ffffff" stroke-width="1.5" />
<circle cx="102.01" cy="570.28" r="4.50" fill="#7c3aed" stroke="#ffffff" stroke-width="1.5" />
<circle cx="116.07" cy="487.88" r="4.50" fill="#7c3aed" stroke="#ffffff" stroke-width="1.5" />
<circle cx="154.24" cy="437.38" r="4.50" fill="#7c3aed" stroke="#ffffff" stroke-width="1.5" />
<circle cx="228.57" cy="372.04" r="4.50" fill="#7c3aed" stroke="#ffffff" stroke-width="1.5" />
<circle cx="351.12" cy="335.49" r="4.50" fill="#7c3aed" stroke="#ffffff" stroke-width="1.5" />
<circle cx="533.93" cy="336.15" r="4.50" fill="#7c3aed" stroke="#ffffff" stroke-width="1.5" />
<circle cx="789.06" cy="334.99" r="4.50" fill="#7c3aed" stroke="#ffffff" stroke-width="1.5" />
<circle cx="1128.57" cy="340.54" r="4.50" fill="#7c3aed" stroke="#ffffff" stroke-width="1.5" />
<line x1="820.00" y1="160.00" x2="844.00" y2="160.00" stroke="#7c3aed" stroke-width="3" />
<circle cx="832.00" cy="160.00" r="4.50" fill="#7c3aed" stroke="#ffffff" stroke-width="1.5" />
<text x="854.00" y="164.00" fill="#111827" font-size="13" font-family="Helvetica, Arial, sans-serif">Metal packed-vectorized A+B 32x32x32</text>
<polyline points="100.25,602.24 102.01,566.13 116.07,479.59 154.24,441.54 228.57,340.31 351.12,304.79 533.93,304.28 789.06,291.30 1128.57,291.24" fill="none" stroke="#ea580c" stroke-width="3" stroke-linecap="round" stroke-linejoin="round" />
<circle cx="100.25" cy="602.24" r="4.50" fill="#ea580c" stroke="#ffffff" stroke-width="1.5" />
<circle cx="102.01" cy="566.13" r="4.50" fill="#ea580c" stroke="#ffffff" stroke-width="1.5" />
<circle cx="116.07" cy="479.59" r="4.50" fill="#ea580c" stroke="#ffffff" stroke-width="1.5" />
<circle cx="154.24" cy="441.54" r="4.50" fill="#ea580c" stroke="#ffffff" stroke-width="1.5" />
<circle cx="228.57" cy="340.31" r="4.50" fill="#ea580c" stroke="#ffffff" stroke-width="1.5" />
<circle cx="351.12" cy="304.79" r="4.50" fill="#ea580c" stroke="#ffffff" stroke-width="1.5" />
<circle cx="533.93" cy="304.28" r="4.50" fill="#ea580c" stroke="#ffffff" stroke-width="1.5" />
<circle cx="789.06" cy="291.30" r="4.50" fill="#ea580c" stroke="#ffffff" stroke-width="1.5" />
<circle cx="1128.57" cy="291.24" r="4.50" fill="#ea580c" stroke="#ffffff" stroke-width="1.5" />
<line x1="820.00" y1="184.00" x2="844.00" y2="184.00" stroke="#ea580c" stroke-width="3" />
<circle cx="832.00" cy="184.00" r="4.50" fill="#ea580c" stroke="#ffffff" stroke-width="1.5" />
<text x="854.00" y="188.00" fill="#111827" font-size="13" font-family="Helvetica, Arial, sans-serif">Metal packed-vectorized A+B 32x64x16</text>
<polyline points="100.25,602.85 102.01,565.89 116.07,500.72 154.24,407.72 228.57,320.13 351.12,298.88 533.93,302.76 789.06,291.58 1128.57,290.84" fill="none" stroke="#0891b2" stroke-width="3" stroke-linecap="round" stroke-linejoin="round" />
<circle cx="100.25" cy="602.85" r="4.50" fill="#0891b2" stroke="#ffffff" stroke-width="1.5" />
<circle cx="102.01" cy="565.89" r="4.50" fill="#0891b2" stroke="#ffffff" stroke-width="1.5" />
<circle cx="116.07" cy="500.72" r="4.50" fill="#0891b2" stroke="#ffffff" stroke-width="1.5" />
<circle cx="154.24" cy="407.72" r="4.50" fill="#0891b2" stroke="#ffffff" stroke-width="1.5" />
<circle cx="228.57" cy="320.13" r="4.50" fill="#0891b2" stroke="#ffffff" stroke-width="1.5" />
<circle cx="351.12" cy="298.88" r="4.50" fill="#0891b2" stroke="#ffffff" stroke-width="1.5" />
<circle cx="533.93" cy="302.76" r="4.50" fill="#0891b2" stroke="#ffffff" stroke-width="1.5" />
<circle cx="789.06" cy="291.58" r="4.50" fill="#0891b2" stroke="#ffffff" stroke-width="1.5" />
<circle cx="1128.57" cy="290.84" r="4.50" fill="#0891b2" stroke="#ffffff" stroke-width="1.5" />
<line x1="820.00" y1="208.00" x2="844.00" y2="208.00" stroke="#0891b2" stroke-width="3" />
<circle cx="832.00" cy="208.00" r="4.50" fill="#0891b2" stroke="#ffffff" stroke-width="1.5" />
<text x="854.00" y="212.00" fill="#111827" font-size="13" font-family="Helvetica, Arial, sans-serif">Metal packed-vectorized A+B 4x4 aligned</text>
<polyline points="100.25,602.47 102.01,562.28 116.07,483.82 154.24,399.29 228.57,352.02 351.12,304.77 533.93,306.44 789.06,294.42 1128.57,292.70" fill="none" stroke="#d97706" stroke-width="3" stroke-linecap="round" stroke-linejoin="round" />
<circle cx="100.25" cy="602.47" r="4.50" fill="#d97706" stroke="#ffffff" stroke-width="1.5" />
<circle cx="102.01" cy="562.28" r="4.50" fill="#d97706" stroke="#ffffff" stroke-width="1.5" />
<circle cx="116.07" cy="483.82" r="4.50" fill="#d97706" stroke="#ffffff" stroke-width="1.5" />
<circle cx="154.24" cy="399.29" r="4.50" fill="#d97706" stroke="#ffffff" stroke-width="1.5" />
<circle cx="228.57" cy="352.02" r="4.50" fill="#d97706" stroke="#ffffff" stroke-width="1.5" />
<circle cx="351.12" cy="304.77" r="4.50" fill="#d97706" stroke="#ffffff" stroke-width="1.5" />
<circle cx="533.93" cy="306.44" r="4.50" fill="#d97706" stroke="#ffffff" stroke-width="1.5" />
<circle cx="789.06" cy="294.42" r="4.50" fill="#d97706" stroke="#ffffff" stroke-width="1.5" />
<circle cx="1128.57" cy="292.70" r="4.50" fill="#d97706" stroke="#ffffff" stroke-width="1.5" />
<line x1="820.00" y1="232.00" x2="844.00" y2="232.00" stroke="#d97706" stroke-width="3" />
<circle cx="832.00" cy="232.00" r="4.50" fill="#d97706" stroke="#ffffff" stroke-width="1.5" />
<text x="854.00" y="236.00" fill="#111827" font-size="13" font-family="Helvetica, Arial, sans-serif">Metal packed-vectorized A+B 4x4 aligned private</text>
<polyline points="100.25,603.20 102.01,567.14 116.07,476.98 154.24,413.96 228.57,345.07 351.12,305.61 533.93,304.13 789.06,289.21 1128.57,287.86" fill="none" stroke="#db2777" stroke-width="3" stroke-linecap="round" stroke-linejoin="round" />
<circle cx="100.25" cy="603.20" r="4.50" fill="#db2777" stroke="#ffffff" stroke-width="1.5" />
<circle cx="102.01" cy="567.14" r="4.50" fill="#db2777" stroke="#ffffff" stroke-width="1.5" />
<circle cx="116.07" cy="476.98" r="4.50" fill="#db2777" stroke="#ffffff" stroke-width="1.5" />
<circle cx="154.24" cy="413.96" r="4.50" fill="#db2777" stroke="#ffffff" stroke-width="1.5" />
<circle cx="228.57" cy="345.07" r="4.50" fill="#db2777" stroke="#ffffff" stroke-width="1.5" />
<circle cx="351.12" cy="305.61" r="4.50" fill="#db2777" stroke="#ffffff" stroke-width="1.5" />
<circle cx="533.93" cy="304.13" r="4.50" fill="#db2777" stroke="#ffffff" stroke-width="1.5" />
<circle cx="789.06" cy="289.21" r="4.50" fill="#db2777" stroke="#ffffff" stroke-width="1.5" />
<circle cx="1128.57" cy="287.86" r="4.50" fill="#db2777" stroke="#ffffff" stroke-width="1.5" />
<line x1="820.00" y1="256.00" x2="844.00" y2="256.00" stroke="#db2777" stroke-width="3" />
<circle cx="832.00" cy="256.00" r="4.50" fill="#db2777" stroke="#ffffff" stroke-width="1.5" />
<text x="854.00" y="260.00" fill="#111827" font-size="13" font-family="Helvetica, Arial, sans-serif">Metal packed-vectorized A+B 4x4 k16</text>
<polyline points="100.25,602.49 102.01,568.12 116.07,477.57 154.24,428.50 228.57,326.50 351.12,323.58 533.93,314.58 789.06,324.65 1128.57,330.48" fill="none" stroke="#4f46e5" stroke-width="3" stroke-linecap="round" stroke-linejoin="round" />
<circle cx="100.25" cy="602.49" r="4.50" fill="#4f46e5" stroke="#ffffff" stroke-width="1.5" />
<circle cx="102.01" cy="568.12" r="4.50" fill="#4f46e5" stroke="#ffffff" stroke-width="1.5" />
<circle cx="116.07" cy="477.57" r="4.50" fill="#4f46e5" stroke="#ffffff" stroke-width="1.5" />
<circle cx="154.24" cy="428.50" r="4.50" fill="#4f46e5" stroke="#ffffff" stroke-width="1.5" />
<circle cx="228.57" cy="326.50" r="4.50" fill="#4f46e5" stroke="#ffffff" stroke-width="1.5" />
<circle cx="351.12" cy="323.58" r="4.50" fill="#4f46e5" stroke="#ffffff" stroke-width="1.5" />
<circle cx="533.93" cy="314.58" r="4.50" fill="#4f46e5" stroke="#ffffff" stroke-width="1.5" />
<circle cx="789.06" cy="324.65" r="4.50" fill="#4f46e5" stroke="#ffffff" stroke-width="1.5" />
<circle cx="1128.57" cy="330.48" r="4.50" fill="#4f46e5" stroke="#ffffff" stroke-width="1.5" />
<line x1="820.00" y1="280.00" x2="844.00" y2="280.00" stroke="#4f46e5" stroke-width="3" />
<circle cx="832.00" cy="280.00" r="4.50" fill="#4f46e5" stroke="#ffffff" stroke-width="1.5" />
<text x="854.00" y="284.00" fill="#111827" font-size="13" font-family="Helvetica, Arial, sans-serif">Metal packed-vectorized A+B 4x4 unroll</text>
<polyline points="100.25,602.24 102.01,562.29 116.07,568.12 154.24,421.13 228.57,317.06 351.12,296.24 533.93,292.06 789.06,286.01 1128.57,282.00" fill="none" stroke="#059669" stroke-width="3" stroke-linecap="round" stroke-linejoin="round" />
<circle cx="100.25" cy="602.24" r="4.50" fill="#059669" stroke="#ffffff" stroke-width="1.5" />
<circle cx="102.01" cy="562.29" r="4.50" fill="#059669" stroke="#ffffff" stroke-width="1.5" />
<circle cx="116.07" cy="568.12" r="4.50" fill="#059669" stroke="#ffffff" stroke-width="1.5" />
<circle cx="154.24" cy="421.13" r="4.50" fill="#059669" stroke="#ffffff" stroke-width="1.5" />
<circle cx="228.57" cy="317.06" r="4.50" fill="#059669" stroke="#ffffff" stroke-width="1.5" />
<circle cx="351.12" cy="296.24" r="4.50" fill="#059669" stroke="#ffffff" stroke-width="1.5" />
<circle cx="533.93" cy="292.06" r="4.50" fill="#059669" stroke="#ffffff" stroke-width="1.5" />
<circle cx="789.06" cy="286.01" r="4.50" fill="#059669" stroke="#ffffff" stroke-width="1.5" />
<circle cx="1128.57" cy="282.00" r="4.50" fill="#059669" stroke="#ffffff" stroke-width="1.5" />
<line x1="820.00" y1="304.00" x2="844.00" y2="304.00" stroke="#059669" stroke-width="3" />
<circle cx="832.00" cy="304.00" r="4.50" fill="#059669" stroke="#ffffff" stroke-width="1.5" />
<text x="854.00" y="308.00" fill="#111827" font-size="13" font-family="Helvetica, Arial, sans-serif">Metal packed-vectorized A+B 64x32x16</text>
<polyline points="100.25,602.87 102.01,566.41 116.07,484.54 154.24,442.13 228.57,341.43 351.12,326.67 533.93,339.15 789.06,324.73 1128.57,321.62" fill="none" stroke="#b91c1c" stroke-width="3" stroke-linecap="round" stroke-linejoin="round" />
<circle cx="100.25" cy="602.87" r="4.50" fill="#b91c1c" stroke="#ffffff" stroke-width="1.5" />
<circle cx="102.01" cy="566.41" r="4.50" fill="#b91c1c" stroke="#ffffff" stroke-width="1.5" />
<circle cx="116.07" cy="484.54" r="4.50" fill="#b91c1c" stroke="#ffffff" stroke-width="1.5" />
<circle cx="154.24" cy="442.13" r="4.50" fill="#b91c1c" stroke="#ffffff" stroke-width="1.5" />
<circle cx="228.57" cy="341.43" r="4.50" fill="#b91c1c" stroke="#ffffff" stroke-width="1.5" />
<circle cx="351.12" cy="326.67" r="4.50" fill="#b91c1c" stroke="#ffffff" stroke-width="1.5" />
<circle cx="533.93" cy="339.15" r="4.50" fill="#b91c1c" stroke="#ffffff" stroke-width="1.5" />
<circle cx="789.06" cy="324.73" r="4.50" fill="#b91c1c" stroke="#ffffff" stroke-width="1.5" />
<circle cx="1128.57" cy="321.62" r="4.50" fill="#b91c1c" stroke="#ffffff" stroke-width="1.5" />
<line x1="820.00" y1="328.00" x2="844.00" y2="328.00" stroke="#b91c1c" stroke-width="3" />
<circle cx="832.00" cy="328.00" r="4.50" fill="#b91c1c" stroke="#ffffff" stroke-width="1.5" />
<text x="854.00" y="332.00" fill="#111827" font-size="13" font-family="Helvetica, Arial, sans-serif">Metal packed-vectorized A+B 64x32x16 unroll</text>
<polyline points="100.25,603.24 102.01,568.65 116.07,496.49 154.24,414.58 228.57,365.15 351.12,348.78 533.93,345.95 789.06,344.17 1128.57,343.06" fill="none" stroke="#1d4ed8" stroke-width="3" stroke-linecap="round" stroke-linejoin="round" />
<circle cx="100.25" cy="603.24" r="4.50" fill="#1d4ed8" stroke="#ffffff" stroke-width="1.5" />
<circle cx="102.01" cy="568.65" r="4.50" fill="#1d4ed8" stroke="#ffffff" stroke-width="1.5" />
<circle cx="116.07" cy="496.49" r="4.50" fill="#1d4ed8" stroke="#ffffff" stroke-width="1.5" />
<circle cx="154.24" cy="414.58" r="4.50" fill="#1d4ed8" stroke="#ffffff" stroke-width="1.5" />
<circle cx="228.57" cy="365.15" r="4.50" fill="#1d4ed8" stroke="#ffffff" stroke-width="1.5" />
<circle cx="351.12" cy="348.78" r="4.50" fill="#1d4ed8" stroke="#ffffff" stroke-width="1.5" />
<circle cx="533.93" cy="345.95" r="4.50" fill="#1d4ed8" stroke="#ffffff" stroke-width="1.5" />
<circle cx="789.06" cy="344.17" r="4.50" fill="#1d4ed8" stroke="#ffffff" stroke-width="1.5" />
<circle cx="1128.57" cy="343.06" r="4.50" fill="#1d4ed8" stroke="#ffffff" stroke-width="1.5" />
<line x1="820.00" y1="352.00" x2="844.00" y2="352.00" stroke="#1d4ed8" stroke-width="3" />
<circle cx="832.00" cy="352.00" r="4.50" fill="#1d4ed8" stroke="#ffffff" stroke-width="1.5" />
<text x="854.00" y="356.00" fill="#111827" font-size="13" font-family="Helvetica, Arial, sans-serif">Metal packed-vectorized B 4x4</text>
<polyline points="100.25,603.36 102.01,568.76 116.07,507.77 154.24,445.49 228.57,379.38 351.12,359.64 533.93,357.17 789.06,357.90 1128.57,358.32" fill="none" stroke="#7c2d12" stroke-width="3" stroke-linecap="round" stroke-linejoin="round" />
<circle cx="100.25" cy="603.36" r="4.50" fill="#7c2d12" stroke="#ffffff" stroke-width="1.5" />
<circle cx="102.01" cy="568.76" r="4.50" fill="#7c2d12" stroke="#ffffff" stroke-width="1.5" />
<circle cx="116.07" cy="507.77" r="4.50" fill="#7c2d12" stroke="#ffffff" stroke-width="1.5" />
<circle cx="154.24" cy="445.49" r="4.50" fill="#7c2d12" stroke="#ffffff" stroke-width="1.5" />
<circle cx="228.57" cy="379.38" r="4.50" fill="#7c2d12" stroke="#ffffff" stroke-width="1.5" />
<circle cx="351.12" cy="359.64" r="4.50" fill="#7c2d12" stroke="#ffffff" stroke-width="1.5" />
<circle cx="533.93" cy="357.17" r="4.50" fill="#7c2d12" stroke="#ffffff" stroke-width="1.5" />
<circle cx="789.06" cy="357.90" r="4.50" fill="#7c2d12" stroke="#ffffff" stroke-width="1.5" />
<circle cx="1128.57" cy="358.32" r="4.50" fill="#7c2d12" stroke="#ffffff" stroke-width="1.5" />
<line x1="820.00" y1="376.00" x2="844.00" y2="376.00" stroke="#7c2d12" stroke-width="3" />
<circle cx="832.00" cy="376.00" r="4.50" fill="#7c2d12" stroke="#ffffff" stroke-width="1.5" />
<text x="854.00" y="380.00" fill="#111827" font-size="13" font-family="Helvetica, Arial, sans-serif">Metal packed-vectorized B 4x4 k16</text>
<polyline points="100.25,603.87 102.01,573.39 116.07,520.11 154.24,428.10 228.57,404.79 351.12,392.33 533.93,386.81 789.06,390.30 1128.57,387.55" fill="none" stroke="#0f766e" stroke-width="3" stroke-linecap="round" stroke-linejoin="round" />
<circle cx="100.25" cy="603.87" r="4.50" fill="#0f766e" stroke="#ffffff" stroke-width="1.5" />
<circle cx="102.01" cy="573.39" r="4.50" fill="#0f766e" stroke="#ffffff" stroke-width="1.5" />
<circle cx="116.07" cy="520.11" r="4.50" fill="#0f766e" stroke="#ffffff" stroke-width="1.5" />
<circle cx="154.24" cy="428.10" r="4.50" fill="#0f766e" stroke="#ffffff" stroke-width="1.5" />
<circle cx="228.57" cy="404.79" r="4.50" fill="#0f766e" stroke="#ffffff" stroke-width="1.5" />
<circle cx="351.12" cy="392.33" r="4.50" fill="#0f766e" stroke="#ffffff" stroke-width="1.5" />
<circle cx="533.93" cy="386.81" r="4.50" fill="#0f766e" stroke="#ffffff" stroke-width="1.5" />
<circle cx="789.06" cy="390.30" r="4.50" fill="#0f766e" stroke="#ffffff" stroke-width="1.5" />
<circle cx="1128.57" cy="387.55" r="4.50" fill="#0f766e" stroke="#ffffff" stroke-width="1.5" />
<line x1="820.00" y1="400.00" x2="844.00" y2="400.00" stroke="#0f766e" stroke-width="3" />
<circle cx="832.00" cy="400.00" r="4.50" fill="#0f766e" stroke="#ffffff" stroke-width="1.5" />
<text x="854.00" y="404.00" fill="#111827" font-size="13" font-family="Helvetica, Arial, sans-serif">Metal register blocked 4x4</text>
<polyline points="100.25,602.96 102.01,579.14 116.07,550.36 154.24,526.65 228.57,528.94 351.12,526.67 533.93,528.01 789.06,528.61 1128.57,528.37" fill="none" stroke="#a21caf" stroke-width="3" stroke-linecap="round" stroke-linejoin="round" />
<circle cx="100.25" cy="602.96" r="4.50" fill="#a21caf" stroke="#ffffff" stroke-width="1.5" />
<circle cx="102.01" cy="579.14" r="4.50" fill="#a21caf" stroke="#ffffff" stroke-width="1.5" />
<circle cx="116.07" cy="550.36" r="4.50" fill="#a21caf" stroke="#ffffff" stroke-width="1.5" />
<circle cx="154.24" cy="526.65" r="4.50" fill="#a21caf" stroke="#ffffff" stroke-width="1.5" />
<circle cx="228.57" cy="528.94" r="4.50" fill="#a21caf" stroke="#ffffff" stroke-width="1.5" />
<circle cx="351.12" cy="526.67" r="4.50" fill="#a21caf" stroke="#ffffff" stroke-width="1.5" />
<circle cx="533.93" cy="528.01" r="4.50" fill="#a21caf" stroke="#ffffff" stroke-width="1.5" />
<circle cx="789.06" cy="528.61" r="4.50" fill="#a21caf" stroke="#ffffff" stroke-width="1.5" />
<circle cx="1128.57" cy="528.37" r="4.50" fill="#a21caf" stroke="#ffffff" stroke-width="1.5" />
<line x1="820.00" y1="424.00" x2="844.00" y2="424.00" stroke="#a21caf" stroke-width="3" />
<circle cx="832.00" cy="424.00" r="4.50" fill="#a21caf" stroke="#ffffff" stroke-width="1.5" />
<text x="854.00" y="428.00" fill="#111827" font-size="13" font-family="Helvetica, Arial, sans-serif">Metal swizzled 32x32</text>
<polyline points="100.25,602.42 102.01,577.69 116.07,546.46 154.24,513.55 228.57,498.44 351.12,497.81 533.93,500.85 789.06,501.07 1128.57,499.01" fill="none" stroke="#65a30d" stroke-width="3" stroke-linecap="round" stroke-linejoin="round" />
<circle cx="100.25" cy="602.42" r="4.50" fill="#65a30d" stroke="#ffffff" stroke-width="1.5" />
<circle cx="102.01" cy="577.69" r="4.50" fill="#65a30d" stroke="#ffffff" stroke-width="1.5" />
<circle cx="116.07" cy="546.46" r="4.50" fill="#65a30d" stroke="#ffffff" stroke-width="1.5" />
<circle cx="154.24" cy="513.55" r="4.50" fill="#65a30d" stroke="#ffffff" stroke-width="1.5" />
<circle cx="228.57" cy="498.44" r="4.50" fill="#65a30d" stroke="#ffffff" stroke-width="1.5" />
<circle cx="351.12" cy="497.81" r="4.50" fill="#65a30d" stroke="#ffffff" stroke-width="1.5" />
<circle cx="533.93" cy="500.85" r="4.50" fill="#65a30d" stroke="#ffffff" stroke-width="1.5" />
<circle cx="789.06" cy="501.07" r="4.50" fill="#65a30d" stroke="#ffffff" stroke-width="1.5" />
<circle cx="1128.57" cy="499.01" r="4.50" fill="#65a30d" stroke="#ffffff" stroke-width="1.5" />
<line x1="820.00" y1="448.00" x2="844.00" y2="448.00" stroke="#65a30d" stroke-width="3" />
<circle cx="832.00" cy="448.00" r="4.50" fill="#65a30d" stroke="#ffffff" stroke-width="1.5" />
<text x="854.00" y="452.00" fill="#111827" font-size="13" font-family="Helvetica, Arial, sans-serif">Metal tiled 16x16</text>
<polyline points="100.25,603.09 102.01,577.86 116.07,542.12 154.24,519.21 228.57,518.40 351.12,519.33 533.93,523.35 789.06,522.34 1128.57,521.97" fill="none" stroke="#c2410c" stroke-width="3" stroke-linecap="round" stroke-linejoin="round" />
<circle cx="100.25" cy="603.09" r="4.50" fill="#c2410c" stroke="#ffffff" stroke-width="1.5" />
<circle cx="102.01" cy="577.86" r="4.50" fill="#c2410c" stroke="#ffffff" stroke-width="1.5" />
<circle cx="116.07" cy="542.12" r="4.50" fill="#c2410c" stroke="#ffffff" stroke-width="1.5" />
<circle cx="154.24" cy="519.21" r="4.50" fill="#c2410c" stroke="#ffffff" stroke-width="1.5" />
<circle cx="228.57" cy="518.40" r="4.50" fill="#c2410c" stroke="#ffffff" stroke-width="1.5" />
<circle cx="351.12" cy="519.33" r="4.50" fill="#c2410c" stroke="#ffffff" stroke-width="1.5" />
<circle cx="533.93" cy="523.35" r="4.50" fill="#c2410c" stroke="#ffffff" stroke-width="1.5" />
<circle cx="789.06" cy="522.34" r="4.50" fill="#c2410c" stroke="#ffffff" stroke-width="1.5" />
<circle cx="1128.57" cy="521.97" r="4.50" fill="#c2410c" stroke="#ffffff" stroke-width="1.5" />
<line x1="820.00" y1="472.00" x2="844.00" y2="472.00" stroke="#c2410c" stroke-width="3" />
<circle cx="832.00" cy="472.00" r="4.50" fill="#c2410c" stroke="#ffffff" stroke-width="1.5" />
<text x="854.00" y="476.00" fill="#111827" font-size="13" font-family="Helvetica, Arial, sans-serif">Metal tiled 32x32</text>
<polyline points="100.25,345.01 102.01,230.85 116.07,260.78 154.24,119.09 228.57,308.94 351.12,261.71 533.93,292.79 789.06,266.53 1128.57,302.12" fill="none" stroke="#be123c" stroke-width="3" stroke-linecap="round" stroke-linejoin="round" />
<circle cx="100.25" cy="345.01" r="4.50" fill="#be123c" stroke="#ffffff" stroke-width="1.5" />
<circle cx="102.01" cy="230.85" r="4.50" fill="#be123c" stroke="#ffffff" stroke-width="1.5" />
<circle cx="116.07" cy="260.78" r="4.50" fill="#be123c" stroke="#ffffff" stroke-width="1.5" />
<circle cx="154.24" cy="119.09" r="4.50" fill="#be123c" stroke="#ffffff" stroke-width="1.5" />
<circle cx="228.57" cy="308.94" r="4.50" fill="#be123c" stroke="#ffffff" stroke-width="1.5" />
<circle cx="351.12" cy="261.71" r="4.50" fill="#be123c" stroke="#ffffff" stroke-width="1.5" />
<circle cx="533.93" cy="292.79" r="4.50" fill="#be123c" stroke="#ffffff" stroke-width="1.5" />
<circle cx="789.06" cy="266.53" r="4.50" fill="#be123c" stroke="#ffffff" stroke-width="1.5" />
<circle cx="1128.57" cy="302.12" r="4.50" fill="#be123c" stroke="#ffffff" stroke-width="1.5" />
<line x1="820.00" y1="496.00" x2="844.00" y2="496.00" stroke="#be123c" stroke-width="3" />
<circle cx="832.00" cy="496.00" r="4.50" fill="#be123c" stroke="#ffffff" stroke-width="1.5" />
<text x="854.00" y="500.00" fill="#111827" font-size="13" font-family="Helvetica, Arial, sans-serif">vecLib cblas_sgemm</text>
</svg>