<?xml version="1.0" encoding="UTF-8"?>
<svg xmlns="http://www.w3.org/2000/svg" width="1000" height="620" viewBox="0 0 1000 620">
<rect width="100%" height="100%" fill="#ffffff" />
<text x="500.00" y="36.00" fill="#111827" font-size="24" font-family="Helvetica, Arial, sans-serif" text-anchor="middle" font-weight="700">GEMM benchmark: MNK vs MFLOPs</text>
<text x="500.00" y="58.00" fill="#6b7280" font-size="13" font-family="Helvetica, Arial, sans-serif" text-anchor="middle">Source: benchmark.csv</text>
<rect x="100" y="70" width="860" height="460" fill="#fafafa" stroke="#e5e7eb" />
<line x1="100.00" y1="530.00" x2="960.00" y2="530.00" stroke="#e5e7eb" stroke-width="1" />
<text x="88.00" y="534.00" fill="#374151" font-size="12" font-family="Helvetica, Arial, sans-serif" text-anchor="end">0</text>
<line x1="100.00" y1="438.00" x2="960.00" y2="438.00" stroke="#e5e7eb" stroke-width="1" />
<text x="88.00" y="442.00" fill="#374151" font-size="12" font-family="Helvetica, Arial, sans-serif" text-anchor="end">270.3K</text>
<line x1="100.00" y1="346.00" x2="960.00" y2="346.00" stroke="#e5e7eb" stroke-width="1" />
<text x="88.00" y="350.00" fill="#374151" font-size="12" font-family="Helvetica, Arial, sans-serif" text-anchor="end">540.6K</text>
<line x1="100.00" y1="254.00" x2="960.00" y2="254.00" stroke="#e5e7eb" stroke-width="1" />
<text x="88.00" y="258.00" fill="#374151" font-size="12" font-family="Helvetica, Arial, sans-serif" text-anchor="end">810.9K</text>
<line x1="100.00" y1="162.00" x2="960.00" y2="162.00" stroke="#e5e7eb" stroke-width="1" />
<text x="88.00" y="166.00" fill="#374151" font-size="12" font-family="Helvetica, Arial, sans-serif" text-anchor="end">1.1M</text>
<line x1="100.00" y1="70.00" x2="960.00" y2="70.00" stroke="#e5e7eb" stroke-width="1" />
<text x="88.00" y="74.00" fill="#374151" font-size="12" font-family="Helvetica, Arial, sans-serif" text-anchor="end">1.4M</text>
<line x1="100.00" y1="70.00" x2="100.00" y2="530.00" stroke="#e5e7eb" stroke-width="1" />
<text x="100.00" y="554.00" fill="#374151" font-size="12" font-family="Helvetica, Arial, sans-serif" text-anchor="middle">0</text>
<line x1="272.00" y1="70.00" x2="272.00" y2="530.00" stroke="#e5e7eb" stroke-width="1" />
<text x="272.00" y="554.00" fill="#374151" font-size="12" font-family="Helvetica, Arial, sans-serif" text-anchor="middle">225.5M</text>
<line x1="444.00" y1="70.00" x2="444.00" y2="530.00" stroke="#e5e7eb" stroke-width="1" />
<text x="444.00" y="554.00" fill="#374151" font-size="12" font-family="Helvetica, Arial, sans-serif" text-anchor="middle">451.0M</text>
<line x1="616.00" y1="70.00" x2="616.00" y2="530.00" stroke="#e5e7eb" stroke-width="1" />
<text x="616.00" y="554.00" fill="#374151" font-size="12" font-family="Helvetica, Arial, sans-serif" text-anchor="middle">676.5M</text>
<line x1="788.00" y1="70.00" x2="788.00" y2="530.00" stroke="#e5e7eb" stroke-width="1" />
<text x="788.00" y="554.00" fill="#374151" font-size="12" font-family="Helvetica, Arial, sans-serif" text-anchor="middle">901.9M</text>
<line x1="960.00" y1="70.00" x2="960.00" y2="530.00" stroke="#e5e7eb" stroke-width="1" />
<text x="960.00" y="554.00" fill="#374151" font-size="12" font-family="Helvetica, Arial, sans-serif" text-anchor="middle">1.1B</text>
<line x1="100.00" y1="530.00" x2="960.00" y2="530.00" stroke="#111827" stroke-width="1.5" />
<line x1="100.00" y1="70.00" x2="100.00" y2="530.00" stroke="#111827" stroke-width="1.5" />
<text x="500.00" y="592.00" fill="#111827" font-size="16" font-family="Helvetica, Arial, sans-serif" text-anchor="middle" font-weight="600">MNK</text>
<text x="28.00" y="310.00" fill="#111827" font-size="16" font-family="Helvetica, Arial, sans-serif" text-anchor="middle" font-weight="600" transform="rotate(-90 28 310.00)">MFLOPs</text>
<polyline points="101.60,483.86 105.40,482.28 112.80,481.33 143.19,475.63 202.38,455.70 299.96,453.50 445.54,448.70 648.70,437.05 919.05,433.31" fill="none" stroke="#2563eb" stroke-width="3" stroke-linecap="round" stroke-linejoin="round" />
<circle cx="101.60" cy="483.86" r="4.50" fill="#2563eb" stroke="#ffffff" stroke-width="1.5" />
<circle cx="105.40" cy="482.28" r="4.50" fill="#2563eb" stroke="#ffffff" stroke-width="1.5" />
<circle cx="112.80" cy="481.33" r="4.50" fill="#2563eb" stroke="#ffffff" stroke-width="1.5" />
<circle cx="143.19" cy="475.63" r="4.50" fill="#2563eb" stroke="#ffffff" stroke-width="1.5" />
<circle cx="202.38" cy="455.70" r="4.50" fill="#2563eb" stroke="#ffffff" stroke-width="1.5" />
<circle cx="299.96" cy="453.50" r="4.50" fill="#2563eb" stroke="#ffffff" stroke-width="1.5" />
<circle cx="445.54" cy="448.70" r="4.50" fill="#2563eb" stroke="#ffffff" stroke-width="1.5" />
<circle cx="648.70" cy="437.05" r="4.50" fill="#2563eb" stroke="#ffffff" stroke-width="1.5" />
<circle cx="919.05" cy="433.31" r="4.50" fill="#2563eb" stroke="#ffffff" stroke-width="1.5" />
<line x1="740.00" y1="88.00" x2="764.00" y2="88.00" stroke="#2563eb" stroke-width="3" />
<circle cx="752.00" cy="88.00" r="4.50" fill="#2563eb" stroke="#ffffff" stroke-width="1.5" />
<text x="774.00" y="92.00" fill="#111827" font-size="13" font-family="Helvetica, Arial, sans-serif">Metal swizzled 32x32</text>
<polyline points="101.60,495.22 105.40,490.78 112.80,481.17 143.19,476.28 202.38,461.67 299.96,449.84 445.54,438.20 648.70,434.78 919.05,433.82" fill="none" stroke="#dc2626" stroke-width="3" stroke-linecap="round" stroke-linejoin="round" />
<circle cx="101.60" cy="495.22" r="4.50" fill="#dc2626" stroke="#ffffff" stroke-width="1.5" />
<circle cx="105.40" cy="490.78" r="4.50" fill="#dc2626" stroke="#ffffff" stroke-width="1.5" />
<circle cx="112.80" cy="481.17" r="4.50" fill="#dc2626" stroke="#ffffff" stroke-width="1.5" />
<circle cx="143.19" cy="476.28" r="4.50" fill="#dc2626" stroke="#ffffff" stroke-width="1.5" />
<circle cx="202.38" cy="461.67" r="4.50" fill="#dc2626" stroke="#ffffff" stroke-width="1.5" />
<circle cx="299.96" cy="449.84" r="4.50" fill="#dc2626" stroke="#ffffff" stroke-width="1.5" />
<circle cx="445.54" cy="438.20" r="4.50" fill="#dc2626" stroke="#ffffff" stroke-width="1.5" />
<circle cx="648.70" cy="434.78" r="4.50" fill="#dc2626" stroke="#ffffff" stroke-width="1.5" />
<circle cx="919.05" cy="433.82" r="4.50" fill="#dc2626" stroke="#ffffff" stroke-width="1.5" />
<line x1="740.00" y1="112.00" x2="764.00" y2="112.00" stroke="#dc2626" stroke-width="3" />
<circle cx="752.00" cy="112.00" r="4.50" fill="#dc2626" stroke="#ffffff" stroke-width="1.5" />
<text x="774.00" y="116.00" fill="#111827" font-size="13" font-family="Helvetica, Arial, sans-serif">Metal tiled 16x16</text>
<polyline points="101.60,480.67 105.40,478.74 112.80,470.80 143.19,469.09 202.38,462.87 299.96,432.51 445.54,431.32 648.70,430.07 919.05,425.46" fill="none" stroke="#16a34a" stroke-width="3" stroke-linecap="round" stroke-linejoin="round" />
<circle cx="101.60" cy="480.67" r="4.50" fill="#16a34a" stroke="#ffffff" stroke-width="1.5" />
<circle cx="105.40" cy="478.74" r="4.50" fill="#16a34a" stroke="#ffffff" stroke-width="1.5" />
<circle cx="112.80" cy="470.80" r="4.50" fill="#16a34a" stroke="#ffffff" stroke-width="1.5" />
<circle cx="143.19" cy="469.09" r="4.50" fill="#16a34a" stroke="#ffffff" stroke-width="1.5" />
<circle cx="202.38" cy="462.87" r="4.50" fill="#16a34a" stroke="#ffffff" stroke-width="1.5" />
<circle cx="299.96" cy="432.51" r="4.50" fill="#16a34a" stroke="#ffffff" stroke-width="1.5" />
<circle cx="445.54" cy="431.32" r="4.50" fill="#16a34a" stroke="#ffffff" stroke-width="1.5" />
<circle cx="648.70" cy="430.07" r="4.50" fill="#16a34a" stroke="#ffffff" stroke-width="1.5" />
<circle cx="919.05" cy="425.46" r="4.50" fill="#16a34a" stroke="#ffffff" stroke-width="1.5" />
<line x1="740.00" y1="136.00" x2="764.00" y2="136.00" stroke="#16a34a" stroke-width="3" />
<circle cx="752.00" cy="136.00" r="4.50" fill="#16a34a" stroke="#ffffff" stroke-width="1.5" />
<text x="774.00" y="140.00" fill="#111827" font-size="13" font-family="Helvetica, Arial, sans-serif">Metal tiled 32x32</text>
<polyline points="101.60,305.33 105.40,261.83 112.80,206.12 143.19,168.61 202.38,233.69 299.96,122.36 445.54,111.82 648.70,128.02 919.05,271.63" fill="none" stroke="#7c3aed" stroke-width="3" stroke-linecap="round" stroke-linejoin="round" />
<circle cx="101.60" cy="305.33" r="4.50" fill="#7c3aed" stroke="#ffffff" stroke-width="1.5" />
<circle cx="105.40" cy="261.83" r="4.50" fill="#7c3aed" stroke="#ffffff" stroke-width="1.5" />
<circle cx="112.80" cy="206.12" r="4.50" fill="#7c3aed" stroke="#ffffff" stroke-width="1.5" />
<circle cx="143.19" cy="168.61" r="4.50" fill="#7c3aed" stroke="#ffffff" stroke-width="1.5" />
<circle cx="202.38" cy="233.69" r="4.50" fill="#7c3aed" stroke="#ffffff" stroke-width="1.5" />
<circle cx="299.96" cy="122.36" r="4.50" fill="#7c3aed" stroke="#ffffff" stroke-width="1.5" />
<circle cx="445.54" cy="111.82" r="4.50" fill="#7c3aed" stroke="#ffffff" stroke-width="1.5" />
<circle cx="648.70" cy="128.02" r="4.50" fill="#7c3aed" stroke="#ffffff" stroke-width="1.5" />
<circle cx="919.05" cy="271.63" r="4.50" fill="#7c3aed" stroke="#ffffff" stroke-width="1.5" />
<line x1="740.00" y1="160.00" x2="764.00" y2="160.00" stroke="#7c3aed" stroke-width="3" />
<circle cx="752.00" cy="160.00" r="4.50" fill="#7c3aed" stroke="#ffffff" stroke-width="1.5" />
<text x="774.00" y="164.00" fill="#111827" font-size="13" font-family="Helvetica, Arial, sans-serif">vecLib cblas_sgemm</text>
</svg>