<?xml version="1.0" encoding="UTF-8"?>
<svg xmlns="http://www.w3.org/2000/svg" width="1000" height="620" viewBox="0 0 1000 620">
<rect width="100%" height="100%" fill="#ffffff" />
<text x="500.00" y="36.00" fill="#111827" font-size="24" font-family="Helvetica, Arial, sans-serif" text-anchor="middle" font-weight="700">GEMM benchmark: MNK vs MFLOPs</text>
<text x="500.00" y="58.00" fill="#6b7280" font-size="13" font-family="Helvetica, Arial, sans-serif" text-anchor="middle">Source: benchmark.csv</text>
<rect x="100" y="70" width="860" height="460" fill="#fafafa" stroke="#e5e7eb" />
<line x1="100.00" y1="530.00" x2="960.00" y2="530.00" stroke="#e5e7eb" stroke-width="1" />
<text x="88.00" y="534.00" fill="#374151" font-size="12" font-family="Helvetica, Arial, sans-serif" text-anchor="end">0</text>
<line x1="100.00" y1="438.00" x2="960.00" y2="438.00" stroke="#e5e7eb" stroke-width="1" />
<text x="88.00" y="442.00" fill="#374151" font-size="12" font-family="Helvetica, Arial, sans-serif" text-anchor="end">264.5K</text>
<line x1="100.00" y1="346.00" x2="960.00" y2="346.00" stroke="#e5e7eb" stroke-width="1" />
<text x="88.00" y="350.00" fill="#374151" font-size="12" font-family="Helvetica, Arial, sans-serif" text-anchor="end">529.1K</text>
<line x1="100.00" y1="254.00" x2="960.00" y2="254.00" stroke="#e5e7eb" stroke-width="1" />
<text x="88.00" y="258.00" fill="#374151" font-size="12" font-family="Helvetica, Arial, sans-serif" text-anchor="end">793.6K</text>
<line x1="100.00" y1="162.00" x2="960.00" y2="162.00" stroke="#e5e7eb" stroke-width="1" />
<text x="88.00" y="166.00" fill="#374151" font-size="12" font-family="Helvetica, Arial, sans-serif" text-anchor="end">1.1M</text>
<line x1="100.00" y1="70.00" x2="960.00" y2="70.00" stroke="#e5e7eb" stroke-width="1" />
<text x="88.00" y="74.00" fill="#374151" font-size="12" font-family="Helvetica, Arial, sans-serif" text-anchor="end">1.3M</text>
<line x1="100.00" y1="70.00" x2="100.00" y2="530.00" stroke="#e5e7eb" stroke-width="1" />
<text x="100.00" y="554.00" fill="#374151" font-size="12" font-family="Helvetica, Arial, sans-serif" text-anchor="middle">0</text>
<line x1="272.00" y1="70.00" x2="272.00" y2="530.00" stroke="#e5e7eb" stroke-width="1" />
<text x="272.00" y="554.00" fill="#374151" font-size="12" font-family="Helvetica, Arial, sans-serif" text-anchor="middle">440.4M</text>
<line x1="444.00" y1="70.00" x2="444.00" y2="530.00" stroke="#e5e7eb" stroke-width="1" />
<text x="444.00" y="554.00" fill="#374151" font-size="12" font-family="Helvetica, Arial, sans-serif" text-anchor="middle">880.8M</text>
<line x1="616.00" y1="70.00" x2="616.00" y2="530.00" stroke="#e5e7eb" stroke-width="1" />
<text x="616.00" y="554.00" fill="#374151" font-size="12" font-family="Helvetica, Arial, sans-serif" text-anchor="middle">1.3B</text>
<line x1="788.00" y1="70.00" x2="788.00" y2="530.00" stroke="#e5e7eb" stroke-width="1" />
<text x="788.00" y="554.00" fill="#374151" font-size="12" font-family="Helvetica, Arial, sans-serif" text-anchor="middle">1.8B</text>
<line x1="960.00" y1="70.00" x2="960.00" y2="530.00" stroke="#e5e7eb" stroke-width="1" />
<text x="960.00" y="554.00" fill="#374151" font-size="12" font-family="Helvetica, Arial, sans-serif" text-anchor="middle">2.2B</text>
<line x1="100.00" y1="530.00" x2="960.00" y2="530.00" stroke="#111827" stroke-width="1.5" />
<line x1="100.00" y1="70.00" x2="100.00" y2="530.00" stroke="#111827" stroke-width="1.5" />
<text x="500.00" y="592.00" fill="#111827" font-size="16" font-family="Helvetica, Arial, sans-serif" text-anchor="middle" font-weight="600">MNK</text>
<text x="28.00" y="310.00" fill="#111827" font-size="16" font-family="Helvetica, Arial, sans-serif" text-anchor="middle" font-weight="600" transform="rotate(-90 28 310.00)">MFLOPs</text>
<polyline points="100.82,509.78 102.76,485.09 106.55,460.69 122.11,435.43 152.42,429.55 202.38,413.86 276.91,367.41 380.93,354.28 519.35,344.83 697.09,339.56 919.05,340.35" fill="none" stroke="#2563eb" stroke-width="3" stroke-linecap="round" stroke-linejoin="round" />
<circle cx="100.82" cy="509.78" r="4.50" fill="#2563eb" stroke="#ffffff" stroke-width="1.5" />
<circle cx="102.76" cy="485.09" r="4.50" fill="#2563eb" stroke="#ffffff" stroke-width="1.5" />
<circle cx="106.55" cy="460.69" r="4.50" fill="#2563eb" stroke="#ffffff" stroke-width="1.5" />
<circle cx="122.11" cy="435.43" r="4.50" fill="#2563eb" stroke="#ffffff" stroke-width="1.5" />
<circle cx="152.42" cy="429.55" r="4.50" fill="#2563eb" stroke="#ffffff" stroke-width="1.5" />
<circle cx="202.38" cy="413.86" r="4.50" fill="#2563eb" stroke="#ffffff" stroke-width="1.5" />
<circle cx="276.91" cy="367.41" r="4.50" fill="#2563eb" stroke="#ffffff" stroke-width="1.5" />
<circle cx="380.93" cy="354.28" r="4.50" fill="#2563eb" stroke="#ffffff" stroke-width="1.5" />
<circle cx="519.35" cy="344.83" r="4.50" fill="#2563eb" stroke="#ffffff" stroke-width="1.5" />
<circle cx="697.09" cy="339.56" r="4.50" fill="#2563eb" stroke="#ffffff" stroke-width="1.5" />
<circle cx="919.05" cy="340.35" r="4.50" fill="#2563eb" stroke="#ffffff" stroke-width="1.5" />
<line x1="740.00" y1="88.00" x2="764.00" y2="88.00" stroke="#2563eb" stroke-width="3" />
<circle cx="752.00" cy="88.00" r="4.50" fill="#2563eb" stroke="#ffffff" stroke-width="1.5" />
<text x="774.00" y="92.00" fill="#111827" font-size="13" font-family="Helvetica, Arial, sans-serif">Metal packed-swizzled B 4x4</text>
<polyline points="100.82,501.38 102.76,467.19 106.55,449.59 122.11,414.75 152.42,405.50 202.38,387.88 276.91,361.70 380.93,334.89 519.35,310.37 697.09,300.71 919.05,298.74" fill="none" stroke="#dc2626" stroke-width="3" stroke-linecap="round" stroke-linejoin="round" />
<circle cx="100.82" cy="501.38" r="4.50" fill="#dc2626" stroke="#ffffff" stroke-width="1.5" />
<circle cx="102.76" cy="467.19" r="4.50" fill="#dc2626" stroke="#ffffff" stroke-width="1.5" />
<circle cx="106.55" cy="449.59" r="4.50" fill="#dc2626" stroke="#ffffff" stroke-width="1.5" />
<circle cx="122.11" cy="414.75" r="4.50" fill="#dc2626" stroke="#ffffff" stroke-width="1.5" />
<circle cx="152.42" cy="405.50" r="4.50" fill="#dc2626" stroke="#ffffff" stroke-width="1.5" />
<circle cx="202.38" cy="387.88" r="4.50" fill="#dc2626" stroke="#ffffff" stroke-width="1.5" />
<circle cx="276.91" cy="361.70" r="4.50" fill="#dc2626" stroke="#ffffff" stroke-width="1.5" />
<circle cx="380.93" cy="334.89" r="4.50" fill="#dc2626" stroke="#ffffff" stroke-width="1.5" />
<circle cx="519.35" cy="310.37" r="4.50" fill="#dc2626" stroke="#ffffff" stroke-width="1.5" />
<circle cx="697.09" cy="300.71" r="4.50" fill="#dc2626" stroke="#ffffff" stroke-width="1.5" />
<circle cx="919.05" cy="298.74" r="4.50" fill="#dc2626" stroke="#ffffff" stroke-width="1.5" />
<line x1="740.00" y1="112.00" x2="764.00" y2="112.00" stroke="#dc2626" stroke-width="3" />
<circle cx="752.00" cy="112.00" r="4.50" fill="#dc2626" stroke="#ffffff" stroke-width="1.5" />
<text x="774.00" y="116.00" fill="#111827" font-size="13" font-family="Helvetica, Arial, sans-serif">Metal packed-swizzled vec4 B 4x4</text>
<polyline points="100.82,501.37 102.76,467.10 106.55,437.96 122.11,411.10 152.42,403.25 202.38,392.56 276.91,343.36 380.93,332.59 519.35,310.87 697.09,297.50 919.05,294.14" fill="none" stroke="#16a34a" stroke-width="3" stroke-linecap="round" stroke-linejoin="round" />
<circle cx="100.82" cy="501.37" r="4.50" fill="#16a34a" stroke="#ffffff" stroke-width="1.5" />
<circle cx="102.76" cy="467.10" r="4.50" fill="#16a34a" stroke="#ffffff" stroke-width="1.5" />
<circle cx="106.55" cy="437.96" r="4.50" fill="#16a34a" stroke="#ffffff" stroke-width="1.5" />
<circle cx="122.11" cy="411.10" r="4.50" fill="#16a34a" stroke="#ffffff" stroke-width="1.5" />
<circle cx="152.42" cy="403.25" r="4.50" fill="#16a34a" stroke="#ffffff" stroke-width="1.5" />
<circle cx="202.38" cy="392.56" r="4.50" fill="#16a34a" stroke="#ffffff" stroke-width="1.5" />
<circle cx="276.91" cy="343.36" r="4.50" fill="#16a34a" stroke="#ffffff" stroke-width="1.5" />
<circle cx="380.93" cy="332.59" r="4.50" fill="#16a34a" stroke="#ffffff" stroke-width="1.5" />
<circle cx="519.35" cy="310.87" r="4.50" fill="#16a34a" stroke="#ffffff" stroke-width="1.5" />
<circle cx="697.09" cy="297.50" r="4.50" fill="#16a34a" stroke="#ffffff" stroke-width="1.5" />
<circle cx="919.05" cy="294.14" r="4.50" fill="#16a34a" stroke="#ffffff" stroke-width="1.5" />
<line x1="740.00" y1="136.00" x2="764.00" y2="136.00" stroke="#16a34a" stroke-width="3" />
<circle cx="752.00" cy="136.00" r="4.50" fill="#16a34a" stroke="#ffffff" stroke-width="1.5" />
<text x="774.00" y="140.00" fill="#111827" font-size="13" font-family="Helvetica, Arial, sans-serif">Metal packed-vectorized B 4x4</text>
<polyline points="100.82,509.83 102.76,485.39 106.55,466.08 122.11,420.46 152.42,397.46 202.38,342.60 276.91,358.99 380.93,358.28 519.35,338.53 697.09,334.56 919.05,334.86" fill="none" stroke="#7c3aed" stroke-width="3" stroke-linecap="round" stroke-linejoin="round" />
<circle cx="100.82" cy="509.83" r="4.50" fill="#7c3aed" stroke="#ffffff" stroke-width="1.5" />
<circle cx="102.76" cy="485.39" r="4.50" fill="#7c3aed" stroke="#ffffff" stroke-width="1.5" />
<circle cx="106.55" cy="466.08" r="4.50" fill="#7c3aed" stroke="#ffffff" stroke-width="1.5" />
<circle cx="122.11" cy="420.46" r="4.50" fill="#7c3aed" stroke="#ffffff" stroke-width="1.5" />
<circle cx="152.42" cy="397.46" r="4.50" fill="#7c3aed" stroke="#ffffff" stroke-width="1.5" />
<circle cx="202.38" cy="342.60" r="4.50" fill="#7c3aed" stroke="#ffffff" stroke-width="1.5" />
<circle cx="276.91" cy="358.99" r="4.50" fill="#7c3aed" stroke="#ffffff" stroke-width="1.5" />
<circle cx="380.93" cy="358.28" r="4.50" fill="#7c3aed" stroke="#ffffff" stroke-width="1.5" />
<circle cx="519.35" cy="338.53" r="4.50" fill="#7c3aed" stroke="#ffffff" stroke-width="1.5" />
<circle cx="697.09" cy="334.56" r="4.50" fill="#7c3aed" stroke="#ffffff" stroke-width="1.5" />
<circle cx="919.05" cy="334.86" r="4.50" fill="#7c3aed" stroke="#ffffff" stroke-width="1.5" />
<line x1="740.00" y1="160.00" x2="764.00" y2="160.00" stroke="#7c3aed" stroke-width="3" />
<circle cx="752.00" cy="160.00" r="4.50" fill="#7c3aed" stroke="#ffffff" stroke-width="1.5" />
<text x="774.00" y="164.00" fill="#111827" font-size="13" font-family="Helvetica, Arial, sans-serif">Metal register blocked 4x4</text>
<polyline points="100.82,488.08 102.76,487.79 106.55,483.65 122.11,479.81 152.42,471.04 202.38,448.12 276.91,454.03 380.93,450.78 519.35,453.53 697.09,451.82 919.05,455.69" fill="none" stroke="#ea580c" stroke-width="3" stroke-linecap="round" stroke-linejoin="round" />
<circle cx="100.82" cy="488.08" r="4.50" fill="#ea580c" stroke="#ffffff" stroke-width="1.5" />
<circle cx="102.76" cy="487.79" r="4.50" fill="#ea580c" stroke="#ffffff" stroke-width="1.5" />
<circle cx="106.55" cy="483.65" r="4.50" fill="#ea580c" stroke="#ffffff" stroke-width="1.5" />
<circle cx="122.11" cy="479.81" r="4.50" fill="#ea580c" stroke="#ffffff" stroke-width="1.5" />
<circle cx="152.42" cy="471.04" r="4.50" fill="#ea580c" stroke="#ffffff" stroke-width="1.5" />
<circle cx="202.38" cy="448.12" r="4.50" fill="#ea580c" stroke="#ffffff" stroke-width="1.5" />
<circle cx="276.91" cy="454.03" r="4.50" fill="#ea580c" stroke="#ffffff" stroke-width="1.5" />
<circle cx="380.93" cy="450.78" r="4.50" fill="#ea580c" stroke="#ffffff" stroke-width="1.5" />
<circle cx="519.35" cy="453.53" r="4.50" fill="#ea580c" stroke="#ffffff" stroke-width="1.5" />
<circle cx="697.09" cy="451.82" r="4.50" fill="#ea580c" stroke="#ffffff" stroke-width="1.5" />
<circle cx="919.05" cy="455.69" r="4.50" fill="#ea580c" stroke="#ffffff" stroke-width="1.5" />
<line x1="740.00" y1="184.00" x2="764.00" y2="184.00" stroke="#ea580c" stroke-width="3" />
<circle cx="752.00" cy="184.00" r="4.50" fill="#ea580c" stroke="#ffffff" stroke-width="1.5" />
<text x="774.00" y="188.00" fill="#111827" font-size="13" font-family="Helvetica, Arial, sans-serif">Metal swizzled 32x32</text>
<polyline points="100.82,504.69 102.76,478.06 106.55,476.47 122.11,473.99 152.42,461.08 202.38,446.26 276.91,435.99 380.93,429.82 519.35,429.38 697.09,429.42 919.05,430.22" fill="none" stroke="#0891b2" stroke-width="3" stroke-linecap="round" stroke-linejoin="round" />
<circle cx="100.82" cy="504.69" r="4.50" fill="#0891b2" stroke="#ffffff" stroke-width="1.5" />
<circle cx="102.76" cy="478.06" r="4.50" fill="#0891b2" stroke="#ffffff" stroke-width="1.5" />
<circle cx="106.55" cy="476.47" r="4.50" fill="#0891b2" stroke="#ffffff" stroke-width="1.5" />
<circle cx="122.11" cy="473.99" r="4.50" fill="#0891b2" stroke="#ffffff" stroke-width="1.5" />
<circle cx="152.42" cy="461.08" r="4.50" fill="#0891b2" stroke="#ffffff" stroke-width="1.5" />
<circle cx="202.38" cy="446.26" r="4.50" fill="#0891b2" stroke="#ffffff" stroke-width="1.5" />
<circle cx="276.91" cy="435.99" r="4.50" fill="#0891b2" stroke="#ffffff" stroke-width="1.5" />
<circle cx="380.93" cy="429.82" r="4.50" fill="#0891b2" stroke="#ffffff" stroke-width="1.5" />
<circle cx="519.35" cy="429.38" r="4.50" fill="#0891b2" stroke="#ffffff" stroke-width="1.5" />
<circle cx="697.09" cy="429.42" r="4.50" fill="#0891b2" stroke="#ffffff" stroke-width="1.5" />
<circle cx="919.05" cy="430.22" r="4.50" fill="#0891b2" stroke="#ffffff" stroke-width="1.5" />
<line x1="740.00" y1="208.00" x2="764.00" y2="208.00" stroke="#0891b2" stroke-width="3" />
<circle cx="752.00" cy="208.00" r="4.50" fill="#0891b2" stroke="#ffffff" stroke-width="1.5" />
<text x="774.00" y="212.00" fill="#111827" font-size="13" font-family="Helvetica, Arial, sans-serif">Metal tiled 16x16</text>
<polyline points="100.82,484.82 102.76,489.51 106.55,482.94 122.11,477.07 152.42,472.79 202.38,450.90 276.91,446.17 380.93,443.20 519.35,447.79 697.09,447.14 919.05,449.79" fill="none" stroke="#2563eb" stroke-width="3" stroke-linecap="round" stroke-linejoin="round" />
<circle cx="100.82" cy="484.82" r="4.50" fill="#2563eb" stroke="#ffffff" stroke-width="1.5" />
<circle cx="102.76" cy="489.51" r="4.50" fill="#2563eb" stroke="#ffffff" stroke-width="1.5" />
<circle cx="106.55" cy="482.94" r="4.50" fill="#2563eb" stroke="#ffffff" stroke-width="1.5" />
<circle cx="122.11" cy="477.07" r="4.50" fill="#2563eb" stroke="#ffffff" stroke-width="1.5" />
<circle cx="152.42" cy="472.79" r="4.50" fill="#2563eb" stroke="#ffffff" stroke-width="1.5" />
<circle cx="202.38" cy="450.90" r="4.50" fill="#2563eb" stroke="#ffffff" stroke-width="1.5" />
<circle cx="276.91" cy="446.17" r="4.50" fill="#2563eb" stroke="#ffffff" stroke-width="1.5" />
<circle cx="380.93" cy="443.20" r="4.50" fill="#2563eb" stroke="#ffffff" stroke-width="1.5" />
<circle cx="519.35" cy="447.79" r="4.50" fill="#2563eb" stroke="#ffffff" stroke-width="1.5" />
<circle cx="697.09" cy="447.14" r="4.50" fill="#2563eb" stroke="#ffffff" stroke-width="1.5" />
<circle cx="919.05" cy="449.79" r="4.50" fill="#2563eb" stroke="#ffffff" stroke-width="1.5" />
<line x1="740.00" y1="232.00" x2="764.00" y2="232.00" stroke="#2563eb" stroke-width="3" />
<circle cx="752.00" cy="232.00" r="4.50" fill="#2563eb" stroke="#ffffff" stroke-width="1.5" />
<text x="774.00" y="236.00" fill="#111827" font-size="13" font-family="Helvetica, Arial, sans-serif">Metal tiled 32x32</text>
<polyline points="100.82,294.56 102.76,245.01 106.55,198.98 122.11,171.55 152.42,226.56 202.38,113.55 276.91,111.82 380.93,126.73 519.35,266.52 697.09,112.85 919.05,250.02" fill="none" stroke="#dc2626" stroke-width="3" stroke-linecap="round" stroke-linejoin="round" />
<circle cx="100.82" cy="294.56" r="4.50" fill="#dc2626" stroke="#ffffff" stroke-width="1.5" />
<circle cx="102.76" cy="245.01" r="4.50" fill="#dc2626" stroke="#ffffff" stroke-width="1.5" />
<circle cx="106.55" cy="198.98" r="4.50" fill="#dc2626" stroke="#ffffff" stroke-width="1.5" />
<circle cx="122.11" cy="171.55" r="4.50" fill="#dc2626" stroke="#ffffff" stroke-width="1.5" />
<circle cx="152.42" cy="226.56" r="4.50" fill="#dc2626" stroke="#ffffff" stroke-width="1.5" />
<circle cx="202.38" cy="113.55" r="4.50" fill="#dc2626" stroke="#ffffff" stroke-width="1.5" />
<circle cx="276.91" cy="111.82" r="4.50" fill="#dc2626" stroke="#ffffff" stroke-width="1.5" />
<circle cx="380.93" cy="126.73" r="4.50" fill="#dc2626" stroke="#ffffff" stroke-width="1.5" />
<circle cx="519.35" cy="266.52" r="4.50" fill="#dc2626" stroke="#ffffff" stroke-width="1.5" />
<circle cx="697.09" cy="112.85" r="4.50" fill="#dc2626" stroke="#ffffff" stroke-width="1.5" />
<circle cx="919.05" cy="250.02" r="4.50" fill="#dc2626" stroke="#ffffff" stroke-width="1.5" />
<line x1="740.00" y1="256.00" x2="764.00" y2="256.00" stroke="#dc2626" stroke-width="3" />
<circle cx="752.00" cy="256.00" r="4.50" fill="#dc2626" stroke="#ffffff" stroke-width="1.5" />
<text x="774.00" y="260.00" fill="#111827" font-size="13" font-family="Helvetica, Arial, sans-serif">vecLib cblas_sgemm</text>
</svg>