<?xml version="1.0" encoding="UTF-8"?>
<svg xmlns="http://www.w3.org/2000/svg" width="1000" height="620" viewBox="0 0 1000 620">
<rect width="100%" height="100%" fill="#ffffff" />
<text x="500.00" y="36.00" fill="#111827" font-size="24" font-family="Helvetica, Arial, sans-serif" text-anchor="middle" font-weight="700">GEMM benchmark: MNK vs MFLOPs</text>
<text x="500.00" y="58.00" fill="#6b7280" font-size="13" font-family="Helvetica, Arial, sans-serif" text-anchor="middle">Source: benchmark.csv</text>
<rect x="100" y="70" width="860" height="460" fill="#fafafa" stroke="#e5e7eb" />
<line x1="100.00" y1="530.00" x2="960.00" y2="530.00" stroke="#e5e7eb" stroke-width="1" />
<text x="88.00" y="534.00" fill="#374151" font-size="12" font-family="Helvetica, Arial, sans-serif" text-anchor="end">0</text>
<line x1="100.00" y1="438.00" x2="960.00" y2="438.00" stroke="#e5e7eb" stroke-width="1" />
<text x="88.00" y="442.00" fill="#374151" font-size="12" font-family="Helvetica, Arial, sans-serif" text-anchor="end">273.1K</text>
<line x1="100.00" y1="346.00" x2="960.00" y2="346.00" stroke="#e5e7eb" stroke-width="1" />
<text x="88.00" y="350.00" fill="#374151" font-size="12" font-family="Helvetica, Arial, sans-serif" text-anchor="end">546.1K</text>
<line x1="100.00" y1="254.00" x2="960.00" y2="254.00" stroke="#e5e7eb" stroke-width="1" />
<text x="88.00" y="258.00" fill="#374151" font-size="12" font-family="Helvetica, Arial, sans-serif" text-anchor="end">819.2K</text>
<line x1="100.00" y1="162.00" x2="960.00" y2="162.00" stroke="#e5e7eb" stroke-width="1" />
<text x="88.00" y="166.00" fill="#374151" font-size="12" font-family="Helvetica, Arial, sans-serif" text-anchor="end">1.1M</text>
<line x1="100.00" y1="70.00" x2="960.00" y2="70.00" stroke="#e5e7eb" stroke-width="1" />
<text x="88.00" y="74.00" fill="#374151" font-size="12" font-family="Helvetica, Arial, sans-serif" text-anchor="end">1.4M</text>
<line x1="100.00" y1="70.00" x2="100.00" y2="530.00" stroke="#e5e7eb" stroke-width="1" />
<text x="100.00" y="554.00" fill="#374151" font-size="12" font-family="Helvetica, Arial, sans-serif" text-anchor="middle">0</text>
<line x1="272.00" y1="70.00" x2="272.00" y2="530.00" stroke="#e5e7eb" stroke-width="1" />
<text x="272.00" y="554.00" fill="#374151" font-size="12" font-family="Helvetica, Arial, sans-serif" text-anchor="middle">225.5M</text>
<line x1="444.00" y1="70.00" x2="444.00" y2="530.00" stroke="#e5e7eb" stroke-width="1" />
<text x="444.00" y="554.00" fill="#374151" font-size="12" font-family="Helvetica, Arial, sans-serif" text-anchor="middle">451.0M</text>
<line x1="616.00" y1="70.00" x2="616.00" y2="530.00" stroke="#e5e7eb" stroke-width="1" />
<text x="616.00" y="554.00" fill="#374151" font-size="12" font-family="Helvetica, Arial, sans-serif" text-anchor="middle">676.5M</text>
<line x1="788.00" y1="70.00" x2="788.00" y2="530.00" stroke="#e5e7eb" stroke-width="1" />
<text x="788.00" y="554.00" fill="#374151" font-size="12" font-family="Helvetica, Arial, sans-serif" text-anchor="middle">901.9M</text>
<line x1="960.00" y1="70.00" x2="960.00" y2="530.00" stroke="#e5e7eb" stroke-width="1" />
<text x="960.00" y="554.00" fill="#374151" font-size="12" font-family="Helvetica, Arial, sans-serif" text-anchor="middle">1.1B</text>
<line x1="100.00" y1="530.00" x2="960.00" y2="530.00" stroke="#111827" stroke-width="1.5" />
<line x1="100.00" y1="70.00" x2="100.00" y2="530.00" stroke="#111827" stroke-width="1.5" />
<text x="500.00" y="592.00" fill="#111827" font-size="16" font-family="Helvetica, Arial, sans-serif" text-anchor="middle" font-weight="600">MNK</text>
<text x="28.00" y="310.00" fill="#111827" font-size="16" font-family="Helvetica, Arial, sans-serif" text-anchor="middle" font-weight="600" transform="rotate(-90 28 310.00)">MFLOPs</text>
<polyline points="101.60,510.39 105.40,486.55 112.80,462.89 143.19,438.29 202.38,434.15 299.96,410.56 445.54,380.72 648.70,355.05 919.05,347.81" fill="none" stroke="#2563eb" stroke-width="3" stroke-linecap="round" stroke-linejoin="round" />
<circle cx="101.60" cy="510.39" r="4.50" fill="#2563eb" stroke="#ffffff" stroke-width="1.5" />
<circle cx="105.40" cy="486.55" r="4.50" fill="#2563eb" stroke="#ffffff" stroke-width="1.5" />
<circle cx="112.80" cy="462.89" r="4.50" fill="#2563eb" stroke="#ffffff" stroke-width="1.5" />
<circle cx="143.19" cy="438.29" r="4.50" fill="#2563eb" stroke="#ffffff" stroke-width="1.5" />
<circle cx="202.38" cy="434.15" r="4.50" fill="#2563eb" stroke="#ffffff" stroke-width="1.5" />
<circle cx="299.96" cy="410.56" r="4.50" fill="#2563eb" stroke="#ffffff" stroke-width="1.5" />
<circle cx="445.54" cy="380.72" r="4.50" fill="#2563eb" stroke="#ffffff" stroke-width="1.5" />
<circle cx="648.70" cy="355.05" r="4.50" fill="#2563eb" stroke="#ffffff" stroke-width="1.5" />
<circle cx="919.05" cy="347.81" r="4.50" fill="#2563eb" stroke="#ffffff" stroke-width="1.5" />
<line x1="740.00" y1="88.00" x2="764.00" y2="88.00" stroke="#2563eb" stroke-width="3" />
<circle cx="752.00" cy="88.00" r="4.50" fill="#2563eb" stroke="#ffffff" stroke-width="1.5" />
<text x="774.00" y="92.00" fill="#111827" font-size="13" font-family="Helvetica, Arial, sans-serif">Metal packed-swizzled B 4x4</text>
<polyline points="101.60,510.51 105.40,486.80 112.80,460.00 143.19,429.89 202.38,426.38 299.96,397.39 445.54,384.91 648.70,345.20 919.05,343.64" fill="none" stroke="#dc2626" stroke-width="3" stroke-linecap="round" stroke-linejoin="round" />
<circle cx="101.60" cy="510.51" r="4.50" fill="#dc2626" stroke="#ffffff" stroke-width="1.5" />
<circle cx="105.40" cy="486.80" r="4.50" fill="#dc2626" stroke="#ffffff" stroke-width="1.5" />
<circle cx="112.80" cy="460.00" r="4.50" fill="#dc2626" stroke="#ffffff" stroke-width="1.5" />
<circle cx="143.19" cy="429.89" r="4.50" fill="#dc2626" stroke="#ffffff" stroke-width="1.5" />
<circle cx="202.38" cy="426.38" r="4.50" fill="#dc2626" stroke="#ffffff" stroke-width="1.5" />
<circle cx="299.96" cy="397.39" r="4.50" fill="#dc2626" stroke="#ffffff" stroke-width="1.5" />
<circle cx="445.54" cy="384.91" r="4.50" fill="#dc2626" stroke="#ffffff" stroke-width="1.5" />
<circle cx="648.70" cy="345.20" r="4.50" fill="#dc2626" stroke="#ffffff" stroke-width="1.5" />
<circle cx="919.05" cy="343.64" r="4.50" fill="#dc2626" stroke="#ffffff" stroke-width="1.5" />
<line x1="740.00" y1="112.00" x2="764.00" y2="112.00" stroke="#dc2626" stroke-width="3" />
<circle cx="752.00" cy="112.00" r="4.50" fill="#dc2626" stroke="#ffffff" stroke-width="1.5" />
<text x="774.00" y="116.00" fill="#111827" font-size="13" font-family="Helvetica, Arial, sans-serif">Metal register blocked 4x4</text>
<polyline points="101.60,489.58 105.40,488.85 112.80,483.31 143.19,482.61 202.38,474.98 299.96,455.12 445.54,458.48 648.70,452.26 919.05,455.44" fill="none" stroke="#16a34a" stroke-width="3" stroke-linecap="round" stroke-linejoin="round" />
<circle cx="101.60" cy="489.58" r="4.50" fill="#16a34a" stroke="#ffffff" stroke-width="1.5" />
<circle cx="105.40" cy="488.85" r="4.50" fill="#16a34a" stroke="#ffffff" stroke-width="1.5" />
<circle cx="112.80" cy="483.31" r="4.50" fill="#16a34a" stroke="#ffffff" stroke-width="1.5" />
<circle cx="143.19" cy="482.61" r="4.50" fill="#16a34a" stroke="#ffffff" stroke-width="1.5" />
<circle cx="202.38" cy="474.98" r="4.50" fill="#16a34a" stroke="#ffffff" stroke-width="1.5" />
<circle cx="299.96" cy="455.12" r="4.50" fill="#16a34a" stroke="#ffffff" stroke-width="1.5" />
<circle cx="445.54" cy="458.48" r="4.50" fill="#16a34a" stroke="#ffffff" stroke-width="1.5" />
<circle cx="648.70" cy="452.26" r="4.50" fill="#16a34a" stroke="#ffffff" stroke-width="1.5" />
<circle cx="919.05" cy="455.44" r="4.50" fill="#16a34a" stroke="#ffffff" stroke-width="1.5" />
<line x1="740.00" y1="136.00" x2="764.00" y2="136.00" stroke="#16a34a" stroke-width="3" />
<circle cx="752.00" cy="136.00" r="4.50" fill="#16a34a" stroke="#ffffff" stroke-width="1.5" />
<text x="774.00" y="140.00" fill="#111827" font-size="13" font-family="Helvetica, Arial, sans-serif">Metal swizzled 32x32</text>
<polyline points="101.60,488.91 105.40,479.58 112.80,477.37 143.19,475.74 202.38,464.72 299.96,449.45 445.54,438.46 648.70,435.37 919.05,432.12" fill="none" stroke="#7c3aed" stroke-width="3" stroke-linecap="round" stroke-linejoin="round" />
<circle cx="101.60" cy="488.91" r="4.50" fill="#7c3aed" stroke="#ffffff" stroke-width="1.5" />
<circle cx="105.40" cy="479.58" r="4.50" fill="#7c3aed" stroke="#ffffff" stroke-width="1.5" />
<circle cx="112.80" cy="477.37" r="4.50" fill="#7c3aed" stroke="#ffffff" stroke-width="1.5" />
<circle cx="143.19" cy="475.74" r="4.50" fill="#7c3aed" stroke="#ffffff" stroke-width="1.5" />
<circle cx="202.38" cy="464.72" r="4.50" fill="#7c3aed" stroke="#ffffff" stroke-width="1.5" />
<circle cx="299.96" cy="449.45" r="4.50" fill="#7c3aed" stroke="#ffffff" stroke-width="1.5" />
<circle cx="445.54" cy="438.46" r="4.50" fill="#7c3aed" stroke="#ffffff" stroke-width="1.5" />
<circle cx="648.70" cy="435.37" r="4.50" fill="#7c3aed" stroke="#ffffff" stroke-width="1.5" />
<circle cx="919.05" cy="432.12" r="4.50" fill="#7c3aed" stroke="#ffffff" stroke-width="1.5" />
<line x1="740.00" y1="160.00" x2="764.00" y2="160.00" stroke="#7c3aed" stroke-width="3" />
<circle cx="752.00" cy="160.00" r="4.50" fill="#7c3aed" stroke="#ffffff" stroke-width="1.5" />
<text x="774.00" y="164.00" fill="#111827" font-size="13" font-family="Helvetica, Arial, sans-serif">Metal tiled 16x16</text>
<polyline points="101.60,486.40 105.40,485.28 112.80,479.13 143.19,478.44 202.38,467.34 299.96,452.93 445.54,452.47 648.70,445.94 919.05,449.72" fill="none" stroke="#ea580c" stroke-width="3" stroke-linecap="round" stroke-linejoin="round" />
<circle cx="101.60" cy="486.40" r="4.50" fill="#ea580c" stroke="#ffffff" stroke-width="1.5" />
<circle cx="105.40" cy="485.28" r="4.50" fill="#ea580c" stroke="#ffffff" stroke-width="1.5" />
<circle cx="112.80" cy="479.13" r="4.50" fill="#ea580c" stroke="#ffffff" stroke-width="1.5" />
<circle cx="143.19" cy="478.44" r="4.50" fill="#ea580c" stroke="#ffffff" stroke-width="1.5" />
<circle cx="202.38" cy="467.34" r="4.50" fill="#ea580c" stroke="#ffffff" stroke-width="1.5" />
<circle cx="299.96" cy="452.93" r="4.50" fill="#ea580c" stroke="#ffffff" stroke-width="1.5" />
<circle cx="445.54" cy="452.47" r="4.50" fill="#ea580c" stroke="#ffffff" stroke-width="1.5" />
<circle cx="648.70" cy="445.94" r="4.50" fill="#ea580c" stroke="#ffffff" stroke-width="1.5" />
<circle cx="919.05" cy="449.72" r="4.50" fill="#ea580c" stroke="#ffffff" stroke-width="1.5" />
<line x1="740.00" y1="184.00" x2="764.00" y2="184.00" stroke="#ea580c" stroke-width="3" />
<circle cx="752.00" cy="184.00" r="4.50" fill="#ea580c" stroke="#ffffff" stroke-width="1.5" />
<text x="774.00" y="188.00" fill="#111827" font-size="13" font-family="Helvetica, Arial, sans-serif">Metal tiled 32x32</text>
<polyline points="101.60,302.84 105.40,252.18 112.80,212.93 143.19,194.20 202.38,245.84 299.96,126.40 445.54,120.45 648.70,111.82 919.05,271.99" fill="none" stroke="#0891b2" stroke-width="3" stroke-linecap="round" stroke-linejoin="round" />
<circle cx="101.60" cy="302.84" r="4.50" fill="#0891b2" stroke="#ffffff" stroke-width="1.5" />
<circle cx="105.40" cy="252.18" r="4.50" fill="#0891b2" stroke="#ffffff" stroke-width="1.5" />
<circle cx="112.80" cy="212.93" r="4.50" fill="#0891b2" stroke="#ffffff" stroke-width="1.5" />
<circle cx="143.19" cy="194.20" r="4.50" fill="#0891b2" stroke="#ffffff" stroke-width="1.5" />
<circle cx="202.38" cy="245.84" r="4.50" fill="#0891b2" stroke="#ffffff" stroke-width="1.5" />
<circle cx="299.96" cy="126.40" r="4.50" fill="#0891b2" stroke="#ffffff" stroke-width="1.5" />
<circle cx="445.54" cy="120.45" r="4.50" fill="#0891b2" stroke="#ffffff" stroke-width="1.5" />
<circle cx="648.70" cy="111.82" r="4.50" fill="#0891b2" stroke="#ffffff" stroke-width="1.5" />
<circle cx="919.05" cy="271.99" r="4.50" fill="#0891b2" stroke="#ffffff" stroke-width="1.5" />
<line x1="740.00" y1="208.00" x2="764.00" y2="208.00" stroke="#0891b2" stroke-width="3" />
<circle cx="752.00" cy="208.00" r="4.50" fill="#0891b2" stroke="#ffffff" stroke-width="1.5" />
<text x="774.00" y="212.00" fill="#111827" font-size="13" font-family="Helvetica, Arial, sans-serif">vecLib cblas_sgemm</text>
</svg>