<?xml version="1.0" encoding="UTF-8"?>
<svg xmlns="http://www.w3.org/2000/svg" width="1220" height="700" viewBox="0 0 1220 700">
<rect width="100%" height="100%" fill="#ffffff" />
<text x="610.00" y="36.00" fill="#111827" font-size="24" font-family="Helvetica, Arial, sans-serif" text-anchor="middle" font-weight="700">GEMM benchmark: MNK vs MFLOPs (wall time)</text>
<text x="610.00" y="58.00" fill="#6b7280" font-size="13" font-family="Helvetica, Arial, sans-serif" text-anchor="middle">Source: benchmark.csv</text>
<rect x="100" y="70" width="1080" height="540" fill="#fafafa" stroke="#e5e7eb" />
<line x1="100.00" y1="610.00" x2="1180.00" y2="610.00" stroke="#e5e7eb" stroke-width="1" />
<text x="88.00" y="614.00" fill="#374151" font-size="12" font-family="Helvetica, Arial, sans-serif" text-anchor="end">0</text>
<line x1="100.00" y1="502.00" x2="1180.00" y2="502.00" stroke="#e5e7eb" stroke-width="1" />
<text x="88.00" y="506.00" fill="#374151" font-size="12" font-family="Helvetica, Arial, sans-serif" text-anchor="end">270.6K</text>
<line x1="100.00" y1="394.00" x2="1180.00" y2="394.00" stroke="#e5e7eb" stroke-width="1" />
<text x="88.00" y="398.00" fill="#374151" font-size="12" font-family="Helvetica, Arial, sans-serif" text-anchor="end">541.2K</text>
<line x1="100.00" y1="286.00" x2="1180.00" y2="286.00" stroke="#e5e7eb" stroke-width="1" />
<text x="88.00" y="290.00" fill="#374151" font-size="12" font-family="Helvetica, Arial, sans-serif" text-anchor="end">811.9K</text>
<line x1="100.00" y1="178.00" x2="1180.00" y2="178.00" stroke="#e5e7eb" stroke-width="1" />
<text x="88.00" y="182.00" fill="#374151" font-size="12" font-family="Helvetica, Arial, sans-serif" text-anchor="end">1.1M</text>
<line x1="100.00" y1="70.00" x2="1180.00" y2="70.00" stroke="#e5e7eb" stroke-width="1" />
<text x="88.00" y="74.00" fill="#374151" font-size="12" font-family="Helvetica, Arial, sans-serif" text-anchor="end">1.4M</text>
<line x1="100.00" y1="70.00" x2="100.00" y2="610.00" stroke="#e5e7eb" stroke-width="1" />
<text x="100.00" y="634.00" fill="#374151" font-size="12" font-family="Helvetica, Arial, sans-serif" text-anchor="middle">0</text>
<line x1="316.00" y1="70.00" x2="316.00" y2="610.00" stroke="#e5e7eb" stroke-width="1" />
<text x="316.00" y="634.00" fill="#374151" font-size="12" font-family="Helvetica, Arial, sans-serif" text-anchor="middle">1.8B</text>
<line x1="532.00" y1="70.00" x2="532.00" y2="610.00" stroke="#e5e7eb" stroke-width="1" />
<text x="532.00" y="634.00" fill="#374151" font-size="12" font-family="Helvetica, Arial, sans-serif" text-anchor="middle">3.6B</text>
<line x1="748.00" y1="70.00" x2="748.00" y2="610.00" stroke="#e5e7eb" stroke-width="1" />
<text x="748.00" y="634.00" fill="#374151" font-size="12" font-family="Helvetica, Arial, sans-serif" text-anchor="middle">5.4B</text>
<line x1="964.00" y1="70.00" x2="964.00" y2="610.00" stroke="#e5e7eb" stroke-width="1" />
<text x="964.00" y="634.00" fill="#374151" font-size="12" font-family="Helvetica, Arial, sans-serif" text-anchor="middle">7.2B</text>
<line x1="1180.00" y1="70.00" x2="1180.00" y2="610.00" stroke="#e5e7eb" stroke-width="1" />
<text x="1180.00" y="634.00" fill="#374151" font-size="12" font-family="Helvetica, Arial, sans-serif" text-anchor="middle">9.0B</text>
<line x1="100.00" y1="610.00" x2="1180.00" y2="610.00" stroke="#111827" stroke-width="1.5" />
<line x1="100.00" y1="70.00" x2="100.00" y2="610.00" stroke="#111827" stroke-width="1.5" />
<text x="610.00" y="672.00" fill="#111827" font-size="16" font-family="Helvetica, Arial, sans-serif" text-anchor="middle" font-weight="600">MNK</text>
<text x="28.00" y="350.00" fill="#111827" font-size="16" font-family="Helvetica, Arial, sans-serif" text-anchor="middle" font-weight="600" transform="rotate(-90 28 350.00)">MFLOPs</text>
<polyline points="100.25,602.41 102.01,569.09 116.07,498.03 154.24,438.06 228.57,377.04 351.12,366.84 533.93,383.02 789.06,383.39 1128.57,354.40" fill="none" stroke="#2563eb" stroke-width="3" stroke-linecap="round" stroke-linejoin="round" />
<circle cx="100.25" cy="602.41" r="4.50" fill="#2563eb" stroke="#ffffff" stroke-width="1.5" />
<circle cx="102.01" cy="569.09" r="4.50" fill="#2563eb" stroke="#ffffff" stroke-width="1.5" />
<circle cx="116.07" cy="498.03" r="4.50" fill="#2563eb" stroke="#ffffff" stroke-width="1.5" />
<circle cx="154.24" cy="438.06" r="4.50" fill="#2563eb" stroke="#ffffff" stroke-width="1.5" />
<circle cx="228.57" cy="377.04" r="4.50" fill="#2563eb" stroke="#ffffff" stroke-width="1.5" />
<circle cx="351.12" cy="366.84" r="4.50" fill="#2563eb" stroke="#ffffff" stroke-width="1.5" />
<circle cx="533.93" cy="383.02" r="4.50" fill="#2563eb" stroke="#ffffff" stroke-width="1.5" />
<circle cx="789.06" cy="383.39" r="4.50" fill="#2563eb" stroke="#ffffff" stroke-width="1.5" />
<circle cx="1128.57" cy="354.40" r="4.50" fill="#2563eb" stroke="#ffffff" stroke-width="1.5" />
<line x1="820.00" y1="88.00" x2="844.00" y2="88.00" stroke="#2563eb" stroke-width="3" />
<circle cx="832.00" cy="88.00" r="4.50" fill="#2563eb" stroke="#ffffff" stroke-width="1.5" />
<text x="854.00" y="92.00" fill="#111827" font-size="13" font-family="Helvetica, Arial, sans-serif">Metal packed A+B aligned pipe</text>
<polyline points="100.25,604.03 102.01,582.04 116.07,514.74 154.24,538.72 228.57,410.14 351.12,406.82 533.93,406.29 789.06,398.24 1128.57,415.14" fill="none" stroke="#dc2626" stroke-width="3" stroke-linecap="round" stroke-linejoin="round" />
<circle cx="100.25" cy="604.03" r="4.50" fill="#dc2626" stroke="#ffffff" stroke-width="1.5" />
<circle cx="102.01" cy="582.04" r="4.50" fill="#dc2626" stroke="#ffffff" stroke-width="1.5" />
<circle cx="116.07" cy="514.74" r="4.50" fill="#dc2626" stroke="#ffffff" stroke-width="1.5" />
<circle cx="154.24" cy="538.72" r="4.50" fill="#dc2626" stroke="#ffffff" stroke-width="1.5" />
<circle cx="228.57" cy="410.14" r="4.50" fill="#dc2626" stroke="#ffffff" stroke-width="1.5" />
<circle cx="351.12" cy="406.82" r="4.50" fill="#dc2626" stroke="#ffffff" stroke-width="1.5" />
<circle cx="533.93" cy="406.29" r="4.50" fill="#dc2626" stroke="#ffffff" stroke-width="1.5" />
<circle cx="789.06" cy="398.24" r="4.50" fill="#dc2626" stroke="#ffffff" stroke-width="1.5" />
<circle cx="1128.57" cy="415.14" r="4.50" fill="#dc2626" stroke="#ffffff" stroke-width="1.5" />
<line x1="820.00" y1="112.00" x2="844.00" y2="112.00" stroke="#dc2626" stroke-width="3" />
<circle cx="832.00" cy="112.00" r="4.50" fill="#dc2626" stroke="#ffffff" stroke-width="1.5" />
<text x="854.00" y="116.00" fill="#111827" font-size="13" font-family="Helvetica, Arial, sans-serif">Metal packed-swizzled B 4x4</text>
<polyline points="100.25,603.29 102.01,568.08 116.07,508.89 154.24,439.46 228.57,378.74 351.12,356.05 533.93,370.60 789.06,369.02 1128.57,364.12" fill="none" stroke="#16a34a" stroke-width="3" stroke-linecap="round" stroke-linejoin="round" />
<circle cx="100.25" cy="603.29" r="4.50" fill="#16a34a" stroke="#ffffff" stroke-width="1.5" />
<circle cx="102.01" cy="568.08" r="4.50" fill="#16a34a" stroke="#ffffff" stroke-width="1.5" />
<circle cx="116.07" cy="508.89" r="4.50" fill="#16a34a" stroke="#ffffff" stroke-width="1.5" />
<circle cx="154.24" cy="439.46" r="4.50" fill="#16a34a" stroke="#ffffff" stroke-width="1.5" />
<circle cx="228.57" cy="378.74" r="4.50" fill="#16a34a" stroke="#ffffff" stroke-width="1.5" />
<circle cx="351.12" cy="356.05" r="4.50" fill="#16a34a" stroke="#ffffff" stroke-width="1.5" />
<circle cx="533.93" cy="370.60" r="4.50" fill="#16a34a" stroke="#ffffff" stroke-width="1.5" />
<circle cx="789.06" cy="369.02" r="4.50" fill="#16a34a" stroke="#ffffff" stroke-width="1.5" />
<circle cx="1128.57" cy="364.12" r="4.50" fill="#16a34a" stroke="#ffffff" stroke-width="1.5" />
<line x1="820.00" y1="136.00" x2="844.00" y2="136.00" stroke="#16a34a" stroke-width="3" />
<circle cx="832.00" cy="136.00" r="4.50" fill="#16a34a" stroke="#ffffff" stroke-width="1.5" />
<text x="854.00" y="140.00" fill="#111827" font-size="13" font-family="Helvetica, Arial, sans-serif">Metal packed-swizzled vec4 B 4x4</text>
<polyline points="100.25,602.68 102.01,579.03 116.07,531.83 154.24,435.48 228.57,378.12 351.12,348.78 533.93,332.86 789.06,338.60 1128.57,353.11" fill="none" stroke="#7c3aed" stroke-width="3" stroke-linecap="round" stroke-linejoin="round" />
<circle cx="100.25" cy="602.68" r="4.50" fill="#7c3aed" stroke="#ffffff" stroke-width="1.5" />
<circle cx="102.01" cy="579.03" r="4.50" fill="#7c3aed" stroke="#ffffff" stroke-width="1.5" />
<circle cx="116.07" cy="531.83" r="4.50" fill="#7c3aed" stroke="#ffffff" stroke-width="1.5" />
<circle cx="154.24" cy="435.48" r="4.50" fill="#7c3aed" stroke="#ffffff" stroke-width="1.5" />
<circle cx="228.57" cy="378.12" r="4.50" fill="#7c3aed" stroke="#ffffff" stroke-width="1.5" />
<circle cx="351.12" cy="348.78" r="4.50" fill="#7c3aed" stroke="#ffffff" stroke-width="1.5" />
<circle cx="533.93" cy="332.86" r="4.50" fill="#7c3aed" stroke="#ffffff" stroke-width="1.5" />
<circle cx="789.06" cy="338.60" r="4.50" fill="#7c3aed" stroke="#ffffff" stroke-width="1.5" />
<circle cx="1128.57" cy="353.11" r="4.50" fill="#7c3aed" stroke="#ffffff" stroke-width="1.5" />
<line x1="820.00" y1="160.00" x2="844.00" y2="160.00" stroke="#7c3aed" stroke-width="3" />
<circle cx="832.00" cy="160.00" r="4.50" fill="#7c3aed" stroke="#ffffff" stroke-width="1.5" />
<text x="854.00" y="164.00" fill="#111827" font-size="13" font-family="Helvetica, Arial, sans-serif">Metal packed-vectorized A+B 32x32x32</text>
<polyline points="100.25,602.54 102.01,564.36 116.07,487.56 154.24,418.65 228.57,355.22 351.12,306.31 533.93,296.52 789.06,334.98 1128.57,316.10" fill="none" stroke="#ea580c" stroke-width="3" stroke-linecap="round" stroke-linejoin="round" />
<circle cx="100.25" cy="602.54" r="4.50" fill="#ea580c" stroke="#ffffff" stroke-width="1.5" />
<circle cx="102.01" cy="564.36" r="4.50" fill="#ea580c" stroke="#ffffff" stroke-width="1.5" />
<circle cx="116.07" cy="487.56" r="4.50" fill="#ea580c" stroke="#ffffff" stroke-width="1.5" />
<circle cx="154.24" cy="418.65" r="4.50" fill="#ea580c" stroke="#ffffff" stroke-width="1.5" />
<circle cx="228.57" cy="355.22" r="4.50" fill="#ea580c" stroke="#ffffff" stroke-width="1.5" />
<circle cx="351.12" cy="306.31" r="4.50" fill="#ea580c" stroke="#ffffff" stroke-width="1.5" />
<circle cx="533.93" cy="296.52" r="4.50" fill="#ea580c" stroke="#ffffff" stroke-width="1.5" />
<circle cx="789.06" cy="334.98" r="4.50" fill="#ea580c" stroke="#ffffff" stroke-width="1.5" />
<circle cx="1128.57" cy="316.10" r="4.50" fill="#ea580c" stroke="#ffffff" stroke-width="1.5" />
<line x1="820.00" y1="184.00" x2="844.00" y2="184.00" stroke="#ea580c" stroke-width="3" />
<circle cx="832.00" cy="184.00" r="4.50" fill="#ea580c" stroke="#ffffff" stroke-width="1.5" />
<text x="854.00" y="188.00" fill="#111827" font-size="13" font-family="Helvetica, Arial, sans-serif">Metal packed-vectorized A+B 32x64x16</text>
<polyline points="100.25,602.46 102.01,561.89 116.07,484.22 154.24,433.75 228.57,349.90 351.12,303.20 533.93,295.05 789.06,313.03 1128.57,297.28" fill="none" stroke="#0891b2" stroke-width="3" stroke-linecap="round" stroke-linejoin="round" />
<circle cx="100.25" cy="602.46" r="4.50" fill="#0891b2" stroke="#ffffff" stroke-width="1.5" />
<circle cx="102.01" cy="561.89" r="4.50" fill="#0891b2" stroke="#ffffff" stroke-width="1.5" />
<circle cx="116.07" cy="484.22" r="4.50" fill="#0891b2" stroke="#ffffff" stroke-width="1.5" />
<circle cx="154.24" cy="433.75" r="4.50" fill="#0891b2" stroke="#ffffff" stroke-width="1.5" />
<circle cx="228.57" cy="349.90" r="4.50" fill="#0891b2" stroke="#ffffff" stroke-width="1.5" />
<circle cx="351.12" cy="303.20" r="4.50" fill="#0891b2" stroke="#ffffff" stroke-width="1.5" />
<circle cx="533.93" cy="295.05" r="4.50" fill="#0891b2" stroke="#ffffff" stroke-width="1.5" />
<circle cx="789.06" cy="313.03" r="4.50" fill="#0891b2" stroke="#ffffff" stroke-width="1.5" />
<circle cx="1128.57" cy="297.28" r="4.50" fill="#0891b2" stroke="#ffffff" stroke-width="1.5" />
<line x1="820.00" y1="208.00" x2="844.00" y2="208.00" stroke="#0891b2" stroke-width="3" />
<circle cx="832.00" cy="208.00" r="4.50" fill="#0891b2" stroke="#ffffff" stroke-width="1.5" />
<text x="854.00" y="212.00" fill="#111827" font-size="13" font-family="Helvetica, Arial, sans-serif">Metal packed-vectorized A+B 4x4 aligned</text>
<polyline points="100.25,603.25 102.01,564.76 116.07,519.65 154.24,410.13 228.57,347.83 351.12,307.38 533.93,311.26 789.06,301.17 1128.57,296.89" fill="none" stroke="#d97706" stroke-width="3" stroke-linecap="round" stroke-linejoin="round" />
<circle cx="100.25" cy="603.25" r="4.50" fill="#d97706" stroke="#ffffff" stroke-width="1.5" />
<circle cx="102.01" cy="564.76" r="4.50" fill="#d97706" stroke="#ffffff" stroke-width="1.5" />
<circle cx="116.07" cy="519.65" r="4.50" fill="#d97706" stroke="#ffffff" stroke-width="1.5" />
<circle cx="154.24" cy="410.13" r="4.50" fill="#d97706" stroke="#ffffff" stroke-width="1.5" />
<circle cx="228.57" cy="347.83" r="4.50" fill="#d97706" stroke="#ffffff" stroke-width="1.5" />
<circle cx="351.12" cy="307.38" r="4.50" fill="#d97706" stroke="#ffffff" stroke-width="1.5" />
<circle cx="533.93" cy="311.26" r="4.50" fill="#d97706" stroke="#ffffff" stroke-width="1.5" />
<circle cx="789.06" cy="301.17" r="4.50" fill="#d97706" stroke="#ffffff" stroke-width="1.5" />
<circle cx="1128.57" cy="296.89" r="4.50" fill="#d97706" stroke="#ffffff" stroke-width="1.5" />
<line x1="820.00" y1="232.00" x2="844.00" y2="232.00" stroke="#d97706" stroke-width="3" />
<circle cx="832.00" cy="232.00" r="4.50" fill="#d97706" stroke="#ffffff" stroke-width="1.5" />
<text x="854.00" y="236.00" fill="#111827" font-size="13" font-family="Helvetica, Arial, sans-serif">Metal packed-vectorized A+B 4x4 aligned private</text>
<polyline points="100.25,602.82 102.01,564.74 116.07,479.85 154.24,418.45 228.57,320.13 351.12,310.95 533.93,293.36 789.06,289.88 1128.57,316.93" fill="none" stroke="#db2777" stroke-width="3" stroke-linecap="round" stroke-linejoin="round" />
<circle cx="100.25" cy="602.82" r="4.50" fill="#db2777" stroke="#ffffff" stroke-width="1.5" />
<circle cx="102.01" cy="564.74" r="4.50" fill="#db2777" stroke="#ffffff" stroke-width="1.5" />
<circle cx="116.07" cy="479.85" r="4.50" fill="#db2777" stroke="#ffffff" stroke-width="1.5" />
<circle cx="154.24" cy="418.45" r="4.50" fill="#db2777" stroke="#ffffff" stroke-width="1.5" />
<circle cx="228.57" cy="320.13" r="4.50" fill="#db2777" stroke="#ffffff" stroke-width="1.5" />
<circle cx="351.12" cy="310.95" r="4.50" fill="#db2777" stroke="#ffffff" stroke-width="1.5" />
<circle cx="533.93" cy="293.36" r="4.50" fill="#db2777" stroke="#ffffff" stroke-width="1.5" />
<circle cx="789.06" cy="289.88" r="4.50" fill="#db2777" stroke="#ffffff" stroke-width="1.5" />
<circle cx="1128.57" cy="316.93" r="4.50" fill="#db2777" stroke="#ffffff" stroke-width="1.5" />
<line x1="820.00" y1="256.00" x2="844.00" y2="256.00" stroke="#db2777" stroke-width="3" />
<circle cx="832.00" cy="256.00" r="4.50" fill="#db2777" stroke="#ffffff" stroke-width="1.5" />
<text x="854.00" y="260.00" fill="#111827" font-size="13" font-family="Helvetica, Arial, sans-serif">Metal packed-vectorized A+B 4x4 k16</text>
<polyline points="100.25,602.25 102.01,565.17 116.07,481.82 154.24,432.71 228.57,345.99 351.12,329.53 533.93,371.84 789.06,354.86 1128.57,333.57" fill="none" stroke="#4f46e5" stroke-width="3" stroke-linecap="round" stroke-linejoin="round" />
<circle cx="100.25" cy="602.25" r="4.50" fill="#4f46e5" stroke="#ffffff" stroke-width="1.5" />
<circle cx="102.01" cy="565.17" r="4.50" fill="#4f46e5" stroke="#ffffff" stroke-width="1.5" />
<circle cx="116.07" cy="481.82" r="4.50" fill="#4f46e5" stroke="#ffffff" stroke-width="1.5" />
<circle cx="154.24" cy="432.71" r="4.50" fill="#4f46e5" stroke="#ffffff" stroke-width="1.5" />
<circle cx="228.57" cy="345.99" r="4.50" fill="#4f46e5" stroke="#ffffff" stroke-width="1.5" />
<circle cx="351.12" cy="329.53" r="4.50" fill="#4f46e5" stroke="#ffffff" stroke-width="1.5" />
<circle cx="533.93" cy="371.84" r="4.50" fill="#4f46e5" stroke="#ffffff" stroke-width="1.5" />
<circle cx="789.06" cy="354.86" r="4.50" fill="#4f46e5" stroke="#ffffff" stroke-width="1.5" />
<circle cx="1128.57" cy="333.57" r="4.50" fill="#4f46e5" stroke="#ffffff" stroke-width="1.5" />
<line x1="820.00" y1="280.00" x2="844.00" y2="280.00" stroke="#4f46e5" stroke-width="3" />
<circle cx="832.00" cy="280.00" r="4.50" fill="#4f46e5" stroke="#ffffff" stroke-width="1.5" />
<text x="854.00" y="284.00" fill="#111827" font-size="13" font-family="Helvetica, Arial, sans-serif">Metal packed-vectorized A+B 4x4 unroll</text>
<polyline points="100.25,602.51 102.01,560.71 116.07,456.92 154.24,405.61 228.57,316.82 351.12,302.51 533.93,298.27 789.06,301.28 1128.57,285.81" fill="none" stroke="#059669" stroke-width="3" stroke-linecap="round" stroke-linejoin="round" />
<circle cx="100.25" cy="602.51" r="4.50" fill="#059669" stroke="#ffffff" stroke-width="1.5" />
<circle cx="102.01" cy="560.71" r="4.50" fill="#059669" stroke="#ffffff" stroke-width="1.5" />
<circle cx="116.07" cy="456.92" r="4.50" fill="#059669" stroke="#ffffff" stroke-width="1.5" />
<circle cx="154.24" cy="405.61" r="4.50" fill="#059669" stroke="#ffffff" stroke-width="1.5" />
<circle cx="228.57" cy="316.82" r="4.50" fill="#059669" stroke="#ffffff" stroke-width="1.5" />
<circle cx="351.12" cy="302.51" r="4.50" fill="#059669" stroke="#ffffff" stroke-width="1.5" />
<circle cx="533.93" cy="298.27" r="4.50" fill="#059669" stroke="#ffffff" stroke-width="1.5" />
<circle cx="789.06" cy="301.28" r="4.50" fill="#059669" stroke="#ffffff" stroke-width="1.5" />
<circle cx="1128.57" cy="285.81" r="4.50" fill="#059669" stroke="#ffffff" stroke-width="1.5" />
<line x1="820.00" y1="304.00" x2="844.00" y2="304.00" stroke="#059669" stroke-width="3" />
<circle cx="832.00" cy="304.00" r="4.50" fill="#059669" stroke="#ffffff" stroke-width="1.5" />
<text x="854.00" y="308.00" fill="#111827" font-size="13" font-family="Helvetica, Arial, sans-serif">Metal packed-vectorized A+B 64x32x16</text>
<polyline points="100.25,603.53 102.01,568.12 116.07,506.76 154.24,437.81 228.57,376.70 351.12,368.30 533.93,375.32 789.06,343.65 1128.57,361.78" fill="none" stroke="#b91c1c" stroke-width="3" stroke-linecap="round" stroke-linejoin="round" />
<circle cx="100.25" cy="603.53" r="4.50" fill="#b91c1c" stroke="#ffffff" stroke-width="1.5" />
<circle cx="102.01" cy="568.12" r="4.50" fill="#b91c1c" stroke="#ffffff" stroke-width="1.5" />
<circle cx="116.07" cy="506.76" r="4.50" fill="#b91c1c" stroke="#ffffff" stroke-width="1.5" />
<circle cx="154.24" cy="437.81" r="4.50" fill="#b91c1c" stroke="#ffffff" stroke-width="1.5" />
<circle cx="228.57" cy="376.70" r="4.50" fill="#b91c1c" stroke="#ffffff" stroke-width="1.5" />
<circle cx="351.12" cy="368.30" r="4.50" fill="#b91c1c" stroke="#ffffff" stroke-width="1.5" />
<circle cx="533.93" cy="375.32" r="4.50" fill="#b91c1c" stroke="#ffffff" stroke-width="1.5" />
<circle cx="789.06" cy="343.65" r="4.50" fill="#b91c1c" stroke="#ffffff" stroke-width="1.5" />
<circle cx="1128.57" cy="361.78" r="4.50" fill="#b91c1c" stroke="#ffffff" stroke-width="1.5" />
<line x1="820.00" y1="328.00" x2="844.00" y2="328.00" stroke="#b91c1c" stroke-width="3" />
<circle cx="832.00" cy="328.00" r="4.50" fill="#b91c1c" stroke="#ffffff" stroke-width="1.5" />
<text x="854.00" y="332.00" fill="#111827" font-size="13" font-family="Helvetica, Arial, sans-serif">Metal packed-vectorized B 4x4</text>
<polyline points="100.25,603.45 102.01,578.76 116.07,508.91 154.24,453.06 228.57,389.33 351.12,368.01 533.93,378.95 789.06,378.32 1128.57,394.26" fill="none" stroke="#1d4ed8" stroke-width="3" stroke-linecap="round" stroke-linejoin="round" />
<circle cx="100.25" cy="603.45" r="4.50" fill="#1d4ed8" stroke="#ffffff" stroke-width="1.5" />
<circle cx="102.01" cy="578.76" r="4.50" fill="#1d4ed8" stroke="#ffffff" stroke-width="1.5" />
<circle cx="116.07" cy="508.91" r="4.50" fill="#1d4ed8" stroke="#ffffff" stroke-width="1.5" />
<circle cx="154.24" cy="453.06" r="4.50" fill="#1d4ed8" stroke="#ffffff" stroke-width="1.5" />
<circle cx="228.57" cy="389.33" r="4.50" fill="#1d4ed8" stroke="#ffffff" stroke-width="1.5" />
<circle cx="351.12" cy="368.01" r="4.50" fill="#1d4ed8" stroke="#ffffff" stroke-width="1.5" />
<circle cx="533.93" cy="378.95" r="4.50" fill="#1d4ed8" stroke="#ffffff" stroke-width="1.5" />
<circle cx="789.06" cy="378.32" r="4.50" fill="#1d4ed8" stroke="#ffffff" stroke-width="1.5" />
<circle cx="1128.57" cy="394.26" r="4.50" fill="#1d4ed8" stroke="#ffffff" stroke-width="1.5" />
<line x1="820.00" y1="352.00" x2="844.00" y2="352.00" stroke="#1d4ed8" stroke-width="3" />
<circle cx="832.00" cy="352.00" r="4.50" fill="#1d4ed8" stroke="#ffffff" stroke-width="1.5" />
<text x="854.00" y="356.00" fill="#111827" font-size="13" font-family="Helvetica, Arial, sans-serif">Metal packed-vectorized B 4x4 k16</text>
<polyline points="100.25,606.64 102.01,578.86 116.07,525.77 154.24,482.56 228.57,415.32 351.12,403.62 533.93,397.48 789.06,399.17 1128.57,407.94" fill="none" stroke="#7c2d12" stroke-width="3" stroke-linecap="round" stroke-linejoin="round" />
<circle cx="100.25" cy="606.64" r="4.50" fill="#7c2d12" stroke="#ffffff" stroke-width="1.5" />
<circle cx="102.01" cy="578.86" r="4.50" fill="#7c2d12" stroke="#ffffff" stroke-width="1.5" />
<circle cx="116.07" cy="525.77" r="4.50" fill="#7c2d12" stroke="#ffffff" stroke-width="1.5" />
<circle cx="154.24" cy="482.56" r="4.50" fill="#7c2d12" stroke="#ffffff" stroke-width="1.5" />
<circle cx="228.57" cy="415.32" r="4.50" fill="#7c2d12" stroke="#ffffff" stroke-width="1.5" />
<circle cx="351.12" cy="403.62" r="4.50" fill="#7c2d12" stroke="#ffffff" stroke-width="1.5" />
<circle cx="533.93" cy="397.48" r="4.50" fill="#7c2d12" stroke="#ffffff" stroke-width="1.5" />
<circle cx="789.06" cy="399.17" r="4.50" fill="#7c2d12" stroke="#ffffff" stroke-width="1.5" />
<circle cx="1128.57" cy="407.94" r="4.50" fill="#7c2d12" stroke="#ffffff" stroke-width="1.5" />
<line x1="820.00" y1="376.00" x2="844.00" y2="376.00" stroke="#7c2d12" stroke-width="3" />
<circle cx="832.00" cy="376.00" r="4.50" fill="#7c2d12" stroke="#ffffff" stroke-width="1.5" />
<text x="854.00" y="380.00" fill="#111827" font-size="13" font-family="Helvetica, Arial, sans-serif">Metal register blocked 4x4</text>
<polyline points="100.25,602.86 102.01,579.32 116.07,548.00 154.24,532.03 228.57,528.09 351.12,528.50 533.93,531.00 789.06,533.02 1128.57,534.20" fill="none" stroke="#0f766e" stroke-width="3" stroke-linecap="round" stroke-linejoin="round" />
<circle cx="100.25" cy="602.86" r="4.50" fill="#0f766e" stroke="#ffffff" stroke-width="1.5" />
<circle cx="102.01" cy="579.32" r="4.50" fill="#0f766e" stroke="#ffffff" stroke-width="1.5" />
<circle cx="116.07" cy="548.00" r="4.50" fill="#0f766e" stroke="#ffffff" stroke-width="1.5" />
<circle cx="154.24" cy="532.03" r="4.50" fill="#0f766e" stroke="#ffffff" stroke-width="1.5" />
<circle cx="228.57" cy="528.09" r="4.50" fill="#0f766e" stroke="#ffffff" stroke-width="1.5" />
<circle cx="351.12" cy="528.50" r="4.50" fill="#0f766e" stroke="#ffffff" stroke-width="1.5" />
<circle cx="533.93" cy="531.00" r="4.50" fill="#0f766e" stroke="#ffffff" stroke-width="1.5" />
<circle cx="789.06" cy="533.02" r="4.50" fill="#0f766e" stroke="#ffffff" stroke-width="1.5" />
<circle cx="1128.57" cy="534.20" r="4.50" fill="#0f766e" stroke="#ffffff" stroke-width="1.5" />
<line x1="820.00" y1="400.00" x2="844.00" y2="400.00" stroke="#0f766e" stroke-width="3" />
<circle cx="832.00" cy="400.00" r="4.50" fill="#0f766e" stroke="#ffffff" stroke-width="1.5" />
<text x="854.00" y="404.00" fill="#111827" font-size="13" font-family="Helvetica, Arial, sans-serif">Metal swizzled 32x32</text>
<polyline points="100.25,602.62 102.01,576.57 116.07,544.91 154.24,509.76 228.57,499.67 351.12,501.08 533.93,502.75 789.06,509.09 1128.57,506.99" fill="none" stroke="#a21caf" stroke-width="3" stroke-linecap="round" stroke-linejoin="round" />
<circle cx="100.25" cy="602.62" r="4.50" fill="#a21caf" stroke="#ffffff" stroke-width="1.5" />
<circle cx="102.01" cy="576.57" r="4.50" fill="#a21caf" stroke="#ffffff" stroke-width="1.5" />
<circle cx="116.07" cy="544.91" r="4.50" fill="#a21caf" stroke="#ffffff" stroke-width="1.5" />
<circle cx="154.24" cy="509.76" r="4.50" fill="#a21caf" stroke="#ffffff" stroke-width="1.5" />
<circle cx="228.57" cy="499.67" r="4.50" fill="#a21caf" stroke="#ffffff" stroke-width="1.5" />
<circle cx="351.12" cy="501.08" r="4.50" fill="#a21caf" stroke="#ffffff" stroke-width="1.5" />
<circle cx="533.93" cy="502.75" r="4.50" fill="#a21caf" stroke="#ffffff" stroke-width="1.5" />
<circle cx="789.06" cy="509.09" r="4.50" fill="#a21caf" stroke="#ffffff" stroke-width="1.5" />
<circle cx="1128.57" cy="506.99" r="4.50" fill="#a21caf" stroke="#ffffff" stroke-width="1.5" />
<line x1="820.00" y1="424.00" x2="844.00" y2="424.00" stroke="#a21caf" stroke-width="3" />
<circle cx="832.00" cy="424.00" r="4.50" fill="#a21caf" stroke="#ffffff" stroke-width="1.5" />
<text x="854.00" y="428.00" fill="#111827" font-size="13" font-family="Helvetica, Arial, sans-serif">Metal tiled 16x16</text>
<polyline points="100.25,602.88 102.01,577.78 116.07,541.14 154.24,522.08 228.57,522.15 351.12,523.48 533.93,529.57 789.06,530.56 1128.57,526.72" fill="none" stroke="#65a30d" stroke-width="3" stroke-linecap="round" stroke-linejoin="round" />
<circle cx="100.25" cy="602.88" r="4.50" fill="#65a30d" stroke="#ffffff" stroke-width="1.5" />
<circle cx="102.01" cy="577.78" r="4.50" fill="#65a30d" stroke="#ffffff" stroke-width="1.5" />
<circle cx="116.07" cy="541.14" r="4.50" fill="#65a30d" stroke="#ffffff" stroke-width="1.5" />
<circle cx="154.24" cy="522.08" r="4.50" fill="#65a30d" stroke="#ffffff" stroke-width="1.5" />
<circle cx="228.57" cy="522.15" r="4.50" fill="#65a30d" stroke="#ffffff" stroke-width="1.5" />
<circle cx="351.12" cy="523.48" r="4.50" fill="#65a30d" stroke="#ffffff" stroke-width="1.5" />
<circle cx="533.93" cy="529.57" r="4.50" fill="#65a30d" stroke="#ffffff" stroke-width="1.5" />
<circle cx="789.06" cy="530.56" r="4.50" fill="#65a30d" stroke="#ffffff" stroke-width="1.5" />
<circle cx="1128.57" cy="526.72" r="4.50" fill="#65a30d" stroke="#ffffff" stroke-width="1.5" />
<line x1="820.00" y1="448.00" x2="844.00" y2="448.00" stroke="#65a30d" stroke-width="3" />
<circle cx="832.00" cy="448.00" r="4.50" fill="#65a30d" stroke="#ffffff" stroke-width="1.5" />
<text x="854.00" y="452.00" fill="#111827" font-size="13" font-family="Helvetica, Arial, sans-serif">Metal tiled 32x32</text>
<polyline points="100.25,345.88 102.01,231.95 116.07,263.35 154.24,119.09 228.57,363.52 351.12,315.20 533.93,282.13 789.06,331.48 1128.57,325.53" fill="none" stroke="#c2410c" stroke-width="3" stroke-linecap="round" stroke-linejoin="round" />
<circle cx="100.25" cy="345.88" r="4.50" fill="#c2410c" stroke="#ffffff" stroke-width="1.5" />
<circle cx="102.01" cy="231.95" r="4.50" fill="#c2410c" stroke="#ffffff" stroke-width="1.5" />
<circle cx="116.07" cy="263.35" r="4.50" fill="#c2410c" stroke="#ffffff" stroke-width="1.5" />
<circle cx="154.24" cy="119.09" r="4.50" fill="#c2410c" stroke="#ffffff" stroke-width="1.5" />
<circle cx="228.57" cy="363.52" r="4.50" fill="#c2410c" stroke="#ffffff" stroke-width="1.5" />
<circle cx="351.12" cy="315.20" r="4.50" fill="#c2410c" stroke="#ffffff" stroke-width="1.5" />
<circle cx="533.93" cy="282.13" r="4.50" fill="#c2410c" stroke="#ffffff" stroke-width="1.5" />
<circle cx="789.06" cy="331.48" r="4.50" fill="#c2410c" stroke="#ffffff" stroke-width="1.5" />
<circle cx="1128.57" cy="325.53" r="4.50" fill="#c2410c" stroke="#ffffff" stroke-width="1.5" />
<line x1="820.00" y1="472.00" x2="844.00" y2="472.00" stroke="#c2410c" stroke-width="3" />
<circle cx="832.00" cy="472.00" r="4.50" fill="#c2410c" stroke="#ffffff" stroke-width="1.5" />
<text x="854.00" y="476.00" fill="#111827" font-size="13" font-family="Helvetica, Arial, sans-serif">vecLib cblas_sgemm</text>
</svg>